<svg width="258" height="235" viewBox="0 0 258 235" fill="none" xmlns="http://www.w3.org/2000/svg">
<path d="M117.769 109.481C119.173 108.185 119.421 101.494 119.37 98.3101L147.838 96.7904C148.603 107.392 151.553 106.283 153.376 108.908C154.834 111.007 156.855 116.105 157.684 118.391L138.467 141.521L114.362 119.089C114.913 116.426 116.365 110.777 117.769 109.481Z" fill="#F7A387"/>
<path d="M144.255 38.8476C140.279 37.2113 136.21 38.7997 134.959 40.591L134.737 26.78C140.656 25.4079 144.874 25.5029 150.124 28.6576C153.99 30.3665 162.545 37.0654 165.759 45.9403C168.973 54.8152 172.093 64.6126 173.255 68.6675C174.631 74.6673 177.752 89.105 179.226 98.8581C180.699 108.611 184.643 117.368 186.139 119.469L160.882 117.751C157.211 113.792 150.019 111.07 145.313 104.564L150.147 98.2635C153.643 94.1016 155.619 92.4957 159.264 85.3646C160.459 72.5051 160.397 65.7226 157.504 51.1446C154.52 47.4731 148.23 40.4839 144.255 38.8476Z" fill="#6F3F35"/>
<path d="M118.532 39.3715C124.143 35.4561 131.9 37.5625 135.077 39.1051C140.314 36.3472 143.472 35.9029 149.848 38.8673C152.435 40.4193 158.097 44.5779 160.056 48.7965C162.505 54.0696 164.02 74.7644 162.958 82.2192C161.896 89.6739 153.153 97.2524 152.579 98.3241C152.005 99.3959 146.756 103.73 142.08 106.993C137.404 110.256 136.779 108.141 133.816 107.658C131.446 107.271 124.066 101.617 120.672 98.8378C113.513 94.703 110.033 86.613 109.189 83.0849C105.359 68.0101 108.244 58.9083 108.65 49.6241C109.606 47.838 112.921 43.2869 118.532 39.3715Z" fill="#F7A387"/>
<path d="M118.532 39.3715C124.143 35.4561 131.9 37.5625 135.077 39.1051C140.314 36.3472 143.472 35.9029 149.848 38.8673C152.435 40.4193 158.097 44.5779 160.056 48.7965C162.505 54.0696 164.02 74.7644 162.958 82.2192C161.896 89.6739 153.153 97.2524 152.579 98.3241C152.005 99.3959 146.756 103.73 142.08 106.993C137.404 110.256 136.779 108.141 133.816 107.658C131.446 107.271 124.066 101.617 120.672 98.8378C113.513 94.703 110.033 86.613 109.189 83.0849C105.359 68.0101 108.244 58.9083 108.65 49.6241C109.606 47.838 112.921 43.2869 118.532 39.3715Z" stroke="#F7A387"/>
<path d="M118.532 39.3715C124.143 35.4561 131.9 37.5625 135.077 39.1051C140.314 36.3472 143.472 35.9029 149.848 38.8673C152.435 40.4193 158.097 44.5779 160.056 48.7965C162.505 54.0696 164.02 74.7644 162.958 82.2192C161.896 89.6739 153.153 97.2524 152.579 98.3241C152.005 99.3959 146.756 103.73 142.08 106.993C137.404 110.256 136.779 108.141 133.816 107.658C131.446 107.271 124.066 101.617 120.672 98.8378C113.513 94.703 110.033 86.613 109.189 83.0849C105.359 68.0101 108.244 58.9083 108.65 49.6241C109.606 47.838 112.921 43.2869 118.532 39.3715Z" stroke="black" stroke-opacity="0.2"/>
<path d="M135.2 39.6776L135.171 37.8585C138.797 36.0766 140.874 35.095 150.485 35.7924L163.813 50.5894L166.168 84.6688L152.893 101.259C154.361 98.9607 157.733 93.4477 159.479 89.7804C161.226 86.1131 161.447 71.856 161.34 65.1859C161.619 60.0866 159.789 52.929 158.835 49.76C157.146 47.6644 152.666 42.3078 148.287 39.4669C143.908 36.6261 137.738 38.4237 135.2 39.6776Z" fill="#6F3F35"/>
<path d="M123.131 121.331C117.785 118.072 117.784 116.608 116.783 112.389C106.779 113.341 99.5446 113.12 83.4244 118.961C77.4107 122.44 74.7902 124.854 70.7443 129.613L41.4302 161.888L51.2871 178.292L68.7104 189.129C75.1921 178.19 79.2001 173.752 87.7342 171.876L89.5224 180.952C89.1182 185.108 86.847 190.652 85.0707 194.569C86.721 200.359 88.282 203.109 88.7652 205.562C90.7251 206.025 96.6829 207.467 104.835 209.53C112.988 211.593 122.677 211.281 126.503 210.867C128.725 210.939 135.777 211.384 146.207 212.591C156.637 213.797 162.079 206.066 163.496 202.05C169.858 199.166 171.28 188.965 171.196 184.226C172.412 181.778 175.928 175.139 180.263 168.17C184.598 161.201 190.443 162.937 192.825 164.676L208.88 173.743C216.768 165.493 221.156 161.107 228.643 155.071L230.531 146.545L199.817 119.981C194.752 115.715 191.747 113.453 184.742 110.721C170.508 107.868 163.131 110.528 149.741 108.953C150.843 111.963 150.208 114.386 143.334 120.408C135.076 127.641 130.081 125.567 123.131 121.331Z" fill="#FD3F81"/>
<path d="M123.131 121.331C117.785 118.072 117.784 116.608 116.783 112.389C106.779 113.341 99.5446 113.12 83.4244 118.961C77.4107 122.44 74.7902 124.854 70.7443 129.613L41.4302 161.888L51.2871 178.292L68.7104 189.129C75.1921 178.19 79.2001 173.752 87.7342 171.876L89.5224 180.952C89.1182 185.108 86.847 190.652 85.0707 194.569C86.721 200.359 88.282 203.109 88.7652 205.562C90.7251 206.025 96.6829 207.467 104.835 209.53C112.988 211.593 122.677 211.281 126.503 210.867C128.725 210.939 135.777 211.384 146.207 212.591C156.637 213.797 162.079 206.066 163.496 202.05C169.858 199.166 171.28 188.965 171.196 184.226C172.412 181.778 175.928 175.139 180.263 168.17C184.598 161.201 190.443 162.937 192.825 164.676L208.88 173.743C216.768 165.493 221.156 161.107 228.643 155.071L230.531 146.545L199.817 119.981C194.752 115.715 191.747 113.453 184.742 110.721C170.508 107.868 163.131 110.528 149.741 108.953C150.843 111.963 150.208 114.386 143.334 120.408C135.076 127.641 130.081 125.567 123.131 121.331Z" fill="white" fill-opacity="0.15"/>
<path d="M84.965 162.994L87.7342 171.876M87.7342 171.876L89.5224 180.952C89.1182 185.108 86.847 190.652 85.0707 194.569C86.721 200.359 88.282 203.109 88.7652 205.562C90.7251 206.025 96.6829 207.467 104.835 209.53C112.988 211.593 122.677 211.281 126.503 210.867C128.725 210.939 135.777 211.384 146.207 212.591C156.637 213.797 162.079 206.066 163.496 202.05C169.858 199.166 171.28 188.965 171.196 184.226C172.412 181.778 175.928 175.139 180.263 168.17C184.598 161.201 190.443 162.937 192.825 164.676L208.88 173.743C216.768 165.493 221.156 161.107 228.643 155.071L230.531 146.545L199.817 119.981C194.752 115.715 191.747 113.453 184.742 110.721C170.508 107.868 163.131 110.528 149.741 108.953C150.843 111.963 150.208 114.386 143.334 120.408C135.076 127.641 130.081 125.567 123.131 121.331C117.785 118.072 117.784 116.608 116.783 112.389C106.779 113.341 99.5446 113.12 83.4244 118.961C77.4107 122.44 74.7902 124.854 70.7443 129.613L41.4302 161.888L51.2871 178.292L68.7104 189.129C75.1921 178.19 79.2001 173.752 87.7342 171.876Z" stroke="#FD3F81"/>
<path d="M84.965 162.994L87.7342 171.876M87.7342 171.876L89.5224 180.952C89.1182 185.108 86.847 190.652 85.0707 194.569C86.721 200.359 88.282 203.109 88.7652 205.562C90.7251 206.025 96.6829 207.467 104.835 209.53C112.988 211.593 122.677 211.281 126.503 210.867C128.725 210.939 135.777 211.384 146.207 212.591C156.637 213.797 162.079 206.066 163.496 202.05C169.858 199.166 171.28 188.965 171.196 184.226C172.412 181.778 175.928 175.139 180.263 168.17C184.598 161.201 190.443 162.937 192.825 164.676L208.88 173.743C216.768 165.493 221.156 161.107 228.643 155.071L230.531 146.545L199.817 119.981C194.752 115.715 191.747 113.453 184.742 110.721C170.508 107.868 163.131 110.528 149.741 108.953C150.843 111.963 150.208 114.386 143.334 120.408C135.076 127.641 130.081 125.567 123.131 121.331C117.785 118.072 117.784 116.608 116.783 112.389C106.779 113.341 99.5446 113.12 83.4244 118.961C77.4107 122.44 74.7902 124.854 70.7443 129.613L41.4302 161.888L51.2871 178.292L68.7104 189.129C75.1921 178.19 79.2001 173.752 87.7342 171.876Z" stroke="white" stroke-opacity="0.1"/>
<path d="M53.0048 194.771C54.8125 193.6 60.254 185.868 62.7488 182.149L52.7996 175.956C50.1919 170.614 45.3404 164.093 42.1214 160.223C37.4696 151.689 35.0397 146.444 33.1852 138.032C36.3047 137.42 43.6907 136.579 48.4607 138.08C54.4369 139.96 53.277 134.074 52.7119 131.205C55.34 132.992 52.5046 132.615 54.7488 133.784C57.0203 134.967 58.9061 131.606 59.5651 129.777C61.9913 131.745 62.0921 126.222 61.8393 123.214C64.649 123.679 71.0146 124.26 73.9996 122.856C76.9846 121.453 74.7923 119.982 73.323 119.422C64.9931 117.666 48.1177 114.094 47.2554 113.856C46.3932 113.618 46.3807 111.141 46.4822 109.932C48.0696 103.504 43.0404 101.946 40.3274 101.971L41.7771 109.33C38.248 117.083 34.3591 119.515 25.3658 121.736C20.2387 124.27 19.15 126.747 19.353 132.603L26.3866 176.064C27.2565 180.479 30.8618 188.432 33.0101 191.576C35.1583 194.72 38.0944 196.689 42.4056 197.878C46.7168 199.068 50.7453 196.235 53.0048 194.771Z" fill="#F7A387"/>
<path d="M61.8393 123.214C64.649 123.679 71.0146 124.26 73.9996 122.856C76.9846 121.453 74.7923 119.982 73.323 119.422C64.9931 117.666 48.1177 114.094 47.2554 113.856C46.3932 113.618 46.3807 111.141 46.4822 109.932C48.0696 103.504 43.0404 101.946 40.3274 101.971L41.7771 109.33C38.248 117.083 34.3591 119.515 25.3658 121.736C20.2387 124.27 19.15 126.747 19.353 132.603L26.3866 176.064C27.2565 180.479 30.8618 188.432 33.0101 191.576C35.1583 194.72 38.0944 196.689 42.4056 197.878C46.7168 199.068 50.7453 196.235 53.0048 194.771C54.8125 193.6 60.254 185.868 62.7488 182.149L52.7996 175.956M61.8393 123.214L51.7526 118.576M61.8393 123.214C62.0921 126.222 61.9913 131.745 59.5651 129.777M59.5651 129.777C56.5324 127.317 58.4946 126.93 51.5373 125.243M59.5651 129.777C58.9061 131.606 57.0203 134.967 54.7488 133.784C52.5046 132.615 55.34 132.992 52.7119 131.205M49.2705 129.257C50.9332 130.105 52.0147 130.731 52.7119 131.205M52.7119 131.205C53.277 134.074 54.4369 139.96 48.4607 138.08C43.6797 136.576 36.2706 137.424 33.1637 138.036M32.5985 135.168C34.5376 145.342 36.9638 150.761 42.1214 160.223C45.3404 164.093 50.192 170.614 52.7996 175.956M53.9186 183.889C55.2632 182.49 54.5195 179.479 52.7996 175.956" stroke="#F7A387"/>
<path d="M61.8393 123.214C64.649 123.679 71.0146 124.26 73.9996 122.856C76.9846 121.453 74.7923 119.982 73.323 119.422C64.9931 117.666 48.1177 114.094 47.2554 113.856C46.3932 113.618 46.3807 111.141 46.4822 109.932C48.0696 103.504 43.0404 101.946 40.3274 101.971L41.7771 109.33C38.248 117.083 34.3591 119.515 25.3658 121.736C20.2387 124.27 19.15 126.747 19.353 132.603L26.3866 176.064C27.2565 180.479 30.8618 188.432 33.0101 191.576C35.1583 194.72 38.0944 196.689 42.4056 197.878C46.7168 199.068 50.7453 196.235 53.0048 194.771C54.8125 193.6 60.254 185.868 62.7488 182.149L52.7996 175.956M61.8393 123.214L51.7526 118.576M61.8393 123.214C62.0921 126.222 61.9913 131.745 59.5651 129.777M59.5651 129.777C56.5324 127.317 58.4946 126.93 51.5373 125.243M59.5651 129.777C58.9061 131.606 57.0203 134.967 54.7488 133.784C52.5046 132.615 55.34 132.992 52.7119 131.205M49.2705 129.257C50.9332 130.105 52.0147 130.731 52.7119 131.205M52.7119 131.205C53.277 134.074 54.4369 139.96 48.4607 138.08C43.6797 136.576 36.2706 137.424 33.1637 138.036M32.5985 135.168C34.5376 145.342 36.9638 150.761 42.1214 160.223C45.3404 164.093 50.192 170.614 52.7996 175.956M53.9186 183.889C55.2632 182.49 54.5195 179.479 52.7996 175.956" stroke="black" stroke-opacity="0.2"/>
<path d="M125.584 37.5547C128.648 37.0803 132.738 39.0335 134.4 40.0695L134.195 27.3207C131.443 26.6565 124.848 25.7709 120.488 27.5414C116.128 29.3119 110.372 35.1429 108.039 37.8372C105.54 41.5967 100.503 51.3496 100.173 60.2799C99.7478 71.8097 97.124 94.4132 95.9142 102.325C95.0097 114.566 94.0836 121.294 90.3701 132.701C87.3141 144.322 86.1878 150.004 84.7662 159.359C86.4806 155.724 87.1536 154.586 89.0587 153.444C87.3833 159.215 87.9982 161.326 89.7866 164.591C89.7067 160.268 90.2114 158.299 92.3914 156.047C92.4729 160.496 93.062 162.49 95.8181 164.494C95.4683 159.048 96.1501 157.404 98.4229 155.95C98.5374 164.511 100.405 166.205 104.696 167.539C104.872 164.96 105.175 162.154 105.601 159.023L107.127 151.56L114.427 128.063C114.317 124.845 115.605 122.746 116.466 118.466C118.342 114.686 120.833 110.536 123.389 105.603L124.426 101.866C117.824 97.5153 114.828 94.4524 111.575 87.1956C108.751 82.1866 107.205 62.3414 109.391 53.756C110.552 49.1969 113.455 45.0119 115.26 43.5659C117.425 41.7598 122.521 38.0291 125.584 37.5547Z" fill="#6F3F35"/>
<path d="M189.966 101.029C193.633 98.9475 202.537 94.4754 208.816 93.2383C206.769 88.8851 204.206 80.1832 210.325 80.2008C211.326 84.4203 215.033 93.2367 221.854 94.7465L232.721 100.759C234.19 101.319 237.596 103.774 239.463 109.113C241.33 114.453 245.926 135.019 247.99 144.635C249.217 149.999 250.841 162.725 247.523 170.717C246.827 174.082 243.653 180.041 236.523 176.961C229.393 173.881 221.218 168.256 218.022 165.828L226.514 156.51C226.4 150.737 227.746 145.453 228.776 142.815C229.43 133.717 228.706 121.765 228.262 116.926C224.962 118.799 219.176 116.508 216.696 115.128C211.993 114.016 206.689 116.93 204.625 118.525C200.546 118.514 201.563 115.052 202.581 113.322C198.502 113.311 199.454 109.522 200.44 107.629C195.891 107.302 197.828 103.856 199.365 102.173C196.158 103.998 192.232 105.739 190.049 106.618C188.119 107.169 183.612 108.09 181.025 107.377C178.438 106.664 185.908 102.848 189.966 101.029Z" fill="#F7A387"/>
<path d="M217.438 95.6164C217.181 94.3083 215.095 92.0012 208.816 93.2383M208.816 93.2383C202.537 94.4754 193.633 98.9475 189.966 101.029C185.908 102.848 178.438 106.664 181.025 107.377C183.612 108.09 188.119 107.169 190.049 106.618C192.232 105.739 196.158 103.998 199.365 102.173M208.816 93.2383C206.769 88.8851 204.206 80.1832 210.325 80.2008C211.326 84.4203 215.033 93.2367 221.854 94.7465L232.721 100.759C234.19 101.319 237.596 103.774 239.463 109.113C241.33 114.453 245.926 135.019 247.99 144.635C249.217 149.999 250.841 162.725 247.523 170.717C246.827 174.082 243.653 180.041 236.523 176.961C229.393 173.881 221.218 168.256 218.022 165.828L226.514 156.51M212.726 97.564C210.766 97.1008 206.158 96.8195 203.405 99.4004C202.471 100.276 201.013 101.236 199.365 102.173M199.365 102.173C197.828 103.856 195.891 107.302 200.44 107.629M200.44 107.629L207.806 103.63M200.44 107.629C199.454 109.522 198.502 113.311 202.581 113.322M202.581 113.322L209.456 109.42M202.581 113.322C201.563 115.052 200.546 118.514 204.625 118.525C206.689 116.93 211.993 114.016 216.696 115.128C219.176 116.508 224.962 118.799 228.262 116.926C228.706 121.765 229.43 133.717 228.776 142.815C227.746 145.453 226.4 150.737 226.514 156.51M228.22 165.857C227.054 162.821 226.575 159.596 226.514 156.51" stroke="#F7A387"/>
<path d="M217.438 95.6164C217.181 94.3083 215.095 92.0012 208.816 93.2383M208.816 93.2383C202.537 94.4754 193.633 98.9475 189.966 101.029C185.908 102.848 178.438 106.664 181.025 107.377C183.612 108.09 188.119 107.169 190.049 106.618C192.232 105.739 196.158 103.998 199.365 102.173M208.816 93.2383C206.769 88.8851 204.206 80.1832 210.325 80.2008C211.326 84.4203 215.033 93.2367 221.854 94.7465L232.721 100.759C234.19 101.319 237.596 103.774 239.463 109.113C241.33 114.453 245.926 135.019 247.99 144.635C249.217 149.999 250.841 162.725 247.523 170.717C246.827 174.082 243.653 180.041 236.523 176.961C229.393 173.881 221.218 168.256 218.022 165.828L226.514 156.51M212.726 97.564C210.766 97.1008 206.158 96.8195 203.405 99.4004C202.471 100.276 201.013 101.236 199.365 102.173M199.365 102.173C197.828 103.856 195.891 107.302 200.44 107.629M200.44 107.629L207.806 103.63M200.44 107.629C199.454 109.522 198.502 113.311 202.581 113.322M202.581 113.322L209.456 109.42M202.581 113.322C201.563 115.052 200.546 118.514 204.625 118.525C206.689 116.93 211.993 114.016 216.696 115.128C219.176 116.508 224.962 118.799 228.262 116.926C228.706 121.765 229.43 133.717 228.776 142.815C227.746 145.453 226.4 150.737 226.514 156.51M228.22 165.857C227.054 162.821 226.575 159.596 226.514 156.51" stroke="black" stroke-opacity="0.2"/>
</svg>
