<svg width="494" height="579" viewBox="0 0 494 579" fill="none" xmlns="http://www.w3.org/2000/svg">
<path d="M189.5 461.012C191.9 456.612 193.167 433.178 193.5 422.012H220.5C219.3 436.412 214 454.012 211.5 461.012C204.636 494.841 202.15 509.345 195 531.012C196.304 542.446 194.232 550.483 193.5 566.012H178C179.58 553.094 177.989 546.324 183 530.012L185 487.512C185.5 480.512 187.1 465.412 189.5 461.012Z" fill="#F7A387"/>
<path d="M260.999 497.012C263.298 486.191 265.513 441.417 263.999 420.012H238.499C238.362 434.928 238.607 443.974 240.999 464.512C240.506 491.067 241.056 505.955 243.499 532.512C241.231 545.678 240.57 552.874 239.999 565.512C245.455 569.218 255.999 565.512 255.999 565.512C255.999 565.512 254.424 541.969 254.999 526.512C257.647 522.066 258.574 508.426 260.999 497.012Z" fill="#F7A387"/>
<path d="M179.999 565.012C177.599 564.212 177.999 556.345 178.499 552.512C176.751 561.636 175.515 566.886 178.499 573.512C182.5 580.012 191 579.012 195.499 571.512C197.843 558.615 196.853 551.777 195.499 539.512C194.699 561.112 192.832 565.512 191.999 565.012C188.999 565.345 182.399 565.812 179.999 565.012Z" fill="#FD7CA1"/>
<path d="M240 564.012L243 532.012C238.098 536.064 236.096 540.213 238 561.512C235.95 564.312 237.146 569.345 238 571.512C243 580.012 251.357 580.512 256.5 571.512C258.1 568.712 257.167 561.345 256.5 558.012C256.1 563.212 255 564.845 254.5 565.012C252.833 565.678 248.7 566.912 245.5 566.512C242.3 566.112 240.5 564.678 240 564.012Z" fill="#FD7CA1"/>
<path d="M265.002 424.012C236.392 430.597 219.86 430.838 189.502 426.012C189.502 422.012 189.502 388.512 185.502 351.512C182.302 321.912 198.667 282.512 206 266.512H255.002C272.754 324.333 273.415 359.22 265.002 424.012Z" fill="#172428"/>
<path d="M322.687 224.173C313.159 230.837 296.774 251.757 289.773 261.383L275.946 253.317L318.276 218.253C318.588 214.669 319.962 207.087 322.952 205.432C325.942 203.777 324.52 209.202 323.435 212.121C322.817 215.914 323.697 216.547 328.444 215.235C331.947 214.313 333.41 208.941 333.705 206.37C336.11 204.321 336.721 204.812 336.502 208.2C337.979 207.132 338.367 207.689 338.736 209.166C339.39 208.59 340.103 207.99 340.922 207.326C343.364 206.162 343.413 206.971 342.725 209.271L343.613 208.445C346.273 207.75 346.157 208.483 345.39 210.204L338.774 216.742C333.423 221.576 325.82 223.71 322.687 224.173Z" fill="#F7A387"/>
<path d="M336.503 215.055C338.61 212.601 339.938 211.312 342.725 209.271M342.725 209.271L343.613 208.445C346.273 207.75 346.157 208.483 345.39 210.204L338.774 216.742C333.423 221.576 325.82 223.71 322.687 224.173C313.159 230.837 296.774 251.757 289.773 261.383L275.946 253.317L318.276 218.253C318.588 214.669 319.962 207.087 322.952 205.432C325.942 203.777 324.52 209.202 323.435 212.121C322.817 215.914 323.697 216.547 328.444 215.235C331.947 214.313 333.41 208.941 333.705 206.37C336.11 204.321 336.721 204.812 336.502 208.2M342.725 209.271C343.413 206.971 343.364 206.162 340.922 207.326C340.103 207.99 339.39 208.59 338.736 209.166M333.39 214.504C335.457 212.277 336.857 210.82 338.736 209.166M338.736 209.166C338.367 207.689 337.979 207.132 336.502 208.2M331.412 214.796C332.599 214.621 334.997 210.56 336.048 208.551C336.21 208.419 336.361 208.302 336.502 208.2" stroke="#F7A387"/>
<path d="M336.503 215.055C338.61 212.601 339.938 211.312 342.725 209.271M342.725 209.271L343.613 208.445C346.273 207.75 346.157 208.483 345.39 210.204L338.774 216.742C333.423 221.576 325.82 223.71 322.687 224.173C313.159 230.837 296.774 251.757 289.773 261.383L275.946 253.317L318.276 218.253C318.588 214.669 319.962 207.087 322.952 205.432C325.942 203.777 324.52 209.202 323.435 212.121C322.817 215.914 323.697 216.547 328.444 215.235C331.947 214.313 333.41 208.941 333.705 206.37C336.11 204.321 336.721 204.812 336.502 208.2M342.725 209.271C343.413 206.971 343.364 206.162 340.922 207.326C340.103 207.99 339.39 208.59 338.736 209.166M333.39 214.504C335.457 212.277 336.857 210.82 338.736 209.166M338.736 209.166C338.367 207.689 337.979 207.132 336.502 208.2M331.412 214.796C332.599 214.621 334.997 210.56 336.048 208.551C336.21 208.419 336.361 208.302 336.502 208.2" stroke="black" stroke-opacity="0.2"/>
<path d="M138.019 227.298C147.188 234.45 162.461 256.194 168.952 266.172L183.18 258.836L142.733 221.616C142.608 218.021 141.631 210.377 138.731 208.569C135.831 206.761 136.969 212.252 137.9 215.224C138.32 219.044 137.408 219.63 132.736 218.073C129.286 216.97 128.104 211.529 127.944 208.946C125.648 206.774 125.013 207.233 125.055 210.628C123.636 209.484 123.219 210.021 122.774 211.476C122.15 210.867 121.47 210.231 120.687 209.525C118.308 208.235 118.217 209.04 118.784 211.373L117.941 210.503C115.321 209.67 115.398 210.408 116.075 212.167L122.341 219.04C127.433 224.146 134.915 226.673 138.019 227.298Z" fill="#F7A387"/>
<path d="M124.697 217.474C122.721 214.914 121.462 213.557 118.784 211.373M118.784 211.373L117.941 210.503C115.321 209.67 115.398 210.408 116.075 212.167L122.341 219.04C127.433 224.146 134.915 226.673 138.019 227.298C147.188 234.45 162.461 256.194 168.952 266.172L183.18 258.836L142.733 221.616C142.608 218.021 141.631 210.377 138.731 208.569C135.831 206.761 136.969 212.252 137.9 215.224C138.32 219.044 137.408 219.63 132.736 218.073C129.286 216.97 128.104 211.529 127.944 208.946C125.648 206.774 125.013 207.233 125.055 210.628M118.784 211.373C118.217 209.04 118.308 208.235 120.687 209.525C121.47 210.231 122.15 210.867 122.774 211.476M127.835 217.085C125.886 214.754 124.564 213.226 122.774 211.476M122.774 211.476C123.219 210.021 123.636 209.484 125.055 210.628M129.795 217.48C128.619 217.243 126.435 213.063 125.49 211.002C125.335 210.862 125.191 210.737 125.055 210.628" stroke="#F7A387"/>
<path d="M124.697 217.474C122.721 214.914 121.462 213.557 118.784 211.373M118.784 211.373L117.941 210.503C115.321 209.67 115.398 210.408 116.075 212.167L122.341 219.04C127.433 224.146 134.915 226.673 138.019 227.298C147.188 234.45 162.461 256.194 168.952 266.172L183.18 258.836L142.733 221.616C142.608 218.021 141.631 210.377 138.731 208.569C135.831 206.761 136.969 212.252 137.9 215.224C138.32 219.044 137.408 219.63 132.736 218.073C129.286 216.97 128.104 211.529 127.944 208.946C125.648 206.774 125.013 207.233 125.055 210.628M118.784 211.373C118.217 209.04 118.308 208.235 120.687 209.525C121.47 210.231 122.15 210.867 122.774 211.476M127.835 217.085C125.886 214.754 124.564 213.226 122.774 211.476M122.774 211.476C123.219 210.021 123.636 209.484 125.055 210.628M129.795 217.48C128.619 217.243 126.435 213.063 125.49 211.002C125.335 210.862 125.191 210.737 125.055 210.628" stroke="black" stroke-opacity="0.2"/>
<path d="M223.5 168.512V174.012H240.5C239.97 169.455 240.11 166.375 241.5 159.512L223.5 168.512Z" fill="#F7A387"/>
<path d="M241 171.012C240.629 175.777 240.683 178.318 241.5 182.512C242.667 184.012 246 187.312 250 188.512C254 189.712 261.333 194.012 264.5 196.012C266.333 197.345 270.1 201.612 270.5 208.012C273.833 217.678 280.3 239.212 279.5 248.012C283.301 246.654 287.264 243.583 296 236.012C297.995 239.785 299.84 241.483 304 244.012C297.708 253.596 294.059 258.944 285 268.012C278.124 273.168 274.596 272.864 269 265.512C263.211 253.059 260.56 245.519 257.5 230.512C252.65 242.583 252.203 250.802 254.5 268.012C235.897 270.227 225.586 270.219 207 268.012C210.238 252.502 210.182 244.242 205.5 230.512C198.664 246.453 194.304 254.1 185 265.512C178.875 272.214 175.564 272.956 170.5 268.012C161.391 259.154 157.219 253.939 152 244.012C156.757 242.283 158.623 240.558 160 236.012C164.963 241.692 168.804 246.817 176 250.012C180.129 233.752 183.23 224.519 190 208.012L197 196.012C199.832 192.052 202.103 190.247 208.5 188.512C214.815 187.624 217.454 186.307 220.5 182.012C222.348 178.664 222.86 176.301 222.5 171.012C222.974 171.08 223.434 171.145 223.883 171.206C224.263 171.257 224.635 171.306 225 171.351C225.433 171.406 225.855 171.455 226.269 171.501C226.754 171.555 227.226 171.602 227.69 171.643C228.134 171.683 228.57 171.717 229 171.745C229.336 171.767 229.669 171.786 230 171.801C230.595 171.828 231.184 171.843 231.772 171.846C232.181 171.849 232.589 171.845 233 171.835C233.432 171.825 233.866 171.809 234.306 171.785C234.764 171.76 235.227 171.729 235.7 171.689C236.125 171.654 236.558 171.612 237 171.565C237.487 171.512 237.986 171.452 238.5 171.384C238.91 171.329 239.33 171.27 239.761 171.206C240.164 171.146 240.576 171.081 241 171.012Z" fill="#FD7CA1"/>
<path d="M241.5 182.512C240.683 178.318 240.629 175.777 241 171.012C240.576 171.081 240.164 171.146 239.761 171.206M241.5 182.512C242.667 184.012 246 187.312 250 188.512C254 189.712 261.333 194.012 264.5 196.012C266.333 197.345 270.1 201.612 270.5 208.012C273.833 217.678 280.3 239.212 279.5 248.012C283.301 246.654 287.264 243.583 296 236.012C297.995 239.785 299.84 241.483 304 244.012C297.708 253.596 294.059 258.944 285 268.012C278.124 273.168 274.596 272.864 269 265.512C263.211 253.059 260.56 245.519 257.5 230.512C252.65 242.583 252.203 250.802 254.5 268.012C235.897 270.227 225.586 270.219 207 268.012C210.238 252.502 210.182 244.242 205.5 230.512C198.664 246.453 194.304 254.1 185 265.512C178.875 272.214 175.564 272.956 170.5 268.012C161.391 259.154 157.219 253.939 152 244.012C156.757 242.283 158.623 240.558 160 236.012C164.963 241.692 168.804 246.817 176 250.012C180.129 233.752 183.23 224.519 190 208.012L197 196.012C199.832 192.052 202.103 190.247 208.5 188.512C214.815 187.624 217.454 186.307 220.5 182.012M241.5 182.512C240.986 182.599 240.487 182.681 240 182.756M220.5 182.012C222.348 178.664 222.86 176.301 222.5 171.012C222.974 171.08 223.434 171.145 223.883 171.206M220.5 182.012C221.192 182.157 221.857 182.388 222.5 182.512M239.761 171.206C239.414 175.71 239.41 178.281 240 182.756M239.761 171.206C239.33 171.27 238.91 171.329 238.5 171.384M240 182.756C239.486 182.836 238.987 182.908 238.5 182.974M238.5 171.384C237.942 175.94 238.063 178.404 238.5 182.974M238.5 171.384C237.986 171.452 237.487 171.512 237 171.565M238.5 182.974C238.161 183.02 237.828 183.063 237.5 183.102M237 171.565C236.746 177.14 236.805 179.808 237.5 183.102M237 171.565C236.558 171.612 236.125 171.654 235.7 171.689M237.5 183.102C236.988 183.163 236.489 183.216 236 183.262M235.7 171.689C235.449 176.213 235.503 178.747 236 183.262M235.7 171.689C235.227 171.729 234.764 171.76 234.306 171.785M236 183.262C235.558 183.303 235.123 183.337 234.695 183.365M234.306 171.785C234.124 176.292 234.205 178.828 234.695 183.365M234.306 171.785C233.866 171.809 233.432 171.825 233 171.835M234.695 183.365C234.214 183.396 233.741 183.419 233.273 183.434M233 171.835L233.273 183.434M233 171.835C232.589 171.845 232.181 171.849 231.772 171.846M233.273 183.434C232.676 183.453 232.087 183.461 231.5 183.458M223.883 171.206C224.22 175.689 223.859 178.294 222.5 182.512M223.883 171.206C224.263 171.257 224.635 171.306 225 171.351M222.5 182.512C222.972 182.602 223.432 182.686 223.883 182.762M225 171.351C225.46 175.858 225.16 178.37 223.883 182.762M225 171.351C225.433 171.406 225.855 171.455 226.269 171.501M223.883 182.762C224.339 182.84 224.786 182.91 225.223 182.974M226.269 171.501C226.603 176.006 226.471 178.527 225.223 182.974M226.269 171.501C226.754 171.555 227.226 171.602 227.69 171.643M225.223 182.974C225.736 183.049 226.237 183.114 226.729 183.171M227.69 171.643C227.884 176.201 227.754 178.719 226.729 183.171M227.69 171.643C228.134 171.683 228.57 171.717 229 171.745M226.729 183.171C227.234 183.228 227.729 183.277 228.218 183.317M229 171.745C229.303 176.221 228.998 178.849 228.218 183.317M229 171.745C229.336 171.767 229.669 171.786 230 171.801M228.218 183.317C228.714 183.357 229.204 183.388 229.691 183.411M230 171.801C230.625 171.961 230.664 173.953 229.691 183.411M230 171.801C230.595 171.828 231.184 171.843 231.772 171.846M229.691 183.411C230.296 183.439 230.897 183.455 231.5 183.458M231.772 171.846L231.5 183.458" stroke="#FD7CA1"/>
<path d="M241.5 182.512C240.683 178.318 240.629 175.777 241 171.012C240.576 171.081 240.164 171.146 239.761 171.206M241.5 182.512C242.667 184.012 246 187.312 250 188.512C254 189.712 261.333 194.012 264.5 196.012C266.333 197.345 270.1 201.612 270.5 208.012C273.833 217.678 280.3 239.212 279.5 248.012C283.301 246.654 287.264 243.583 296 236.012C297.995 239.785 299.84 241.483 304 244.012C297.708 253.596 294.059 258.944 285 268.012C278.124 273.168 274.596 272.864 269 265.512C263.211 253.059 260.56 245.519 257.5 230.512C252.65 242.583 252.203 250.802 254.5 268.012C235.897 270.227 225.586 270.219 207 268.012C210.238 252.502 210.182 244.242 205.5 230.512C198.664 246.453 194.304 254.1 185 265.512C178.875 272.214 175.564 272.956 170.5 268.012C161.391 259.154 157.219 253.939 152 244.012C156.757 242.283 158.623 240.558 160 236.012C164.963 241.692 168.804 246.817 176 250.012C180.129 233.752 183.23 224.519 190 208.012L197 196.012C199.832 192.052 202.103 190.247 208.5 188.512C214.815 187.624 217.454 186.307 220.5 182.012M241.5 182.512C240.986 182.599 240.487 182.681 240 182.756M220.5 182.012C222.348 178.664 222.86 176.301 222.5 171.012C222.974 171.08 223.434 171.145 223.883 171.206M220.5 182.012C221.192 182.157 221.857 182.388 222.5 182.512M239.761 171.206C239.414 175.71 239.41 178.281 240 182.756M239.761 171.206C239.33 171.27 238.91 171.329 238.5 171.384M240 182.756C239.486 182.836 238.987 182.908 238.5 182.974M238.5 171.384C237.942 175.94 238.063 178.404 238.5 182.974M238.5 171.384C237.986 171.452 237.487 171.512 237 171.565M238.5 182.974C238.161 183.02 237.828 183.063 237.5 183.102M237 171.565C236.746 177.14 236.805 179.808 237.5 183.102M237 171.565C236.558 171.612 236.125 171.654 235.7 171.689M237.5 183.102C236.988 183.163 236.489 183.216 236 183.262M235.7 171.689C235.449 176.213 235.503 178.747 236 183.262M235.7 171.689C235.227 171.729 234.764 171.76 234.306 171.785M236 183.262C235.558 183.303 235.123 183.337 234.695 183.365M234.306 171.785C234.124 176.292 234.205 178.828 234.695 183.365M234.306 171.785C233.866 171.809 233.432 171.825 233 171.835M234.695 183.365C234.214 183.396 233.741 183.419 233.273 183.434M233 171.835L233.273 183.434M233 171.835C232.589 171.845 232.181 171.849 231.772 171.846M233.273 183.434C232.676 183.453 232.087 183.461 231.5 183.458M223.883 171.206C224.22 175.689 223.859 178.294 222.5 182.512M223.883 171.206C224.263 171.257 224.635 171.306 225 171.351M222.5 182.512C222.972 182.602 223.432 182.686 223.883 182.762M225 171.351C225.46 175.858 225.16 178.37 223.883 182.762M225 171.351C225.433 171.406 225.855 171.455 226.269 171.501M223.883 182.762C224.339 182.84 224.786 182.91 225.223 182.974M226.269 171.501C226.603 176.006 226.471 178.527 225.223 182.974M226.269 171.501C226.754 171.555 227.226 171.602 227.69 171.643M225.223 182.974C225.736 183.049 226.237 183.114 226.729 183.171M227.69 171.643C227.884 176.201 227.754 178.719 226.729 183.171M227.69 171.643C228.134 171.683 228.57 171.717 229 171.745M226.729 183.171C227.234 183.228 227.729 183.277 228.218 183.317M229 171.745C229.303 176.221 228.998 178.849 228.218 183.317M229 171.745C229.336 171.767 229.669 171.786 230 171.801M228.218 183.317C228.714 183.357 229.204 183.388 229.691 183.411M230 171.801C230.625 171.961 230.664 173.953 229.691 183.411M230 171.801C230.595 171.828 231.184 171.843 231.772 171.846M229.691 183.411C230.296 183.439 230.897 183.455 231.5 183.458M231.772 171.846L231.5 183.458" stroke="black" stroke-opacity="0.2"/>
<path d="M207.501 157.012C203.101 152.212 203.334 134.012 204.001 125.512L234.5 98.5117L251 143.512C250.667 146.845 248.5 155.212 242.5 162.012C236.5 168.812 227 169.845 223 169.512C216.6 169.912 210.001 161.345 207.501 157.012Z" fill="#F7A387"/>
<path d="M207.501 157.012C203.101 152.212 203.334 134.012 204.001 125.512L234.5 98.5117L251 143.512C250.667 146.845 248.5 155.212 242.5 162.012C236.5 168.812 227 169.845 223 169.512C216.6 169.912 210.001 161.345 207.501 157.012Z" stroke="#F7A387"/>
<path d="M207.501 157.012C203.101 152.212 203.334 134.012 204.001 125.512L234.5 98.5117L251 143.512C250.667 146.845 248.5 155.212 242.5 162.012C236.5 168.812 227 169.845 223 169.512C216.6 169.912 210.001 161.345 207.501 157.012Z" stroke="black" stroke-opacity="0.2"/>
<path d="M250.5 146.012C242.5 138.012 232.5 116.345 228.5 106.512C221.798 117.254 216.342 120.942 204.5 124.512C202.1 128.112 203.5 143.345 204.5 150.512C208.5 163.712 218.167 168.678 222.5 169.512C223.3 184.312 212.833 188.012 207.5 188.012C198.3 188.012 188.667 208.345 185 218.512C177.8 221.312 173.333 213.678 172 209.512C168.8 196.312 181 185.012 187.5 181.012C195 174.345 207.9 159.512 199.5 153.512C191.1 147.512 191.333 133.345 192.5 127.012C194.667 122.345 200.6 111.212 207 104.012C213.4 96.812 224.667 95.0119 229.5 95.0119C241.845 94.8198 247.588 96.925 256 104.012C266.019 113.208 266.62 125.745 263 155.012C264.836 165.606 266.581 170.056 270.5 176.012C281.072 187.003 284.456 193.747 286 209.512C283.86 211.895 283.743 219.681 275.5 220.012C270.113 206.62 267.967 196.475 251.5 188.012C243.295 186.27 240.761 182.445 241 169.512V164.012C248.2 155.612 250.333 148.512 250.5 146.012Z" fill="#6F3F35"/>
<path d="M228.5 106.512C232.5 116.345 242.5 138.012 250.5 146.012C250.333 148.512 248.2 155.612 241 164.012V169.512C240.761 182.445 243.295 186.27 251.5 188.012C267.967 196.475 270.113 206.62 275.5 220.012C283.743 219.681 283.86 211.895 286 209.512C284.456 193.747 281.072 187.003 270.5 176.012C266.581 170.056 264.836 165.606 263 155.012C266.62 125.745 266.019 113.208 256 104.012C247.588 96.925 241.845 94.8198 229.5 95.0119M228.5 106.512L229.5 95.0119M228.5 106.512C221.798 117.254 216.342 120.942 204.5 124.512C202.1 128.112 203.5 143.345 204.5 150.512C208.5 163.712 218.167 168.678 222.5 169.512C223.3 184.312 212.833 188.012 207.5 188.012C198.3 188.012 188.667 208.345 185 218.512C177.8 221.312 173.333 213.678 172 209.512C168.8 196.312 181 185.012 187.5 181.012C195 174.345 207.9 159.512 199.5 153.512C191.1 147.512 191.333 133.345 192.5 127.012C194.667 122.345 200.6 111.212 207 104.012C213.4 96.812 224.667 95.0119 229.5 95.0119" stroke="#6F3F35"/>
<path d="M228.5 106.512C232.5 116.345 242.5 138.012 250.5 146.012C250.333 148.512 248.2 155.612 241 164.012V169.512C240.761 182.445 243.295 186.27 251.5 188.012C267.967 196.475 270.113 206.62 275.5 220.012C283.743 219.681 283.86 211.895 286 209.512C284.456 193.747 281.072 187.003 270.5 176.012C266.581 170.056 264.836 165.606 263 155.012C266.62 125.745 266.019 113.208 256 104.012C247.588 96.925 241.845 94.8198 229.5 95.0119M228.5 106.512L229.5 95.0119M228.5 106.512C221.798 117.254 216.342 120.942 204.5 124.512C202.1 128.112 203.5 143.345 204.5 150.512C208.5 163.712 218.167 168.678 222.5 169.512C223.3 184.312 212.833 188.012 207.5 188.012C198.3 188.012 188.667 208.345 185 218.512C177.8 221.312 173.333 213.678 172 209.512C168.8 196.312 181 185.012 187.5 181.012C195 174.345 207.9 159.512 199.5 153.512C191.1 147.512 191.333 133.345 192.5 127.012C194.667 122.345 200.6 111.212 207 104.012C213.4 96.812 224.667 95.0119 229.5 95.0119" stroke="black" stroke-opacity="0.2"/>
<path d="M184.98 56.1776L192.582 46.9346H278.037L280.134 57.2979C281.325 63.6328 281.252 67.2037 280.134 73.5432C250.934 74.2365 190.707 74.061 186.553 73.5432C182.797 73.0751 183.931 62.0595 184.98 56.1776Z" fill="#172428"/>
<path d="M184.98 56.1776L192.582 46.9346H278.037L280.134 57.2979C281.325 63.6328 281.252 67.2037 280.134 73.5432C250.934 74.2365 190.707 74.061 186.553 73.5432C182.797 73.0751 183.931 62.0595 184.98 56.1776Z" fill="white" fill-opacity="0.2"/>
<path d="M184.98 56.1776L192.582 46.9346H278.037L280.134 57.2979M184.98 56.1776C183.931 62.0595 182.797 73.0751 186.553 73.5432C190.707 74.061 250.934 74.2365 280.134 73.5432C281.252 67.2037 281.325 63.6328 280.134 57.2979M184.98 56.1776L280.134 57.2979" stroke="#172428"/>
<path d="M174.811 39.9327C174.811 37.692 180.752 32.2769 183.723 29.8494L271.799 20.6064L274.945 35.1712C277.145 36.4989 276.849 42.7558 276.78 52.2567C236.949 54.7938 214.633 55.457 174.811 54.2173C173.343 51.5284 174.199 43.5739 174.811 39.9327Z" fill="#F9C160"/>
<path d="M174.811 39.9327C174.811 37.692 180.752 32.2769 183.723 29.8494L271.799 20.6064L274.945 35.1712M174.811 39.9327C214.867 40.3314 236.667 39.3411 274.945 35.1712M174.811 39.9327C174.199 43.5739 173.343 51.5284 174.811 54.2173C214.633 55.457 236.949 54.7938 276.78 52.2567C276.849 42.7558 277.145 36.4989 274.945 35.1712" stroke="#F9C160"/>
<path d="M174.811 39.9327C174.811 37.692 180.752 32.2769 183.723 29.8494L271.799 20.6064L274.945 35.1712M174.811 39.9327C214.867 40.3314 236.667 39.3411 274.945 35.1712M174.811 39.9327C174.199 43.5739 173.343 51.5284 174.811 54.2173C214.633 55.457 236.949 54.7938 276.78 52.2567C276.849 42.7558 277.145 36.4989 274.945 35.1712" stroke="black" stroke-opacity="0.2"/>
<path d="M175.158 18.9258C184.192 12.4935 191.364 8.22041 210.546 1C234.633 3.50129 247.719 5.41049 270.574 9.40272C273.56 10.3651 273.971 11.161 272.147 13.0439C260.825 17.0154 254.501 19.9816 243.312 26.2082C239.905 30.6896 239.905 37.972 244.885 37.972L273.72 21.1665L274.506 22.2869C265.594 27.3285 247.402 37.6919 245.934 38.8122C244.466 39.9326 241.303 40.026 239.905 39.9326L175.158 33.2104C173.061 28.953 174.284 21.9134 175.158 18.9258Z" fill="#FC4C19"/>
<path d="M175.158 18.9258C184.192 12.4935 191.364 8.22041 210.546 1C234.633 3.50129 247.719 5.41049 270.574 9.40272C273.56 10.3651 273.971 11.161 272.147 13.0439C260.825 17.0154 254.501 19.9816 243.312 26.2082C239.905 30.6896 239.905 37.972 244.885 37.972L273.72 21.1665L274.506 22.2869C265.594 27.3285 247.402 37.6919 245.934 38.8122C244.466 39.9326 241.303 40.026 239.905 39.9326L175.158 33.2104C173.061 28.953 174.284 21.9134 175.158 18.9258Z" fill="#FFFDFD" fill-opacity="0.25"/>
<path d="M175.158 18.9258C184.192 12.4935 191.364 8.22041 210.546 1C234.633 3.50129 247.719 5.41049 270.574 9.40272C273.56 10.3651 273.971 11.161 272.147 13.0439C260.825 17.0154 254.501 19.9816 243.312 26.2082M175.158 18.9258C208.331 20.8622 222.449 22.5659 243.312 26.2082M175.158 18.9258C174.284 21.9134 173.061 28.953 175.158 33.2104L239.905 39.9326C241.303 40.026 244.466 39.9326 245.934 38.8122C247.402 37.6919 265.594 27.3285 274.506 22.2869L273.72 21.1665L244.885 37.972C239.905 37.972 239.905 30.6896 243.312 26.2082" stroke="#FC4C19"/>
<path d="M271.885 22.2871L244.885 37.9722C243.844 37.694 243.045 37.2258 242.477 36.5847C242.182 36.2525 241.949 35.874 241.777 35.4514C241.636 35.1068 241.535 34.7329 241.474 34.331C241.42 33.9788 241.396 33.605 241.401 33.2106C241.411 32.5246 241.51 31.7762 241.694 30.9699C241.874 30.1833 242.136 29.3416 242.477 28.4491C242.717 27.8203 242.996 27.1662 243.313 26.4885C254.203 20.3432 260.466 17.4151 271.885 13.3242V14.4446V15.845V17.5256V18.6459V19.7663V21.0267V22.2871Z" fill="#FAFAFA"/>
<path d="M271.885 22.2871L244.885 37.9722C243.844 37.694 243.045 37.2258 242.477 36.5847C242.182 36.2525 241.949 35.874 241.777 35.4514C241.636 35.1068 241.535 34.7329 241.474 34.331C241.42 33.9788 241.396 33.605 241.401 33.2106C241.411 32.5246 241.51 31.7762 241.694 30.9699C241.874 30.1833 242.136 29.3416 242.477 28.4491C242.717 27.8203 242.996 27.1662 243.313 26.4885C254.203 20.3432 260.466 17.4151 271.885 13.3242V14.4446V15.845V17.5256V18.6459V19.7663V21.0267V22.2871Z" fill="black" fill-opacity="0.05"/>
<path d="M242.477 28.4491C242.717 27.8203 242.996 27.1662 243.313 26.4885C254.203 20.3432 260.466 17.415 271.885 13.3242V14.4446M242.477 28.4491L271.885 14.4446M242.477 28.4491C242.136 29.3416 241.874 30.1833 241.694 30.9699M271.885 14.4446V15.845M241.694 30.9699L271.885 15.845M241.694 30.9699C241.51 31.7762 241.411 32.5246 241.401 33.2106M271.885 15.845V17.5256M241.401 33.2106L271.885 17.5256M241.401 33.2106C241.396 33.605 241.42 33.9788 241.474 34.331M271.885 17.5256V18.6459M241.474 34.331L271.885 18.6459M241.474 34.331C241.535 34.7329 241.636 35.1068 241.777 35.4514M271.885 18.6459V19.7663M241.777 35.4514L271.885 19.7663M241.777 35.4514C241.949 35.874 242.182 36.2525 242.477 36.5847M271.885 19.7663V21.0267M242.477 36.5847C243.045 37.2258 243.844 37.694 244.885 37.9722L271.885 22.2871V21.0267M242.477 36.5847L271.885 21.0267" stroke="#323232"/>
<path d="M139.999 426.941C135.082 425.094 132.324 424.946 127.416 425.273L129.933 439.45C133.937 439.967 136.139 439.786 139.999 437.782V426.941Z" fill="#FAFAFA"/>
<path d="M139.999 426.941C135.082 425.094 132.324 424.946 127.416 425.273L129.933 439.45C133.937 439.967 136.139 439.786 139.999 437.782V426.941Z" stroke="#FAFAFA"/>
<path d="M139.999 426.941C135.082 425.094 132.324 424.946 127.416 425.273L129.933 439.45C133.937 439.967 136.139 439.786 139.999 437.782V426.941Z" stroke="black" stroke-opacity="0.2"/>
<path d="M2.00195 481.979V491.152V493.653H89.6659V481.979H2.00195Z" fill="#FAFAFA"/>
<path d="M2.00195 481.979V491.152V493.653H89.6659V481.979H2.00195Z" stroke="#FAFAFA"/>
<path d="M2.00195 481.979V491.152V493.653H89.6659V481.979H2.00195Z" stroke="black" stroke-opacity="0.2"/>
<path d="M26.3303 484.063C24.2797 482.007 24.9837 480.45 26.3303 479.06H31.3641V468.242C30.0639 468.249 28.7369 467.711 27.1697 466.551V456.961H35.5581V466.551C34.0304 467.642 32.7116 468.234 31.3641 468.242V479.06H35.5581C36.8595 481.543 36.6305 482.534 35.5581 484.063H26.3303Z" fill="#FAFAFA"/>
<path d="M31.3641 479.06H35.5581C36.8595 481.543 36.6305 482.534 35.5581 484.063H26.3303C24.2797 482.007 24.9837 480.45 26.3303 479.06H31.3641ZM31.3641 479.06V468.219M27.1697 456.961V466.551C30.3609 468.913 32.5562 468.695 35.5581 466.551V456.961H27.1697Z" stroke="#FAFAFA"/>
<path d="M31.3641 479.06H35.5581C36.8595 481.543 36.6305 482.534 35.5581 484.063H26.3303C24.2797 482.007 24.9837 480.45 26.3303 479.06H31.3641ZM31.3641 479.06V468.219M27.1697 456.961V466.551C30.3609 468.913 32.5562 468.695 35.5581 466.551V456.961H27.1697Z" stroke="black" stroke-opacity="0.2"/>
<path d="M46.0445 456.961H15.425C12.0695 452.374 7.37167 437.697 15.425 415.682H32.2027H124.481C133.357 427.575 135.487 479.359 130.542 505.745C130.113 508.036 129.631 510.135 129.095 512H3.26122C2.34503 509.812 1.7478 507.815 1.39853 505.745C0.742808 501.859 0.961073 497.716 1.58344 491.569H74.9862C85.5587 491.883 87.8358 489.072 87.989 480.728V451.123C88.5383 444.838 87.0083 442.991 80.439 443.201H56.1112C49.0765 446.85 46.468 449.631 46.0445 456.961Z" fill="#FDC3CD"/>
<path d="M1.39853 505.745C1.7478 507.815 2.34503 509.812 3.26122 512H129.095C129.631 510.135 130.113 508.036 130.542 505.745M1.39853 505.745C0.742808 501.859 0.961073 497.716 1.58344 491.569H74.9862C85.5587 491.883 87.8358 489.072 87.989 480.728V451.123C88.5383 444.838 87.0083 442.991 80.439 443.201H56.1112C49.0765 446.85 46.468 449.631 46.0445 456.961H15.425C12.0695 452.374 7.37167 437.697 15.425 415.682H32.2027H124.481C133.357 427.575 135.487 479.359 130.542 505.745M1.39853 505.745H130.542" stroke="#FDC3CD"/>
<path d="M1.39853 505.745C1.7478 507.815 2.34503 509.812 3.26122 512H129.095C129.631 510.135 130.113 508.036 130.542 505.745M1.39853 505.745C0.742808 501.859 0.961073 497.716 1.58344 491.569H74.9862C85.5587 491.883 87.8358 489.072 87.989 480.728V451.123C88.5383 444.838 87.0083 442.991 80.439 443.201H56.1112C49.0765 446.85 46.468 449.631 46.0445 456.961H15.425C12.0695 452.374 7.37167 437.697 15.425 415.682H32.2027H124.481C133.357 427.575 135.487 479.359 130.542 505.745M1.39853 505.745H130.542" stroke="black" stroke-opacity="0.2"/>
<path d="M32.2031 415.682V447.371H37.2365V415.682" stroke="#FDC3CD"/>
<path d="M32.2031 415.682V447.371H37.2365V415.682" stroke="black" stroke-opacity="0.2"/>
<path d="M117.689 434.029C117.689 438.079 114.02 441.451 109.381 441.451C104.741 441.451 101.072 438.079 101.072 434.029C101.072 429.978 104.741 426.606 109.381 426.606C114.02 426.606 117.689 429.978 117.689 434.029Z" stroke="#C9AABE"/>
<path d="M114.333 467.385C114.333 470.1 112.119 472.306 109.381 472.306C106.642 472.306 104.428 470.1 104.428 467.385C104.428 464.671 106.642 462.465 109.381 462.465C112.119 462.465 114.333 464.671 114.333 467.385Z" stroke="#C9AABE"/>
<path d="M121.045 466.968C121.045 472.627 115.878 477.309 109.381 477.309C102.883 477.309 97.7168 472.627 97.7168 466.968C97.7168 461.309 102.883 456.627 109.381 456.627C115.878 456.627 121.045 461.309 121.045 466.968Z" stroke="#C9AABE"/>
<path d="M13.748 481.562C13.8879 483.09 14.8386 486.982 17.523 486.982C20.2075 486.982 34.3008 486.982 41.0119 486.982C42.1305 487.26 44.4514 485.898 44.7869 481.562" stroke="#FAFAFA"/>
<path d="M13.748 481.562C13.8879 483.09 14.8386 486.982 17.523 486.982C20.2075 486.982 34.3008 486.982 41.0119 486.982C42.1305 487.26 44.4514 485.898 44.7869 481.562" stroke="black" stroke-opacity="0.2"/>
<path d="M48.9806 408.176C46.7622 406.951 45.6027 406.822 43.9473 408.176V410.678V416.516H48.9806V408.176Z" fill="#FAFAFA"/>
<path d="M99.3139 401.922C98.6413 400.629 98.742 400.017 99.3139 399.004H103.508V394H107.283V399.004H111.478C112.03 400.151 112.017 400.775 111.478 401.922C111.042 401.973 110.624 402.02 110.22 402.061V411.512H111.478C112.126 413.148 112.206 414.043 111.478 415.682H100.142C99.5426 414.056 99.5234 413.143 100.142 411.512V402.017C99.8723 401.987 99.5967 401.956 99.3139 401.922Z" fill="#FAFAFA"/>
<path d="M100.142 402.017C99.8723 401.987 99.5967 401.956 99.3139 401.922C98.6413 400.629 98.742 400.017 99.3139 399.004H103.508M100.142 402.017V411.512M100.142 402.017C103.962 402.435 106.505 402.444 110.22 402.061M100.142 411.512C99.5234 413.143 99.5426 414.056 100.142 415.682H111.478C112.206 414.043 112.126 413.148 111.478 411.512H110.22M100.142 411.512H110.22M110.22 411.512V402.061M110.22 402.061C110.624 402.02 111.042 401.973 111.478 401.922C112.017 400.775 112.03 400.151 111.478 399.004H107.283M103.508 399.004V394H107.283V399.004M103.508 399.004H107.283M43.9473 416.516H48.9806V408.176C46.7622 406.951 45.6027 406.822 43.9473 408.176V410.678V416.516Z" stroke="#FAFAFA"/>
<path d="M100.142 402.017C99.8723 401.987 99.5967 401.956 99.3139 401.922C98.6413 400.629 98.742 400.017 99.3139 399.004H103.508M100.142 402.017V411.512M100.142 402.017C103.962 402.435 106.505 402.444 110.22 402.061M100.142 411.512C99.5234 413.143 99.5426 414.056 100.142 415.682H111.478C112.206 414.043 112.126 413.148 111.478 411.512H110.22M100.142 411.512H110.22M110.22 411.512V402.061M110.22 402.061C110.624 402.02 111.042 401.973 111.478 401.922C112.017 400.775 112.03 400.151 111.478 399.004H107.283M103.508 399.004V394H107.283V399.004M103.508 399.004H107.283M43.9473 416.516H48.9806V408.176C46.7622 406.951 45.6027 406.822 43.9473 408.176V410.678V416.516Z" stroke="black" stroke-opacity="0.2"/>
<path d="M43.9473 411.929L100.153 404.007L110.22 403.173L100.153 405.675L110.22 404.841L100.153 407.342L110.22 406.508L100.153 408.593L110.22 408.176L100.153 409.844H110.22L100.153 411.095H110.22L100.153 402.339" stroke="#3B021E"/>
<path d="M330.753 116.016C333.896 118.085 336.841 122.887 337.92 125.03L339.977 135.571C339.511 141.309 338.278 138.255 337.72 136.011C338.218 134.561 337.973 130.844 333.009 127.577C328.046 124.31 327.2 120.592 327.397 119.142C327.206 117.238 327.609 113.947 330.753 116.016Z" fill="#FDBDAC"/>
<path d="M329.307 118.77C331.178 117.275 335.448 123.454 337.35 126.731L337.682 128.431C334.11 125.833 327.436 120.265 329.307 118.77Z" fill="#FAFAFA"/>
<path d="M339.855 121.156C336.059 123.874 341.042 138.632 342.787 142.645C344.089 144.391 347.189 149.869 349.172 157.812C349.946 164.544 353.093 178.084 359.497 178.387C366.461 176.204 383.314 172.044 395.01 172.867C409.631 173.896 431.363 174.42 444.582 169.192C455.157 165.01 455.023 164.507 453.634 164.778C459.415 163.367 469.494 156.152 473.812 152.721C472.826 141.123 469.169 137.487 454.312 138.701C455.402 147.242 438.569 149.775 430.016 149.974C409.051 149.689 394.009 141.883 389.108 138.015C381.975 135.454 368.589 119.077 362.787 111.209C360.722 109.494 361.329 107.434 361.891 106.618C353.996 109.571 344.599 117.759 339.855 121.156Z" fill="#FDBDAC"/>
<path d="M382.007 141.344C368.678 133.639 349.562 138.264 342.447 141.83C345.159 146.159 346.155 148.879 347.681 153.868C351.254 149.751 359.495 147.494 363.801 145.957C368.564 144.763 381.368 144.449 395.718 155.258C409.102 165.339 423.908 171.017 430.617 172.448C439.605 171.677 454.362 165.628 456.766 163.285C445.35 165.372 425.946 162.065 418.246 159.861C411.742 157.013 395.335 149.049 382.007 141.344Z" fill="#FDA164"/>
<path d="M381.694 157.289C368.48 152.385 358.108 166.658 354.573 174.408C355.746 176.72 358.228 178.048 359.322 178.423C368.999 176.124 387.743 174.504 395.497 172.597C396.377 169.719 394.908 162.193 381.694 157.289Z" fill="#FD7D7F"/>
<path d="M378.237 152.493C361.584 150.661 352.151 158.291 349.996 162.948C350.573 167.454 352.357 170.978 354.468 174.782C357.705 170.052 365.452 157.816 376.222 156.946C387.089 156.069 391.677 168.725 393.796 173.106C400.342 174.387 404.984 173.885 411.509 173.355L400.481 165.801C392.139 155.569 382.176 152.666 378.237 152.493Z" fill="#FD712F"/>
<path d="M392.656 152.502C372.205 137.856 354.019 146.63 347.482 152.848L350.359 164.817C356.461 158.402 365.656 154.536 369.247 153.541C372.586 153.396 381.764 152.867 386.076 155.727C390.848 158.892 404.84 170.939 411.16 173.422C419.948 173.647 424.786 173.359 433.254 172.11C428.971 171.71 413.107 167.147 392.656 152.502Z" fill="#FD7CA1"/>
<ellipse cx="393.424" cy="199.827" rx="14.1528" ry="13.8576" transform="rotate(-11.0448 393.424 199.827)" fill="#2C2C2C"/>
<ellipse cx="451.417" cy="188.508" rx="14.1528" ry="13.8576" transform="rotate(-11.0448 451.417 188.508)" fill="#2C2C2C"/>
<path d="M381.422 196.522C372.632 199.509 369.308 196.946 368.744 195.291L426.667 176.219C444.43 173.351 454.478 169.31 472.409 158.466C472.55 162.052 472.912 163.727 474.812 165.233L462.828 175.867C458.053 170.799 444.773 172.021 440.644 179.492C441.673 179.741 442.13 180.396 442.804 182.247C438.385 186.966 437.351 190.299 438.58 197.543C436.482 196.4 435.284 193.892 434.947 192.781C430.543 185.734 431.289 184.2 432.212 184.314C430.868 182.6 429.391 181.865 428.49 181.864C423.941 182.583 413.557 186.285 405.687 188.786C397.858 191.274 396.049 194.256 396.364 196.43L397.927 196.125C398.622 195.989 400.952 207.006 401.261 211.358C401.508 214.839 399.067 216.434 397.816 216.795C397.695 208.461 396.253 204.62 387.933 201.252L387.402 198.532L389.766 197.717C386.702 196.056 382.789 196.138 381.422 196.522Z" fill="#AFAFAF"/>
<path d="M389.766 197.717C386.702 196.056 382.789 196.138 381.422 196.522C372.632 199.509 369.308 196.946 368.744 195.291L426.667 176.219C444.43 173.351 454.478 169.31 472.409 158.466C472.55 162.052 472.912 163.727 474.812 165.233L462.828 175.867C458.053 170.799 444.773 172.021 440.644 179.492M389.766 197.717L396.364 196.43M389.766 197.717L387.402 198.532L387.933 201.252C396.253 204.62 397.695 208.461 397.816 216.795C399.067 216.434 401.508 214.839 401.261 211.358C400.952 207.006 398.622 195.989 397.927 196.125C397.372 196.233 396.654 196.373 396.364 196.43M396.364 196.43C396.049 194.256 397.858 191.274 405.687 188.786C413.557 186.285 423.941 182.583 428.49 181.864C429.391 181.865 430.868 182.6 432.212 184.314M432.212 184.314L440.644 179.492M432.212 184.314C431.289 184.2 430.543 185.734 434.947 192.781C435.284 193.892 436.482 196.4 438.58 197.543C437.351 190.299 438.385 186.966 442.804 182.247C442.13 180.396 441.673 179.741 440.644 179.492" stroke="#AFAFAF"/>
<path d="M389.766 197.717C386.702 196.056 382.789 196.138 381.422 196.522C372.632 199.509 369.308 196.946 368.744 195.291L426.667 176.219C444.43 173.351 454.478 169.31 472.409 158.466C472.55 162.052 472.912 163.727 474.812 165.233L462.828 175.867C458.053 170.799 444.773 172.021 440.644 179.492M389.766 197.717L396.364 196.43M389.766 197.717L387.402 198.532L387.933 201.252C396.253 204.62 397.695 208.461 397.816 216.795C399.067 216.434 401.508 214.839 401.261 211.358C400.952 207.006 398.622 195.989 397.927 196.125C397.372 196.233 396.654 196.373 396.364 196.43M396.364 196.43C396.049 194.256 397.858 191.274 405.687 188.786C413.557 186.285 423.941 182.583 428.49 181.864C429.391 181.865 430.868 182.6 432.212 184.314M432.212 184.314L440.644 179.492M432.212 184.314C431.289 184.2 430.543 185.734 434.947 192.781C435.284 193.892 436.482 196.4 438.58 197.543C437.351 190.299 438.385 186.966 442.804 182.247C442.13 180.396 441.673 179.741 440.644 179.492" stroke="black" stroke-opacity="0.2"/>
<path d="M392.425 187.316L393.452 176.879C403.361 175.905 410.611 176.047 424.999 176.898L392.425 187.316Z" fill="#AFAFAF"/>
<path d="M392.425 187.316L393.452 176.879C403.361 175.905 410.611 176.047 424.999 176.898L392.425 187.316Z" fill="black" fill-opacity="0.5"/>
<path d="M399.18 175.761L387.322 175.958L391.754 188.506L399.18 175.761Z" fill="#585858"/>
<path d="M399.18 175.761L387.322 175.958L391.754 188.506L399.18 175.761Z" fill="black" fill-opacity="0.5"/>
<path d="M357.895 179.408C365.002 176.726 382.278 171.719 394.524 173.141C406.77 174.562 425.586 173.137 433.463 172.247C437.942 171.49 449.42 167.932 459.902 161.791C470.383 155.651 474.089 152.904 474.582 152.043C475.613 150.738 475.847 152.275 476.18 155.614C470.653 160.858 453.294 171.345 444.131 173.341C435.321 175.26 425.784 176.811 422.468 176.864C414.814 176.871 398.998 175.788 387.96 176.449C390.288 181.302 391.158 184.082 392.409 189.085C382.056 193.244 376.11 195.052 365.332 197.194C361.45 191.652 360.066 188.507 359.404 182.521C359.128 182.67 358.857 182.822 358.592 182.978L357.895 179.408Z" fill="#502D25"/>
<path d="M359.404 182.521C367.346 178.245 379.664 177.016 384.992 176.943C385.949 176.756 386.941 176.592 387.96 176.449M359.404 182.521C359.128 182.67 358.857 182.822 358.592 182.978L357.895 179.408C365.002 176.726 382.278 171.719 394.524 173.141C406.77 174.562 425.586 173.137 433.463 172.247C437.942 171.49 449.42 167.932 459.902 161.791C470.383 155.651 474.089 152.904 474.582 152.043C475.613 150.738 475.847 152.275 476.18 155.614C470.653 160.858 453.294 171.345 444.131 173.341C435.321 175.26 425.784 176.811 422.468 176.864C414.814 176.871 398.998 175.788 387.96 176.449M359.404 182.521C360.066 188.507 361.45 191.652 365.332 197.194C376.11 195.052 382.056 193.244 392.409 189.085C391.158 184.082 390.288 181.302 387.96 176.449" stroke="#502D25"/>
<path d="M359.404 182.521C367.346 178.245 379.664 177.016 384.992 176.943C385.949 176.756 386.941 176.592 387.96 176.449M359.404 182.521C359.128 182.67 358.857 182.822 358.592 182.978L357.895 179.408C365.002 176.726 382.278 171.719 394.524 173.141C406.77 174.562 425.586 173.137 433.463 172.247C437.942 171.49 449.42 167.932 459.902 161.791C470.383 155.651 474.089 152.904 474.582 152.043C475.613 150.738 475.847 152.275 476.18 155.614C470.653 160.858 453.294 171.345 444.131 173.341C435.321 175.26 425.784 176.811 422.468 176.864C414.814 176.871 398.998 175.788 387.96 176.449M359.404 182.521C360.066 188.507 361.45 191.652 365.332 197.194C376.11 195.052 382.056 193.244 392.409 189.085C391.158 184.082 390.288 181.302 387.96 176.449" stroke="black" stroke-opacity="0.2"/>
<path d="M471.179 188.181C467.33 183.727 465.67 180.772 462.902 175.324L463.976 174.363L465.05 173.402L472.569 166.676L474.257 165.166C478.748 167.642 481.186 169.428 485.492 172.856C487.246 174.604 487.173 175.476 486.114 176.971C482.756 182.598 480.582 184.971 475.405 188.591C473.671 189.463 472.761 189.455 471.612 188.551C471.472 188.441 471.328 188.318 471.179 188.181Z" fill="#FDA164"/>
<path d="M471.179 188.181C467.33 183.727 465.67 180.772 462.902 175.324L463.976 174.363L465.05 173.402L472.569 166.676L474.257 165.166C478.748 167.642 481.186 169.428 485.492 172.856C487.246 174.604 487.173 175.476 486.114 176.971C482.756 182.598 480.582 184.971 475.405 188.591C473.671 189.463 472.761 189.455 471.612 188.551C471.472 188.441 471.328 188.318 471.179 188.181Z" fill="black" fill-opacity="0.15"/>
<path d="M471.612 188.551C471.472 188.441 471.328 188.318 471.179 188.181C467.33 183.727 465.67 180.772 462.902 175.324L463.976 174.363L465.05 173.402L472.569 166.676L474.257 165.166C478.748 167.642 481.186 169.428 485.492 172.856C487.246 174.604 487.173 175.476 486.114 176.971C482.756 182.598 480.582 184.971 475.405 188.591C473.671 189.463 472.761 189.455 471.612 188.551ZM471.612 188.551C477.756 185.247 480.304 182.663 484.031 177.377" stroke="#D78955"/>
<path d="M471.612 188.551C471.472 188.441 471.328 188.318 471.179 188.181C467.33 183.727 465.67 180.772 462.902 175.324L463.976 174.363L465.05 173.402L472.569 166.676L474.257 165.166C478.748 167.642 481.186 169.428 485.492 172.856C487.246 174.604 487.173 175.476 486.114 176.971C482.756 182.598 480.582 184.971 475.405 188.591C473.671 189.463 472.761 189.455 471.612 188.551ZM471.612 188.551C477.756 185.247 480.304 182.663 484.031 177.377" stroke="black" stroke-opacity="0.2"/>
<path d="M378.191 106.086C376.27 103.637 370.736 104.835 368.209 105.74L390.765 127.105C399.083 134.978 404.365 139.256 431.708 142.939C441.788 143.79 444.646 142.669 446.788 138.936C442.772 138.367 431.912 136.969 420.606 135.928C409.3 134.888 399.732 128.413 396.362 125.306C391.105 119.92 380.111 108.535 378.191 106.086Z" fill="#323232"/>
<path d="M361.893 106.619C368.363 104.184 371.149 103.739 371.974 107.475L382.177 118.191C384.287 120.073 390.166 125.138 396.805 130.337C403.443 135.536 418.285 138.498 424.876 139.33C432.287 141.837 441.095 139.929 444.573 138.662C447.543 138.365 453.716 138.407 456.431 138.465C456.363 142.888 454.172 144.991 447.713 148.285C433.778 152.982 418.974 150.954 413.314 149.352C410.502 148.489 401.888 145.299 389.93 139.444C377.973 133.589 368.427 120.698 365.148 114.984C359.925 109.65 360.802 107.185 361.893 106.619Z" fill="#FD7D7F"/>
<ellipse cx="370.404" cy="112.37" rx="1.94601" ry="1.90542" transform="rotate(-11.0448 370.404 112.37)" fill="#F9C160"/>
<ellipse cx="375.552" cy="118.425" rx="1.94601" ry="1.90542" transform="rotate(-11.0448 375.552 118.425)" fill="#F9C160"/>
<ellipse cx="382.089" cy="124.209" rx="1.94601" ry="1.90542" transform="rotate(-11.0448 382.089 124.209)" fill="#F9C160"/>
<ellipse cx="386.968" cy="128.904" rx="1.94601" ry="1.90542" transform="rotate(-11.0448 386.968 128.904)" fill="#F9C160"/>
<ellipse cx="370.62" cy="111.623" rx="1.23837" ry="1.21254" transform="rotate(-11.0448 370.62 111.623)" fill="#F9C160"/>
<ellipse cx="370.62" cy="111.623" rx="1.23837" ry="1.21254" transform="rotate(-11.0448 370.62 111.623)" fill="black" fill-opacity="0.1"/>
<ellipse cx="375.42" cy="117.745" rx="1.23837" ry="1.21254" transform="rotate(-11.0448 375.42 117.745)" fill="#F9C160"/>
<ellipse cx="375.42" cy="117.745" rx="1.23837" ry="1.21254" transform="rotate(-11.0448 375.42 117.745)" fill="black" fill-opacity="0.1"/>
<ellipse cx="381.956" cy="123.529" rx="1.23837" ry="1.21254" transform="rotate(-11.0448 381.956 123.529)" fill="#F9C160"/>
<ellipse cx="381.956" cy="123.529" rx="1.23837" ry="1.21254" transform="rotate(-11.0448 381.956 123.529)" fill="black" fill-opacity="0.1"/>
<ellipse cx="386.836" cy="128.223" rx="1.23837" ry="1.21254" transform="rotate(-11.0448 386.836 128.223)" fill="#F9C160"/>
<ellipse cx="386.836" cy="128.223" rx="1.23837" ry="1.21254" transform="rotate(-11.0448 386.836 128.223)" fill="black" fill-opacity="0.1"/>
<ellipse cx="392.961" cy="133.736" rx="1.94601" ry="1.90542" transform="rotate(-11.0448 392.961 133.736)" fill="#2C2C2C"/>
<ellipse cx="398.816" cy="137.886" rx="1.94601" ry="1.90542" transform="rotate(-11.0448 398.816 137.886)" fill="#2C2C2C"/>
<ellipse cx="408.56" cy="141.632" rx="1.94601" ry="1.90542" transform="rotate(-11.0448 408.56 141.632)" fill="#2C2C2C"/>
<ellipse cx="416.384" cy="142.929" rx="1.94601" ry="1.90542" transform="rotate(-11.0448 416.384 142.929)" fill="#2C2C2C"/>
<ellipse cx="425.796" cy="144.975" rx="1.94601" ry="1.90542" transform="rotate(-11.0448 425.796 144.975)" fill="#2C2C2C"/>
<ellipse cx="433.353" cy="144.912" rx="1.94601" ry="1.90542" transform="rotate(-11.0448 433.353 144.912)" fill="#2C2C2C"/>
<ellipse cx="440.912" cy="144.848" rx="1.94601" ry="1.90542" transform="rotate(-11.0448 440.912 144.848)" fill="#2C2C2C"/>
<path d="M405.265 121.979C402.867 122.917 401.672 123.063 399.925 122.316C402.291 125.517 404.971 128.404 406.441 129.868C408.223 129.756 411.982 130.163 412.764 132.693L408.407 133.014C408.594 133.585 408.589 134.033 408.176 134.118L410.453 136.55C410.573 135.627 412.181 133.584 417.651 132.798C418.878 133.542 421.111 135.011 420.233 134.942C418.418 135.189 414.378 136.343 412.73 138.982L414.324 140.684L413.407 142.451L411.579 140.471L409.702 141.939L408.221 140.816L409.064 137.749L406.779 135.273C406.398 134.894 406.025 134.523 405.66 134.159C405.137 135.172 401.828 136.999 400.24 137.785L398.452 136.016C399.278 133.596 401.588 131.757 402.64 131.14C402.219 130.716 401.808 130.301 401.404 129.891C398.139 130.89 395.451 133.256 394.515 134.314L392.207 132.647C392.728 130.145 395.734 128.247 397.172 127.611C394.317 128.406 390.824 129.615 388.739 128.735C388.921 128.523 388.487 127.654 388.474 127.375L397.563 125.921C396.918 125.237 396.282 124.553 395.646 123.857C390.332 124.282 387.41 124.276 382.223 124.182C382.973 123.754 382.985 123.093 382.898 122.816C385.562 122.625 387.432 122.543 389.639 122.264C390.815 122.115 392.086 121.911 393.624 121.604C393.065 120.969 392.5 120.317 391.923 119.642C390.765 118.287 389.561 116.836 388.268 115.237C386.502 115.781 385.088 116.114 383.958 116.241C381.773 116.487 380.644 115.967 380.061 114.721C378.727 114.744 378.145 116.439 377.602 117.848C377.552 117.114 376.017 115.962 375.153 116.385C375.22 115.483 375.823 114.883 376.492 114.006C374.348 113.715 373.168 113.428 371.144 112.468L378.863 110.961C378.639 110.471 378.569 109.977 378.585 109.538C378.591 109.376 378.609 109.221 378.635 109.077C376.464 108.485 374.888 110.117 372.988 111.587C372.934 111.629 372.88 111.671 372.826 111.712C372.708 111.904 372.559 112.139 372.488 111.964C372.235 110.797 370.849 109.973 370.006 110.33C370.944 107.747 376.495 106.769 378.872 107.011C379.033 106.269 379.573 105.58 380.281 104.795C381.788 103.123 384.333 103.767 385.34 104.855C388.515 103.716 390.481 104.068 391.238 104.597C394.957 105.262 401.003 110.197 401.811 112.594C402.414 114.38 400.916 116.008 399.591 116.916C401.456 117.109 403.293 118.289 405.835 120.28L415.438 124.229L415.356 125.657L405.265 121.979Z" fill="#FAFAFA"/>
<path d="M423.598 134.638C418.22 134.417 416.134 139.801 415.764 142.521L416.698 142.691C420.459 137.58 425.187 136.622 427.081 136.782C428.231 136.027 425.238 135.038 423.598 134.638Z" fill="#FAFAFA"/>
<path d="M424.828 144.634C424.366 141.959 424.865 136.509 430.554 136.104C431.339 136.127 433.026 136.398 433.49 137.296C433.355 137.453 433.207 137.624 433.049 137.806C434.24 137.138 437.118 136.305 439.097 138.319L438.803 138.657C441.159 137.433 443.261 138.105 444.018 138.594C444.277 140.661 442.447 143.784 441.499 145.086L440.425 145.12L438.803 138.657L433.354 144.911C432.546 143.848 431.176 141.139 432.164 138.811C430.203 141.018 427.451 143.979 426.143 144.907L424.828 144.634Z" fill="#FAFAFA"/>
<path d="M388.268 115.237C389.91 115.363 393.023 116.066 395.721 117.842M388.268 115.237C386.502 115.781 385.088 116.114 383.958 116.241C381.773 116.487 380.644 115.967 380.061 114.721M388.268 115.237C389.561 116.836 390.765 118.287 391.923 119.642C392.5 120.317 393.065 120.969 393.624 121.604M408.176 134.118C407.168 134.326 406.759 134.874 406.779 135.273M408.176 134.118C408.589 134.033 408.594 133.585 408.407 133.014M408.176 134.118L410.453 136.55M406.779 135.273C406.398 134.894 406.025 134.523 405.66 134.159M406.779 135.273L411.579 140.471M395.721 117.842C396.931 118.638 398.057 119.649 398.931 120.921C399.253 121.39 399.586 121.856 399.925 122.316M395.721 117.842C396.401 117.483 397.033 117.228 397.639 117.073M405.835 120.28L405.265 121.979M405.835 120.28C403.293 118.289 401.456 117.109 399.591 116.916M405.835 120.28L415.438 124.229L415.356 125.657L405.265 121.979M405.265 121.979C402.867 122.917 401.672 123.063 399.925 122.316M399.925 122.316C402.291 125.517 404.971 128.404 406.441 129.868M399.591 116.916C400.916 116.008 402.414 114.38 401.811 112.594C401.003 110.197 394.957 105.262 391.238 104.597C390.481 104.068 388.515 103.716 385.34 104.855M399.591 116.916C398.953 116.851 398.312 116.9 397.639 117.073M378.828 108.432C381.382 106.611 383.553 105.497 385.34 104.855M378.828 108.432C378.765 108.108 378.746 107.588 378.872 107.011M378.828 108.432C378.751 108.603 378.68 108.824 378.635 109.077M397.639 117.073C396.122 114.737 394.661 113.156 393.092 112.178M393.092 112.178C390.63 109.315 388.833 107.507 384.681 107.941M393.092 112.178C391.555 111.219 389.913 110.84 388.014 110.895M378.585 109.538C380.102 108.982 381.424 108.576 382.589 108.305M378.585 109.538C378.591 109.376 378.609 109.221 378.635 109.077M378.585 109.538C378.569 109.977 378.639 110.471 378.863 110.961M382.589 108.305L381.712 112.125M382.589 108.305C383.349 108.128 384.043 108.008 384.681 107.941M381.712 112.125C381.271 112.257 380.818 112.397 380.352 112.546C380.011 112.341 379.731 112.117 379.502 111.882M381.712 112.125C384.14 111.4 386.195 110.948 388.014 110.895M384.681 107.941L388.014 110.895M379.502 111.882C379.213 111.587 379.007 111.275 378.863 110.961M379.502 111.882C379.573 113.06 379.727 114.009 380.061 114.721M385.34 104.855C384.333 103.767 381.788 103.123 380.281 104.795C379.573 105.58 379.033 106.269 378.872 107.011M378.872 107.011C376.495 106.769 370.944 107.747 370.006 110.33C370.849 109.973 372.235 110.797 372.488 111.964M372.976 111.692C373.073 111.06 372.627 112.31 372.488 111.964M372.488 111.964C374.619 110.416 376.277 108.434 378.635 109.077M378.863 110.961L371.144 112.468C373.168 113.428 374.348 113.715 376.492 114.006C375.823 114.883 375.22 115.483 375.153 116.385C376.017 115.962 377.552 117.114 377.602 117.848C378.145 116.439 378.727 114.744 380.061 114.721M393.624 121.604C394.304 122.376 394.975 123.123 395.646 123.857M393.624 121.604C392.086 121.911 390.815 122.115 389.639 122.264C387.432 122.543 385.562 122.625 382.898 122.816C382.985 123.093 382.973 123.754 382.223 124.182C387.41 124.276 390.332 124.282 395.646 123.857M395.646 123.857C396.282 124.553 396.918 125.237 397.563 125.921M397.563 125.921L388.474 127.375C388.487 127.654 388.921 128.523 388.739 128.735C390.824 129.615 394.317 128.406 397.172 127.611M397.563 125.921C397.946 126.326 398.332 126.732 398.723 127.139M398.723 127.139C398.288 127.284 397.76 127.447 397.172 127.611M398.723 127.139C399.587 128.04 400.475 128.95 401.404 129.891M397.172 127.611C395.734 128.247 392.728 130.145 392.207 132.647L394.515 134.314C395.451 133.256 398.139 130.89 401.404 129.891M401.404 129.891C401.808 130.301 402.219 130.716 402.64 131.14M402.64 131.14C401.588 131.757 399.278 133.596 398.452 136.016L400.24 137.785C401.828 136.999 405.137 135.172 405.66 134.159M402.64 131.14C403.848 132.191 404.808 133.173 405.66 134.159M406.441 129.868C406.607 130.034 406.758 130.182 406.892 130.31C407.294 130.849 408.103 132.092 408.407 133.014M406.441 129.868C408.223 129.756 411.982 130.163 412.764 132.693L408.407 133.014M409.064 137.749L408.221 140.816L409.702 141.939L411.579 140.471M411.579 140.471L413.407 142.451L414.324 140.684L412.73 138.982M410.453 136.55C410.573 135.627 412.181 133.584 417.651 132.798C418.878 133.542 421.111 135.011 420.233 134.942C418.418 135.189 414.378 136.343 412.73 138.982M410.453 136.55L412.73 138.982M432.164 138.811C430.203 141.018 427.451 143.979 426.143 144.907L424.828 144.634C424.366 141.959 424.865 136.509 430.554 136.104C431.339 136.127 433.026 136.398 433.49 137.296C433.355 137.453 433.207 137.624 433.049 137.806M432.164 138.811C431.176 141.139 432.546 143.848 433.354 144.911L438.803 138.657M432.164 138.811C432.483 138.452 432.781 138.113 433.049 137.806M433.049 137.806C434.24 137.138 437.118 136.305 439.097 138.319L438.803 138.657M438.803 138.657L440.425 145.12L441.499 145.086C442.447 143.784 444.277 140.661 444.018 138.594C443.261 138.105 441.159 137.433 438.803 138.657ZM415.764 142.521C416.134 139.801 418.22 134.417 423.598 134.638C425.238 135.038 428.231 136.027 427.081 136.782C425.187 136.622 420.459 137.58 416.698 142.691L415.764 142.521Z" stroke="#FAFAFA"/>
<path d="M388.268 115.237C389.91 115.363 393.023 116.066 395.721 117.842M388.268 115.237C386.502 115.781 385.088 116.114 383.958 116.241C381.773 116.487 380.644 115.967 380.061 114.721M388.268 115.237C389.561 116.836 390.765 118.287 391.923 119.642C392.5 120.317 393.065 120.969 393.624 121.604M408.176 134.118C407.168 134.326 406.759 134.874 406.779 135.273M408.176 134.118C408.589 134.033 408.594 133.585 408.407 133.014M408.176 134.118L410.453 136.55M406.779 135.273C406.398 134.894 406.025 134.523 405.66 134.159M406.779 135.273L411.579 140.471M395.721 117.842C396.931 118.638 398.057 119.649 398.931 120.921C399.253 121.39 399.586 121.856 399.925 122.316M395.721 117.842C396.401 117.483 397.033 117.228 397.639 117.073M405.835 120.28L405.265 121.979M405.835 120.28C403.293 118.289 401.456 117.109 399.591 116.916M405.835 120.28L415.438 124.229L415.356 125.657L405.265 121.979M405.265 121.979C402.867 122.917 401.672 123.063 399.925 122.316M399.925 122.316C402.291 125.517 404.971 128.404 406.441 129.868M399.591 116.916C400.916 116.008 402.414 114.38 401.811 112.594C401.003 110.197 394.957 105.262 391.238 104.597C390.481 104.068 388.515 103.716 385.34 104.855M399.591 116.916C398.953 116.851 398.312 116.9 397.639 117.073M378.828 108.432C381.382 106.611 383.553 105.497 385.34 104.855M378.828 108.432C378.765 108.108 378.746 107.588 378.872 107.011M378.828 108.432C378.751 108.603 378.68 108.824 378.635 109.077M397.639 117.073C396.122 114.737 394.661 113.156 393.092 112.178M393.092 112.178C390.63 109.315 388.833 107.507 384.681 107.941M393.092 112.178C391.555 111.219 389.913 110.84 388.014 110.895M378.585 109.538C380.102 108.982 381.424 108.576 382.589 108.305M378.585 109.538C378.591 109.376 378.609 109.221 378.635 109.077M378.585 109.538C378.569 109.977 378.639 110.471 378.863 110.961M382.589 108.305L381.712 112.125M382.589 108.305C383.349 108.128 384.043 108.008 384.681 107.941M381.712 112.125C381.271 112.257 380.818 112.397 380.352 112.546C380.011 112.341 379.731 112.117 379.502 111.882M381.712 112.125C384.14 111.4 386.195 110.948 388.014 110.895M384.681 107.941L388.014 110.895M379.502 111.882C379.213 111.587 379.007 111.275 378.863 110.961M379.502 111.882C379.573 113.06 379.727 114.009 380.061 114.721M385.34 104.855C384.333 103.767 381.788 103.123 380.281 104.795C379.573 105.58 379.033 106.269 378.872 107.011M378.872 107.011C376.495 106.769 370.944 107.747 370.006 110.33C370.849 109.973 372.235 110.797 372.488 111.964M372.976 111.692C373.073 111.06 372.627 112.31 372.488 111.964M372.488 111.964C374.619 110.416 376.277 108.434 378.635 109.077M378.863 110.961L371.144 112.468C373.168 113.428 374.348 113.715 376.492 114.006C375.823 114.883 375.22 115.483 375.153 116.385C376.017 115.962 377.552 117.114 377.602 117.848C378.145 116.439 378.727 114.744 380.061 114.721M393.624 121.604C394.304 122.376 394.975 123.123 395.646 123.857M393.624 121.604C392.086 121.911 390.815 122.115 389.639 122.264C387.432 122.543 385.562 122.625 382.898 122.816C382.985 123.093 382.973 123.754 382.223 124.182C387.41 124.276 390.332 124.282 395.646 123.857M395.646 123.857C396.282 124.553 396.918 125.237 397.563 125.921M397.563 125.921L388.474 127.375C388.487 127.654 388.921 128.523 388.739 128.735C390.824 129.615 394.317 128.406 397.172 127.611M397.563 125.921C397.946 126.326 398.332 126.732 398.723 127.139M398.723 127.139C398.288 127.284 397.76 127.447 397.172 127.611M398.723 127.139C399.587 128.04 400.475 128.95 401.404 129.891M397.172 127.611C395.734 128.247 392.728 130.145 392.207 132.647L394.515 134.314C395.451 133.256 398.139 130.89 401.404 129.891M401.404 129.891C401.808 130.301 402.219 130.716 402.64 131.14M402.64 131.14C401.588 131.757 399.278 133.596 398.452 136.016L400.24 137.785C401.828 136.999 405.137 135.172 405.66 134.159M402.64 131.14C403.848 132.191 404.808 133.173 405.66 134.159M406.441 129.868C406.607 130.034 406.758 130.182 406.892 130.31C407.294 130.849 408.103 132.092 408.407 133.014M406.441 129.868C408.223 129.756 411.982 130.163 412.764 132.693L408.407 133.014M409.064 137.749L408.221 140.816L409.702 141.939L411.579 140.471M411.579 140.471L413.407 142.451L414.324 140.684L412.73 138.982M410.453 136.55C410.573 135.627 412.181 133.584 417.651 132.798C418.878 133.542 421.111 135.011 420.233 134.942C418.418 135.189 414.378 136.343 412.73 138.982M410.453 136.55L412.73 138.982M432.164 138.811C430.203 141.018 427.451 143.979 426.143 144.907L424.828 144.634C424.366 141.959 424.865 136.509 430.554 136.104C431.339 136.127 433.026 136.398 433.49 137.296C433.355 137.453 433.207 137.624 433.049 137.806M432.164 138.811C431.176 141.139 432.546 143.848 433.354 144.911L438.803 138.657M432.164 138.811C432.483 138.452 432.781 138.113 433.049 137.806M433.049 137.806C434.24 137.138 437.118 136.305 439.097 138.319L438.803 138.657M438.803 138.657L440.425 145.12L441.499 145.086C442.447 143.784 444.277 140.661 444.018 138.594C443.261 138.105 441.159 137.433 438.803 138.657ZM415.764 142.521C416.134 139.801 418.22 134.417 423.598 134.638C425.238 135.038 428.231 136.027 427.081 136.782C425.187 136.622 420.459 137.58 416.698 142.691L415.764 142.521Z" stroke="black" stroke-opacity="0.2"/>
<path d="M386.956 122.376C387.187 121.343 389.046 118.615 389.946 117.38L391.527 119.013L389.974 122.14C388.872 122.649 386.725 123.41 386.956 122.376Z" fill="#FAFAFA"/>
<path d="M385.562 127.237L386.593 124.212L389.471 124.18L388.912 128.701C388.713 126.725 386.116 126.605 385.562 127.237Z" fill="#FAFAFA"/>
<path d="M386.956 122.376C387.187 121.343 389.046 118.615 389.946 117.38L391.527 119.013L389.974 122.14C388.872 122.649 386.725 123.41 386.956 122.376Z" stroke="#FAFAFA"/>
<path d="M386.956 122.376C387.187 121.343 389.046 118.615 389.946 117.38L391.527 119.013L389.974 122.14C388.872 122.649 386.725 123.41 386.956 122.376Z" stroke="black" stroke-opacity="0.2"/>
<path d="M385.562 127.237L386.593 124.212L389.471 124.18L388.912 128.701C388.713 126.725 386.116 126.605 385.562 127.237Z" stroke="#FAFAFA"/>
<path d="M385.562 127.237L386.593 124.212L389.471 124.18L388.912 128.701C388.713 126.725 386.116 126.605 385.562 127.237Z" stroke="black" stroke-opacity="0.2"/>
<path d="M397.539 212.438C398.951 219.669 394.109 226.717 386.698 228.164C379.288 229.61 372.151 224.9 370.739 217.669C369.328 210.438 374.17 203.39 381.58 201.943C388.991 200.497 396.128 205.207 397.539 212.438Z" fill="#FD159D"/>
<path d="M397.539 212.438C398.951 219.669 394.109 226.717 386.698 228.164C379.288 229.61 372.151 224.9 370.739 217.669C369.328 210.438 374.17 203.39 381.58 201.943C388.991 200.497 396.128 205.207 397.539 212.438Z" fill="black" fill-opacity="0.05"/>
<path d="M397.539 212.438C398.951 219.669 394.109 226.717 386.698 228.164C379.288 229.61 372.151 224.9 370.739 217.669C369.328 210.438 374.17 203.39 381.58 201.943C388.991 200.497 396.128 205.207 397.539 212.438Z" stroke="#FD159D"/>
<path d="M397.539 212.438C398.951 219.669 394.109 226.717 386.698 228.164C379.288 229.61 372.151 224.9 370.739 217.669C369.328 210.438 374.17 203.39 381.58 201.943C388.991 200.497 396.128 205.207 397.539 212.438Z" stroke="black" stroke-opacity="0.2"/>
<path d="M395.49 216.721C396.902 223.952 392.06 231.001 384.649 232.447C377.239 233.894 370.102 229.183 368.69 221.952C367.279 214.722 372.121 207.673 379.531 206.227C386.942 204.78 394.079 209.49 395.49 216.721Z" fill="#FD159D"/>
<path d="M395.49 216.721C396.902 223.952 392.06 231.001 384.649 232.447C377.239 233.894 370.102 229.183 368.69 221.952C367.279 214.722 372.121 207.673 379.531 206.227C386.942 204.78 394.079 209.49 395.49 216.721Z" fill="black" fill-opacity="0.05"/>
<path d="M395.49 216.721C396.902 223.952 392.06 231.001 384.649 232.447C377.239 233.894 370.102 229.183 368.69 221.952C367.279 214.722 372.121 207.673 379.531 206.227C386.942 204.78 394.079 209.49 395.49 216.721Z" stroke="#FD159D"/>
<path d="M395.49 216.721C396.902 223.952 392.06 231.001 384.649 232.447C377.239 233.894 370.102 229.183 368.69 221.952C367.279 214.722 372.121 207.673 379.531 206.227C386.942 204.78 394.079 209.49 395.49 216.721Z" stroke="black" stroke-opacity="0.2"/>
<path d="M465.878 191.333C467.444 199.354 462.598 206.995 455.129 208.453C447.661 209.91 440.297 204.653 438.731 196.632C437.166 188.611 442.012 180.97 449.48 179.512C456.949 178.054 464.313 183.312 465.878 191.333Z" fill="#FD159D"/>
<path d="M465.878 191.333C467.444 199.354 462.598 206.995 455.129 208.453C447.661 209.91 440.297 204.653 438.731 196.632C437.166 188.611 442.012 180.97 449.48 179.512C456.949 178.054 464.313 183.312 465.878 191.333Z" fill="black" fill-opacity="0.05"/>
<path d="M465.878 191.333C467.444 199.354 462.598 206.995 455.129 208.453C447.661 209.91 440.297 204.653 438.731 196.632C437.166 188.611 442.012 180.97 449.48 179.512C456.949 178.054 464.313 183.312 465.878 191.333Z" stroke="#FD159D"/>
<path d="M465.878 191.333C467.444 199.354 462.598 206.995 455.129 208.453C447.661 209.91 440.297 204.653 438.731 196.632C437.166 188.611 442.012 180.97 449.48 179.512C456.949 178.054 464.313 183.312 465.878 191.333Z" stroke="black" stroke-opacity="0.2"/>
<ellipse cx="452.719" cy="194.254" rx="3.36129" ry="3.46441" transform="rotate(-11.0448 452.719 194.254)" fill="#AFAFAF"/>
<ellipse cx="382.396" cy="219.982" rx="3.36129" ry="3.46441" transform="rotate(-11.0448 382.396 219.982)" fill="#AFAFAF"/>
<path d="M454.453 193.74C454.637 194.68 454.008 195.612 453.022 195.804C452.037 195.997 451.104 195.37 450.92 194.43C450.737 193.49 451.366 192.558 452.351 192.366C453.336 192.173 454.27 192.8 454.453 193.74Z" fill="#AFAFAF"/>
<path d="M454.453 193.74C454.637 194.68 454.008 195.612 453.022 195.804C452.037 195.997 451.104 195.37 450.92 194.43C450.737 193.49 451.366 192.558 452.351 192.366C453.336 192.173 454.27 192.8 454.453 193.74Z" stroke="#AFAFAF"/>
<path d="M454.453 193.74C454.637 194.68 454.008 195.612 453.022 195.804C452.037 195.997 451.104 195.37 450.92 194.43C450.737 193.49 451.366 192.558 452.351 192.366C453.336 192.173 454.27 192.8 454.453 193.74Z" stroke="black" stroke-opacity="0.2"/>
<path d="M384.131 219.467C384.314 220.407 383.685 221.339 382.7 221.531C381.715 221.723 380.781 221.096 380.598 220.156C380.414 219.216 381.043 218.284 382.029 218.092C383.014 217.9 383.947 218.527 384.131 219.467Z" fill="#AFAFAF"/>
<path d="M384.131 219.467C384.314 220.407 383.685 221.339 382.7 221.531C381.715 221.723 380.781 221.096 380.598 220.156C380.414 219.216 381.043 218.284 382.029 218.092C383.014 217.9 383.947 218.527 384.131 219.467Z" stroke="#AFAFAF"/>
<path d="M384.131 219.467C384.314 220.407 383.685 221.339 382.7 221.531C381.715 221.723 380.781 221.096 380.598 220.156C380.414 219.216 381.043 218.284 382.029 218.092C383.014 217.9 383.947 218.527 384.131 219.467Z" stroke="black" stroke-opacity="0.2"/>
<path d="M67.6734 173.1L55.6321 176.456L74.4829 255.289L91.8224 250.457L67.6734 173.1Z" fill="#3B021E"/>
<path d="M67.6734 173.1L55.6321 176.456L74.4829 255.289L91.8224 250.457L67.6734 173.1Z" fill="#FEFEFE" fill-opacity="0.08"/>
<path d="M67.6734 173.1L55.6321 176.456L74.4829 255.289L91.8224 250.457L67.6734 173.1Z" stroke="#3B021E"/>
<path d="M40.5129 146.412L41.3181 149.302L41.855 151.228C41.1705 152.354 40.6373 152.59 39.4467 151.9C38.2522 150.219 38.0316 149.114 38.1047 147.083C38.7583 145.771 39.3078 145.762 40.5129 146.412Z" fill="#3B021E"/>
<path d="M43.7264 148.631L41.3181 149.302M41.3181 149.302L40.5129 146.412C39.3078 145.762 38.7583 145.771 38.1047 147.083C38.0316 149.114 38.2522 150.219 39.4467 151.9C40.6373 152.59 41.1705 152.354 41.855 151.228L41.3181 149.302Z" stroke="#3B021E"/>
<path d="M45.5676 160.849L46.3728 163.739L46.9096 165.666C46.2251 166.792 45.692 167.028 44.5014 166.337C43.3068 164.656 43.0863 163.551 43.1594 161.52C43.8129 160.209 44.3625 160.2 45.5676 160.849Z" fill="#3B021E"/>
<path d="M48.7811 163.068L46.3728 163.739M46.3728 163.739L45.5676 160.849C44.3625 160.2 43.8129 160.209 43.1594 161.52C43.0863 163.551 43.3068 164.656 44.5014 166.337C45.692 167.028 46.2251 166.792 46.9096 165.666L46.3728 163.739Z" stroke="#3B021E"/>
<path d="M67.2473 154.809L68.0526 157.699L68.5894 159.626C69.7572 160.235 70.3358 160.162 70.9976 158.955C71.1508 156.898 70.7683 155.838 69.6556 154.138C68.4178 153.353 67.9429 153.63 67.2473 154.809Z" fill="#3B021E"/>
<path d="M65.6443 158.37L68.0526 157.699M68.0526 157.699L67.2473 154.809C67.9429 153.63 68.4178 153.353 69.6556 154.138C70.7683 155.838 71.1508 156.898 70.9976 158.955C70.3358 160.162 69.7572 160.235 68.5894 159.626L68.0526 157.699Z" stroke="#3B021E"/>
<path d="M63.9173 139.127L64.7225 142.017L65.2593 143.944C66.4272 144.553 67.0057 144.48 67.6675 143.273C67.8207 141.216 67.4382 140.157 66.3255 138.456C65.0877 137.671 64.6128 137.948 63.9173 139.127Z" fill="#3B021E"/>
<path d="M62.3142 142.688L64.7225 142.017M64.7225 142.017L63.9173 139.127C64.6128 137.948 65.0877 137.671 66.3255 138.456C67.4382 140.157 67.8207 141.216 67.6675 143.273C67.0057 144.48 66.4272 144.553 65.2593 143.944L64.7225 142.017Z" stroke="#3B021E"/>
<path d="M49.7352 132.942C47.3518 136.601 45.6892 138.529 41.7125 141.405C45.5268 151.846 47.1179 157.644 49.0936 167.896L54.8257 173.566C58.6779 172.672 61.7751 171.733 66.8671 170.211L68.3598 162.528C64.6353 152.783 63.0742 146.939 60.9787 136.037C55.5616 135.829 53.2311 135.022 49.7352 132.942Z" fill="#6F3F35"/>
<path d="M88.411 236.355L70.1082 241.455C57.5152 249.341 56.2979 254.805 61.9109 266.058C67.4571 277.146 68.6318 282.914 64.4206 291.83C60.9271 308.424 63.4809 315.414 74.991 324.18C92.3931 330.75 118.75 322.888 127.01 309.686C132.379 297.29 128.006 283.456 118.847 276.665C111.883 270.301 108.646 266.025 108.631 253.04C108.127 237.817 94.9409 235.574 88.411 236.355Z" fill="#6F3F35"/>
<path d="M103.577 290.782L84.7925 296.016C83.1218 297.522 83.6545 298.541 87.7137 300.911L95.5526 299.246L104.09 296.349C106.368 292.072 105.802 291.239 103.577 290.782Z" fill="#3B021E" stroke="#3B021E"/>
<circle cx="87.1771" cy="267.323" r="10.5" transform="rotate(-15.5693 87.1771 267.323)" fill="#3B021E"/>
<circle cx="87.1771" cy="267.323" r="10.5" transform="rotate(-15.5693 87.1771 267.323)" fill="black" fill-opacity="0.2"/>
<rect x="85.4082" y="296.363" width="19" height="2" transform="rotate(-15.5693 85.4082 296.363)" fill="#FAFAFA"/>
<rect x="85.4082" y="296.363" width="19" height="2" transform="rotate(-15.5693 85.4082 296.363)" fill="black" fill-opacity="0.15"/>
<path d="M102.644 296.752L62.7386 160.981C60.7752 160.144 57.7312 157.912 61.2623 155.683" stroke="#3B021E"/>
<path d="M60.3148 142.97C58.9042 141.633 56.0623 140.002 55.9799 144.178L97.8271 298.094" stroke="#3B021E"/>
<path d="M89.1585 300.509L53.4534 163.049C55.2722 161.504 57.4537 158.405 51.6297 158.367" stroke="#3B021E"/>
<path d="M45.9452 145.417C46.7159 143.678 49.2114 141.951 50.7377 147.715C51.9665 152.355 80.0991 250.609 93.9746 299.167" stroke="#3B021E"/>
<ellipse cx="52.7816" cy="160.64" rx="3" ry="2.5" transform="rotate(-15.5693 52.7816 160.64)" fill="#FAFAFA"/>
<circle cx="52.3007" cy="160.775" r="1.5" transform="rotate(-15.5693 52.3007 160.775)" fill="#DFDFDF"/>
<ellipse cx="62.4144" cy="157.957" rx="3" ry="2.5" transform="rotate(-15.5693 62.4144 157.957)" fill="#FAFAFA"/>
<circle cx="61.9335" cy="158.091" r="1.5" transform="rotate(-15.5693 61.9335 158.091)" fill="#DFDFDF"/>
<ellipse cx="58.3891" cy="143.506" rx="3" ry="2.5" transform="rotate(-15.5693 58.3891 143.506)" fill="#FAFAFA"/>
<circle cx="57.9081" cy="143.641" r="1.5" transform="rotate(-15.5693 57.9081 143.641)" fill="#DFDFDF"/>
<ellipse cx="47.7914" cy="146.46" rx="3" ry="2.5" transform="rotate(-15.5693 47.7914 146.46)" fill="#FAFAFA"/>
<circle cx="47.3105" cy="146.594" r="1.5" transform="rotate(-15.5693 47.3105 146.594)" fill="#DFDFDF"/>
<path d="M413.785 489.693C416.235 488.324 416.648 487.105 416.249 484.46C433.43 487.43 442.593 489.501 456.632 495.171C464.626 497.522 464.685 503.425 452.929 502.5C436.862 499.467 428.361 496.825 413.785 489.693Z" fill="#FD7F44"/>
<path d="M369.607 476.935L416.729 490.358L417.517 485.141L369.552 471.38C361.797 467.845 353.992 467.715 351.059 468.091C353.816 475.287 358.684 475.423 360.773 474.592C358.953 474.379 355.812 473.461 357.806 471.497C359.8 469.532 366.504 474.304 369.607 476.935Z" fill="#D9D9D9"/>
<path d="M349.288 391.663C340.465 406.161 344.697 424.695 358.528 433.111C372.36 441.528 390.765 436.769 399.587 422.27C408.409 407.772 404.178 389.239 390.346 380.822C376.514 372.406 358.11 377.165 349.288 391.663Z" stroke="#FD7CA1" stroke-width="4"/>
<path d="M349.288 391.663C340.465 406.161 344.697 424.695 358.528 433.111C372.36 441.528 390.765 436.769 399.587 422.27C408.409 407.772 404.178 389.239 390.346 380.822C376.514 372.406 358.11 377.165 349.288 391.663Z" stroke="black" stroke-opacity="0.14" stroke-width="4"/>
<path d="M403.086 392.367C393.689 404.823 369.411 428.443 347.475 423.274M399.82 387.653C391.064 398.682 369.643 423.133 354.007 432.701M403.717 419.331C392.091 420.889 364.544 417.849 347.363 393.218M404.754 413.146C397.64 416.996 376.627 417.704 349.482 389.736M402.203 421.818C392.697 425.12 367.633 425.317 343.429 399.684M365.438 376.955C372.791 388.018 385.228 415.441 376.15 436.633M359.478 436.03C366.375 429.549 383.087 409.776 394.76 382.529M369.857 436.893C373.749 431.992 377.452 413.436 361.135 378.426M385.612 376.282C384.497 389.688 378.703 421.012 364.452 439.057" stroke="#FD7CA1" stroke-width="3" stroke-linecap="round"/>
<path d="M403.086 392.367C393.689 404.823 369.411 428.443 347.475 423.274M399.82 387.653C391.064 398.682 369.643 423.133 354.007 432.701M403.717 419.331C392.091 420.889 364.544 417.849 347.363 393.218M404.754 413.146C397.64 416.996 376.627 417.704 349.482 389.736M402.203 421.818C392.697 425.12 367.633 425.317 343.429 399.684M365.438 376.955C372.791 388.018 385.228 415.441 376.15 436.633M359.478 436.03C366.375 429.549 383.087 409.776 394.76 382.529M369.857 436.893C373.749 431.992 377.452 413.436 361.135 378.426M385.612 376.282C384.497 389.688 378.703 421.012 364.452 439.057" stroke="black" stroke-opacity="0.12" stroke-width="3" stroke-linecap="round"/>
<path d="M345.611 388.744C335.639 405.132 340.651 426.321 356.713 436.095C372.774 445.868 393.897 440.581 403.869 424.193C413.841 407.805 408.829 386.616 392.768 376.842C376.706 367.069 355.583 372.356 345.611 388.744Z" stroke="#FD7CA1" stroke-width="4"/>
<path d="M345.611 388.744C335.639 405.132 340.651 426.321 356.713 436.095C372.774 445.868 393.897 440.581 403.869 424.193C413.841 407.805 408.829 386.616 392.768 376.842C376.706 367.069 355.583 372.356 345.611 388.744Z" stroke="black" stroke-opacity="0.1" stroke-width="4"/>
<path d="M387.72 372.887C388.834 387.682 386.151 422.465 366.511 443.243M367.344 371.237C377.142 387.328 396.057 423.28 393.336 438.355M342.782 388.289C360.923 390.347 399.301 399.462 407.691 419.461M409.483 398.3C396.595 392.596 364.984 388.809 341.645 419.297M411 412.356C389.465 415.631 344.562 417.959 337.233 401.07M410.242 405.328C396.601 415.027 363.011 430.288 337.784 413.736M402.47 383.251C390.799 389.523 364.739 409.034 353.871 436.908M403.532 431.277C399.102 417.64 382.43 387.823 351.189 377.645M383.708 442.292C385.464 430.313 382.903 399.583 358.604 372.497M407.296 390.203C399.798 404.794 377.088 433.152 346.226 429.853M360.191 440.075C357.824 430.73 357.91 403.748 377.191 370.582M340.117 396.321C346.17 404.71 367.811 422.56 405.953 426.849" stroke="#FD7CA1" stroke-width="3" stroke-linecap="round"/>
<path d="M387.72 372.887C388.834 387.682 386.151 422.465 366.511 443.243M367.344 371.237C377.142 387.328 396.057 423.28 393.336 438.355M342.782 388.289C360.923 390.347 399.301 399.462 407.691 419.461M409.483 398.3C396.595 392.596 364.984 388.809 341.645 419.297M411 412.356C389.465 415.631 344.562 417.959 337.233 401.07M410.242 405.328C396.601 415.027 363.011 430.288 337.784 413.736M402.47 383.251C390.799 389.523 364.739 409.034 353.871 436.908M403.532 431.277C399.102 417.64 382.43 387.823 351.189 377.645M383.708 442.292C385.464 430.313 382.903 399.583 358.604 372.497M407.296 390.203C399.798 404.794 377.088 433.152 346.226 429.853M360.191 440.075C357.824 430.73 357.91 403.748 377.191 370.582M340.117 396.321C346.17 404.71 367.811 422.56 405.953 426.849" stroke="black" stroke-opacity="0.08" stroke-width="3" stroke-linecap="round"/>
<path d="M341.631 386.324C330.323 404.906 336.027 428.962 354.29 440.075C372.552 451.187 396.539 445.198 407.846 426.616C419.154 408.033 413.449 383.977 395.187 372.865C376.925 361.752 352.938 367.741 341.631 386.324Z" fill="#FD7CA1" fill-opacity="0.95"/>
<path d="M341.631 386.324C330.323 404.906 336.027 428.962 354.29 440.075C372.552 451.187 396.539 445.198 407.846 426.616C419.154 408.033 413.449 383.977 395.187 372.865C376.925 361.752 352.938 367.741 341.631 386.324Z" stroke="#FD7CA1" stroke-width="4"/>
<path d="M341.631 386.324C330.323 404.906 336.027 428.962 354.29 440.075C372.552 451.187 396.539 445.198 407.846 426.616C419.154 408.033 413.449 383.977 395.187 372.865C376.925 361.752 352.938 367.741 341.631 386.324Z" stroke="black" stroke-opacity="0.06" stroke-width="4"/>
<path d="M381.286 365.471C380.877 382.943 378.007 423.725 369.794 447.079M385.265 367.893C386.139 382.51 385.406 418.958 375.481 447.813M389.567 366.422C389.331 377.637 382.594 408.795 357.533 443.707M414.525 399.329C401.812 404.542 368.193 415.436 335.43 417.309M413.767 392.734C397.854 398.726 359.755 410.71 334.673 410.714M411.799 388.128C398.992 392.375 365.562 401.839 334.304 405.719M410.269 425.363C397.417 420.724 366.402 404.94 345.155 378.926M407.243 430.337C394.131 424.631 362.449 407.851 340.616 386.387M403.611 436.306C388.546 428.956 354.25 409.677 337.589 391.361M397.6 439.464C387.502 436.272 363.722 418.304 349.392 371.963M381.686 445.455C379.623 434.659 373.399 403.746 365.004 366.468M400.51 373.08C390.883 390.394 364.938 425.041 338.178 425.114M405.657 380.302C393.291 393.904 364.164 424.297 346.591 437.049" stroke="#FD7CA1" stroke-width="4" stroke-linecap="round"/>
<path d="M381.286 365.471C380.877 382.943 378.007 423.725 369.794 447.079M385.265 367.893C386.139 382.51 385.406 418.958 375.481 447.813M389.567 366.422C389.331 377.637 382.594 408.795 357.533 443.707M414.525 399.329C401.812 404.542 368.193 415.436 335.43 417.309M413.767 392.734C397.854 398.726 359.755 410.71 334.673 410.714M411.799 388.128C398.992 392.375 365.562 401.839 334.304 405.719M410.269 425.363C397.417 420.724 366.402 404.94 345.155 378.926M407.243 430.337C394.131 424.631 362.449 407.851 340.616 386.387M403.611 436.306C388.546 428.956 354.25 409.677 337.589 391.361M397.6 439.464C387.502 436.272 363.722 418.304 349.392 371.963M381.686 445.455C379.623 434.659 373.399 403.746 365.004 366.468M400.51 373.08C390.883 390.394 364.938 425.041 338.178 425.114M405.657 380.302C393.291 393.904 364.164 424.297 346.591 437.049" stroke="black" stroke-opacity="0.03" stroke-width="4" stroke-linecap="round"/>
<path d="M339.032 385.252C327.005 405.017 333.278 430.79 353.043 442.817C372.808 454.844 398.581 448.571 410.608 428.806C422.635 409.041 416.362 383.269 396.597 371.242C376.832 359.215 351.059 365.487 339.032 385.252Z" stroke="#FD7CA1" stroke-width="4"/>
<path d="M339.032 385.252C327.005 405.017 333.278 430.79 353.043 442.817C372.808 454.844 398.581 448.571 410.608 428.806C422.635 409.041 416.362 383.269 396.597 371.242C376.832 359.215 351.059 365.487 339.032 385.252Z" stroke="black" stroke-opacity="0.02" stroke-width="4"/>
<path d="M371.425 361.516C373.475 379.801 377.493 423.002 377.168 449.521M390.163 447.205C388.1 431.183 378.021 392.79 354.214 367.4M383.958 449.563C382.716 435.177 376.771 397.755 362.928 363.16M361.794 449.026C368.718 432.793 385.204 393.754 395.752 367.459M417.015 416.518C400.422 413.919 360.08 406.818 331.45 399.21M416.583 421.708C405.512 419.742 373.348 411.893 333.265 396.226M420.689 403.76C399.751 409.421 353.443 420.636 335.712 420.206" stroke="#FD7CA1" stroke-width="4" stroke-linecap="round"/>
<path d="M371.425 361.516C373.475 379.801 377.493 423.002 377.168 449.521M390.163 447.205C388.1 431.183 378.021 392.79 354.214 367.4M383.958 449.563C382.716 435.177 376.771 397.755 362.928 363.16M361.794 449.026C368.718 432.793 385.204 393.754 395.752 367.459M417.015 416.518C400.422 413.919 360.08 406.818 331.45 399.21M416.583 421.708C405.512 419.742 373.348 411.893 333.265 396.226M420.689 403.76C399.751 409.421 353.443 420.636 335.712 420.206" stroke="black" stroke-opacity="0.01" stroke-width="4" stroke-linecap="round"/>
<path d="M392.335 418.732C386.386 432.026 391.988 447.329 404.643 452.992C417.298 458.655 432.441 452.634 438.39 439.339C444.339 426.045 438.737 410.742 426.082 405.079C413.427 399.416 398.283 405.437 392.335 418.732Z" stroke="#FFA000" stroke-width="4"/>
<path d="M392.335 418.732C386.386 432.026 391.988 447.329 404.643 452.992C417.298 458.655 432.441 452.634 438.39 439.339C444.339 426.045 438.737 410.742 426.082 405.079C413.427 399.416 398.283 405.437 392.335 418.732Z" stroke="black" stroke-opacity="0.14" stroke-width="4"/>
<path d="M438.391 413.369C431.67 425.097 413.376 448.039 393.967 445.986M435.073 409.674C428.748 420.105 412.999 443.45 400.603 453.376M441.863 436.473C432.043 439.078 408.043 439.464 390.605 420.168M442.082 431.045C436.388 435.128 418.41 438.025 392.047 416.945M440.833 438.775C433.023 442.648 411.509 445.546 387.926 426.153M404.368 404.223C411.888 412.93 425.554 435.143 420.056 454.344M405.666 455.641C410.888 449.321 423.099 430.508 430.168 405.821M414.678 455.253C417.489 450.617 418.655 434.266 400.83 405.956M421.629 401.448C422.127 413.091 420.553 440.641 410.268 457.7" stroke="#FFA000" stroke-width="3" stroke-linecap="round"/>
<path d="M438.391 413.369C431.67 425.097 413.376 448.039 393.967 445.986M435.073 409.674C428.748 420.105 412.999 443.45 400.603 453.376M441.863 436.473C432.043 439.078 408.043 439.464 390.605 420.168M442.082 431.045C436.388 435.128 418.41 438.025 392.047 416.945M440.833 438.775C433.023 442.648 411.509 445.546 387.926 426.153M404.368 404.223C411.888 412.93 425.554 435.143 420.056 454.344M405.666 455.641C410.888 449.321 423.099 430.508 430.168 405.821M414.678 455.253C417.489 450.617 418.655 434.266 400.83 405.956M421.629 401.448C422.127 413.091 420.553 440.641 410.268 457.7" stroke="black" stroke-opacity="0.12" stroke-width="3" stroke-linecap="round"/>
<path d="M388.859 416.623C382.129 431.662 388.683 449.166 403.407 455.754C418.13 462.342 435.549 455.565 442.278 440.526C449.007 425.487 442.453 407.983 427.73 401.395C413.007 394.807 395.588 401.584 388.859 416.623Z" stroke="#FFA000" stroke-width="4"/>
<path d="M388.859 416.623C382.129 431.662 388.683 449.166 403.407 455.754C418.13 462.342 435.549 455.565 442.278 440.526C449.007 425.487 442.453 407.983 427.73 401.395C413.007 394.807 395.588 401.584 388.859 416.623Z" stroke="black" stroke-opacity="0.1" stroke-width="4"/>
<path d="M423.074 398.3C425.638 410.893 427.112 441.078 412.494 461.073M405.387 399.101C415.554 411.863 435.712 440.7 435.013 453.951M386.135 416.43C401.946 416.223 435.912 419.877 445.294 436.151M444.535 417.77C432.841 414.271 405.268 414.46 388.528 443.202M447.365 429.685C429.217 434.844 390.889 441.734 382.756 428.018M445.95 423.727C435.283 433.548 408.08 450.321 384.606 438.843M436.874 405.601C427.527 412.261 407.255 431.867 400.946 457.005M443.004 446.758C437.716 435.522 420.152 411.712 392.202 406.367M427.167 458.384C427.375 447.898 421.835 421.767 398.014 401.136M441.776 411.05C436.919 424.406 420.486 451.25 393.611 451.775M406.72 459.039C403.671 451.265 400.813 428.068 413.777 397.466M384.718 423.622C390.83 430.173 411.364 443.157 444.603 442.69" stroke="#FFA000" stroke-width="3" stroke-linecap="round"/>
<path d="M423.074 398.3C425.638 410.893 427.112 441.078 412.494 461.073M405.387 399.101C415.554 411.863 435.712 440.7 435.013 453.951M386.135 416.43C401.946 416.223 435.912 419.877 445.294 436.151M444.535 417.77C432.841 414.271 405.268 414.46 388.528 443.202M447.365 429.685C429.217 434.844 390.889 441.734 382.756 428.018M445.95 423.727C435.283 433.548 408.08 450.321 384.606 438.843M436.874 405.601C427.527 412.261 407.255 431.867 400.946 457.005M443.004 446.758C437.716 435.522 420.152 411.712 392.202 406.367M427.167 458.384C427.375 447.898 421.835 421.767 398.014 401.136M441.776 411.05C436.919 424.406 420.486 451.25 393.611 451.775M406.72 459.039C403.671 451.265 400.813 428.068 413.777 397.466M384.718 423.622C390.83 430.173 411.364 443.157 444.603 442.69" stroke="black" stroke-opacity="0.08" stroke-width="3" stroke-linecap="round"/>
<path d="M393.398 453.252C387.081 460.372 423.344 493.728 393.814 489.356C361.841 485.917 320.539 489.171 411.115 529.7" stroke="#FFA000" stroke-width="3" stroke-linecap="round"/>
<path d="M393.398 453.252C387.081 460.372 423.344 493.728 393.814 489.356C361.841 485.917 320.539 489.171 411.115 529.7" stroke="black" stroke-opacity="0.01" stroke-width="3" stroke-linecap="round"/>
<path d="M385.177 414.975C377.539 432.045 384.999 451.937 401.759 459.437C418.519 466.936 438.322 459.243 445.96 442.173C453.598 425.103 446.138 405.211 429.378 397.712C412.618 390.212 392.815 397.905 385.177 414.975Z" fill="#FFA000" fill-opacity="0.95"/>
<path d="M385.177 414.975C377.539 432.045 384.999 451.937 401.759 459.437C418.519 466.936 438.322 459.243 445.96 442.173C453.598 425.103 446.138 405.211 429.378 397.712C412.618 390.212 392.815 397.905 385.177 414.975Z" stroke="#FFA000" stroke-width="4"/>
<path d="M385.177 414.975C377.539 432.045 384.999 451.937 401.759 459.437C418.519 466.936 438.322 459.243 445.96 442.173C453.598 425.103 446.138 405.211 429.378 397.712C412.618 390.212 392.815 397.905 385.177 414.975Z" stroke="black" stroke-opacity="0.06" stroke-width="4"/>
<path d="M416.737 392.628C418.284 407.687 420.249 443.047 415.729 464.012M420.419 394.275C422.758 406.742 426.089 438.145 420.696 464.024M423.956 392.543C424.971 402.207 422.568 429.718 404.828 462.45M448.976 418.105C438.618 423.969 410.916 436.992 382.969 442.17M447.608 412.52C434.586 419.402 403.153 433.85 381.601 436.584M445.417 408.776C434.873 413.821 407.178 425.594 380.742 432.332M448.148 440.943C436.601 438.355 408.236 428.168 387.154 408.125M446.088 445.547C434.202 442.07 405.157 431.1 384.064 415.031M443.616 451.071C429.873 446.396 398.31 433.562 382.004 419.635M438.794 454.44C429.77 452.797 407.386 439.944 390.038 401.679M425.771 461.322C422.826 452.268 414.119 426.379 402.855 395.258M434.081 397.073C427.691 413.001 409.163 445.602 386.177 448.578M439.289 402.719C430.141 415.756 408.417 445.047 394.703 457.919" stroke="#FFA000" stroke-width="4" stroke-linecap="round"/>
<path d="M416.737 392.628C418.284 407.687 420.249 443.047 415.729 464.012M420.419 394.275C422.758 406.742 426.089 438.145 420.696 464.024M423.956 392.543C424.971 402.207 422.568 429.718 404.828 462.45M448.976 418.105C438.618 423.969 410.916 436.992 382.969 442.17M447.608 412.52C434.586 419.402 403.153 433.85 381.601 436.584M445.417 408.776C434.873 413.821 407.178 425.594 380.742 432.332M448.148 440.943C436.601 438.355 408.236 428.168 387.154 408.125M446.088 445.547C434.202 442.07 405.157 431.1 384.064 415.031M443.616 451.071C429.873 446.396 398.31 433.562 382.004 419.635M438.794 454.44C429.77 452.797 407.386 439.944 390.038 401.679M425.771 461.322C422.826 452.268 414.119 426.379 402.855 395.258M434.081 397.073C427.691 413.001 409.163 445.602 386.177 448.578M439.289 402.719C430.141 415.756 408.417 445.047 394.703 457.919" stroke="black" stroke-opacity="0.03" stroke-width="4" stroke-linecap="round"/>
<path d="M382.622 413.28C374.426 431.596 382.626 453.086 400.935 461.279C419.245 469.471 440.732 461.265 448.928 442.949C457.124 424.632 448.924 403.142 430.615 394.95C412.305 386.757 390.818 394.963 382.622 413.28Z" stroke="#FFA000" stroke-width="4"/>
<path d="M382.622 413.28C374.426 431.596 382.626 453.086 400.935 461.279C419.245 469.471 440.732 461.265 448.928 442.949C457.124 424.632 448.924 403.142 430.615 394.95C412.305 386.757 390.818 394.963 382.622 413.28Z" stroke="black" stroke-opacity="0.02" stroke-width="4"/>
<path d="M407.835 390.304C411.583 405.795 419.729 442.484 422.331 465.31M433.245 461.905C429.731 448.36 416.9 416.463 393.686 397.234M428.17 464.607C425.539 452.378 416.366 420.866 400.712 392.642M409.067 466.558C413.253 451.854 423.176 416.509 429.383 392.762M452.983 432.609C438.444 432.181 403.008 430.471 377.582 427.051M453.176 437.115C443.449 436.631 414.961 433.388 378.818 424.289M454.754 421.244C437.378 428.389 398.808 443.069 383.526 444.63" stroke="#FFA000" stroke-width="4" stroke-linecap="round"/>
<path d="M407.835 390.304C411.583 405.795 419.729 442.484 422.331 465.31M433.245 461.905C429.731 448.36 416.9 416.463 393.686 397.234M428.17 464.607C425.539 452.378 416.366 420.866 400.712 392.642M409.067 466.558C413.253 451.854 423.176 416.509 429.383 392.762M452.983 432.609C438.444 432.181 403.008 430.471 377.582 427.051M453.176 437.115C443.449 436.631 414.961 433.388 378.818 424.289M454.754 421.244C437.378 428.389 398.808 443.069 383.526 444.63" stroke="black" stroke-opacity="0.01" stroke-width="4" stroke-linecap="round"/>
</svg>
