<svg width="303" height="408" viewBox="0 0 303 408" fill="none" xmlns="http://www.w3.org/2000/svg">
<ellipse cx="151.5" cy="352.64" rx="151.5" ry="55.3606" fill="#FD3F81" fill-opacity="0.19"/>
<path d="M93.3164 336.335L92.6068 315.48L91.8972 330.269C88.2326 337.423 86.3737 337.239 83.0272 330.269L82.782 322.685L82.3176 336.335C86.1735 345.224 88.4391 346.063 93.3164 336.335Z" fill="#FD3F81"/>
<path d="M92.2533 326.856C91.9493 317.854 92.2976 312.658 92.9629 302.588H83.0285C83.3659 309.216 83.4123 313.055 83.0285 320.409C82.6411 325.448 82.1377 328.167 83.0285 333.681C86.0073 336.056 87.9161 336.479 92.2533 333.681C93.0001 331.014 92.8098 329.522 92.2533 326.856Z" fill="#F7A387"/>
<path d="M125.959 339.747C121.351 334.918 118.048 331.782 113.541 325.339C114.308 328.407 114.854 330.206 117.799 333.681C112.241 333.077 110.128 332.46 106.09 326.855C103.018 322.783 102.597 319.873 101.833 315.101C99.5741 319.679 98.2088 322.058 99.3489 325.339C101.293 329.084 100.476 333.586 100.413 339.747H101.833C101.704 334.706 101.339 331.553 102.542 327.993C106.791 331.352 108.492 334.037 110.703 339.747C117.639 340.357 121.751 340.838 125.959 339.747Z" fill="#FD3F81"/>
<path d="M102.541 321.547C107.424 330.074 110.491 333.8 118.152 333.681C115.743 330.945 114.466 330.227 111.411 320.031C110.644 317.281 110.58 313.556 111.411 302.209H102.541C102.664 307.247 102.769 310.063 101.832 315.48C102.613 318.224 102.732 319.525 102.541 321.547Z" fill="#F7A387"/>
<path d="M128.797 177.837C128.08 159.659 125.222 148.551 114.605 126.647C101.659 128.062 93.6425 127.944 78.4151 126.647C71.2097 136.784 68.973 141.865 67.4163 150.157C63.3661 171.212 68.434 188.812 76.6411 219.547C77.9644 224.985 78.5378 229.696 79.1247 240.402C78.9092 269.662 79.6474 283.808 83.3824 305.242H92.962C97.2594 281.466 97.6029 266.383 96.1552 237.748C98.5512 220.443 98.8615 207.505 98.9936 183.146C101.979 202.403 103.706 213.948 105.735 221.064C106.385 227.351 106.373 230.981 105.735 237.748C99.5484 258.835 100.936 275.84 102.542 305.242H112.121C121.451 260.425 127.732 234.335 128.797 177.837Z" fill="#3B021E"/>
<path fill-rule="evenodd" clip-rule="evenodd" d="M181.06 112.339C175.367 112.522 173.331 114.248 173.025 115.088C172.212 118.905 172.256 121.46 173.025 126.657C173.982 134.608 175.323 137.593 178.65 141.203V142.234C182.208 145.899 190.244 145.212 192.884 142.234L193.803 140.63C194.836 140.63 199.543 138.912 203.561 136.622C206.775 134.789 209.032 130.436 209.76 128.489C210.334 125.969 210.609 120.449 207.119 118.524C203.629 116.6 200.614 118.486 199.543 119.67C199.735 118.942 199.602 116.632 198.854 115.088C198.269 113.881 194.492 112.339 191.622 112.339C190.728 112.339 190.057 112.317 189.342 112.293C187.76 112.241 185.962 112.181 181.06 112.339ZM196.309 136.457C197.957 132.689 198.529 130.083 198.834 124.43C201.005 120.787 202.667 120.783 203.528 120.781C203.669 120.781 203.788 120.781 203.885 120.765C204.574 120.65 205.492 120.536 206.985 122.712C208.179 124.453 207.482 127.866 206.985 129.355C206.598 130.609 205.034 132.734 202.737 134.28C200.207 135.984 197.571 136.647 196.309 136.457ZM185.914 118.305C192.577 118.305 197.978 117.116 197.978 115.65C197.978 114.184 192.577 112.996 185.914 112.996C179.252 112.996 173.851 114.184 173.851 115.65C173.851 117.116 179.252 118.305 185.914 118.305Z" fill="#F9C160"/>
<path d="M189.285 118.305V132.851" stroke="#FFF3EC" stroke-width="2" stroke-linecap="round" stroke-linejoin="round"/>
<path d="M191.467 133.195H187.334V136.288H191.467V133.195Z" fill="#FFF3EC" stroke="#FFF3EC" stroke-width="2" stroke-linecap="round" stroke-linejoin="round"/>
<path d="M0 143.331H303V150.156H264.922L296.114 352.64H292.063L255.606 150.156H49.4198L11.7473 352.64H7.69652L39.6979 150.156H0V143.331Z" fill="#A87F44"/>
<path d="M261.094 89.9799V76.1484H264.721V89.9799H267.441C270.34 93.3947 271.499 95.6545 271.975 100.847V143.33H252.027V100.847C252.952 94.8565 254.365 92.3829 258.374 89.9799H261.094Z" fill="#F9C160"/>
<path d="M261.094 89.9799V76.1484H264.721V89.9799H267.441C270.34 93.3947 271.499 95.6545 271.975 100.847V143.33H252.027V100.847C252.952 94.8565 254.365 92.3829 258.374 89.9799H261.094Z" fill="black" fill-opacity="0.12" style="mix-blend-mode:multiply"/>
<path d="M277.414 77.1367V86.0284" stroke="black" stroke-linecap="round"/>
<path d="M238.426 77.1369L242.053 35.6426H282.855L287.388 77.1369H238.426Z" fill="#172428"/>
<path d="M120.655 34.4491C120.563 29.3778 117.451 23.5233 114.623 18.5234C122.76 20.5586 126.843 26.8967 123.139 37.4825C123.139 37.4825 122.091 35.7138 120.655 34.4491Z" fill="#502D25"/>
<path d="M118.88 73.1257C123.204 67.4513 122.594 59.1606 118.88 49.9956C114.273 58.8245 109.284 62.0285 103.624 62.5086C104.002 64.2451 106.06 67.7958 107.527 69.3338C110.517 70.9151 113.498 72.0382 118.88 73.1257Z" fill="#502D25"/>
<path d="M91.5608 56.4417C90.397 55.6798 89.0878 52.565 88.0128 49.9956C86.4981 52.233 84.364 56.1671 79.1428 58.3376C75.3635 62.1366 73.2013 66.3102 72.4016 72.7465C78.8153 72.0878 85.1318 71.5888 90.8512 68.1963C92.2914 64.3652 91.8589 60.5775 91.5608 56.4417Z" fill="#502D25"/>
<path d="M98.6605 92.4637C107.956 86.1586 112.101 81.6199 117.82 71.9879C116.113 71.8861 114.01 71.2314 107.53 68.5752L105.756 64.025C119.1 57.7203 124.199 45.0659 118.882 21.5566L88.726 32.5529C86.4975 44.2121 85.3735 50.6737 91.5645 56.8206C91.8005 61.3379 91.5393 63.543 90.1453 66.6793C87.996 68.419 84.6874 69.6256 76.6628 71.9879C83.3498 81.5535 88.0057 86.1874 98.6605 92.4637Z" fill="#F7A387"/>
<path d="M91.5645 56.8206C91.8005 61.3379 91.5393 63.543 90.1453 66.6793C87.996 68.419 84.6874 69.6256 76.6628 71.9879C83.3498 81.5535 88.0057 86.1874 98.6605 92.4637C107.956 86.1586 112.101 81.6199 117.82 71.9879C116.113 71.8861 114.01 71.2314 107.53 68.5752L105.756 64.025M91.5645 56.8206C95.8057 63.796 98.8117 65.7569 105.756 64.025M91.5645 56.8206C85.3735 50.6737 86.4975 44.2121 88.726 32.5529L118.882 21.5566C124.199 45.0659 119.1 57.7203 105.756 64.025" stroke="#F7A387"/>
<path d="M91.5645 56.8206C91.8005 61.3379 91.5393 63.543 90.1453 66.6793C87.996 68.419 84.6874 69.6256 76.6628 71.9879C83.3498 81.5535 88.0057 86.1874 98.6605 92.4637C107.956 86.1586 112.101 81.6199 117.82 71.9879C116.113 71.8861 114.01 71.2314 107.53 68.5752L105.756 64.025M91.5645 56.8206C95.8057 63.796 98.8117 65.7569 105.756 64.025M91.5645 56.8206C85.3735 50.6737 86.4975 44.2121 88.726 32.5529L118.882 21.5566C124.199 45.0659 119.1 57.7203 105.756 64.025" stroke="black" stroke-opacity="0.2"/>
<path d="M118.174 51.5113C122.666 61.6517 122.401 66.3055 116.397 71.2287L124.998 77C125.696 68.054 124.631 60.9232 121.284 49.4696C124.224 47.0816 124.303 44.5487 122.783 37.1037C124.53 30.6043 129.421 29.5888 118.174 14.3514C116.241 10.1167 114.734 7.78423 110.368 3.7343C96.9461 -2.48142 89.9798 -1.08723 78.0814 9.04285C76.2203 10.7269 72.398 15.4355 71.998 20.7975C71.498 27.5 70.9218 29.7074 71.4599 37.1037C71.8904 43.0207 71.998 51.1667 71.998 54.5C71.498 58.4228 69.798 67.7916 66.998 73.8842C64.198 79.9768 63.8314 89.5 63.998 93.5L74.1757 73.8842C74.9786 68.8398 76.2532 63.4297 79.1458 58.7157C83.3137 57.138 85.2719 55.6641 87.661 51.5113C87.1113 44.1316 87.3356 40.2214 94.0474 35.9648C104.814 33.0678 110.27 30.1021 118.174 20.7975C122.705 24.9208 124.531 28.8213 122.783 37.1037C124.303 44.5487 124.224 47.0816 121.284 49.4696C121.19 49.1498 121.095 48.8267 120.998 48.5L118.174 51.5113Z" fill="#6F3F35"/>
<path d="M75.7413 127.636H113.35C116.449 117.258 117.832 111.308 115.834 104.126C121.285 109.399 123.35 113.344 125.768 121.948L140.67 127.636C136.924 109.692 135.136 99.7948 126.833 79.4796C125.146 74.0293 122.38 73.267 115.834 71.5C110.585 80.2811 107.693 83.2399 98.0938 88.9591C92.7392 86.8724 90.2844 86.6461 79.5 71C72.2493 71.6221 69.0795 72.8522 66.5165 79.4796C62.0815 95.1503 58.2871 104.604 58 132L73.2577 125.5C73.9451 123.71 72.5678 118.814 73.2577 113.227C74.3616 114.864 74.8713 119.051 75.7413 127.636Z" fill="#FD712F"/>
<path d="M75.7413 127.636H113.35C116.449 117.258 117.832 111.308 115.834 104.126C121.285 109.399 123.35 113.344 125.768 121.948L140.67 127.636C136.924 109.692 135.136 99.7948 126.833 79.4796C125.146 74.0293 122.38 73.267 115.834 71.5C110.585 80.2811 107.693 83.2399 98.0938 88.9591C92.7392 86.8724 90.2844 86.6461 79.5 71C72.2493 71.6221 69.0795 72.8522 66.5165 79.4796C62.0815 95.1503 58.2871 104.604 58 132L73.2577 125.5C73.9451 123.71 72.5678 118.814 73.2577 113.227C74.3616 114.864 74.8713 119.051 75.7413 127.636Z" fill="white" fill-opacity="0.1"/>
<path d="M103.269 136.626C108.151 134.802 110.396 134.54 113.559 135.868L112.494 143.072C107.352 142.793 103.841 142.852 97.2378 143.072C77.7634 142.399 65.069 140.764 58.5644 131.318C60.1737 125.737 63.3028 124.564 72.0469 125.251C88.9566 131.166 94.6575 133.302 103.269 136.626Z" fill="#F7A387"/>
<path d="M92.018 11.4684C97.7546 6.19477 108.74 5.60091 116.398 10.3384L113.53 6.19477C102.501 2.16848 97.3733 2.77504 87.7156 10.3384C83.6705 19.0825 82.4648 24.4047 82.3375 34.0699H85.9229C85.5774 25.094 86.3733 20.1128 92.018 11.4684Z" fill="#FDC3CD"/>
<ellipse cx="7.45082" cy="9.10037" rx="7.45082" ry="9.10037" transform="matrix(-1 0 0 1 91.5625 34.0703)" fill="#FDC3CD"/>
<ellipse cx="4.61241" cy="7.20446" rx="4.61241" ry="7.20446" transform="matrix(-1 0 0 1 88.7227 35.5869)" fill="#FD55AF"/>
<path d="M120.656 34.0703C120.429 39.5253 119.593 50.9095 118.023 51.8322C117.954 51.8539 117.886 51.8738 117.818 51.8919C117.888 51.8919 117.956 51.8716 118.023 51.8322C122.279 50.4934 128.477 42.4287 120.656 34.0703Z" fill="#FDC3CD"/>
<path d="M114.246 103.138H175.271L168.53 141.814H107.505L114.246 103.138Z" fill="#FD7CA1"/>
<path d="M167.467 144.469V141.814H106.796H90.8298V144.469H106.796H167.467Z" fill="#FD7CA1"/>
<path d="M167.467 144.469V141.814H106.796H90.8298V144.469H106.796H167.467Z" fill="black" fill-opacity="0.15"/>
</svg>
