<svg width="246" height="179" viewBox="0 0 246 179" fill="none" xmlns="http://www.w3.org/2000/svg">
<path d="M29.6035 130.173C39.1318 136.837 55.5166 157.757 62.518 167.383L76.3448 159.317L34.0153 124.253C33.7025 120.669 32.3293 113.087 29.3391 111.432C26.3489 109.777 27.7713 115.202 28.8562 118.121C29.4736 121.914 28.5935 122.547 23.8473 121.235C20.3444 120.313 18.8805 114.941 18.5865 112.37C16.1805 110.321 15.5705 110.812 15.789 114.2C14.3125 113.132 13.9239 113.689 13.555 115.166C12.9007 114.59 12.1883 113.99 11.3693 113.326C8.92662 112.162 8.87803 112.971 9.56566 115.271L8.67764 114.445C6.01828 113.75 6.13387 114.483 6.90141 116.204L13.5169 122.742C18.8678 127.576 26.4709 129.71 29.6035 130.173Z" fill="#F7A387"/>
<path d="M15.7878 121.055C13.6809 118.601 12.353 117.312 9.56566 115.271M9.56566 115.271L8.67764 114.445C6.01828 113.75 6.13387 114.483 6.90141 116.204L13.5169 122.742C18.8678 127.576 26.4709 129.71 29.6035 130.173C39.1318 136.837 55.5166 157.757 62.518 167.383L76.3448 159.317L34.0153 124.253C33.7025 120.669 32.3293 113.087 29.3391 111.432C26.3489 109.777 27.7713 115.202 28.8562 118.121C29.4736 121.914 28.5935 122.547 23.8473 121.235C20.3444 120.313 18.8805 114.941 18.5865 112.37C16.1805 110.321 15.5705 110.812 15.789 114.2M9.56566 115.271C8.87803 112.971 8.92662 112.162 11.3693 113.326C12.1883 113.99 12.9007 114.59 13.555 115.166M18.901 120.504C16.8337 118.277 15.4342 116.82 13.555 115.166M13.555 115.166C13.9239 113.689 14.3125 113.132 15.789 114.2M20.8795 120.796C19.6924 120.621 17.2936 116.56 16.2426 114.551C16.0808 114.419 15.93 114.302 15.789 114.2" stroke="#F7A387"/>
<path d="M15.7878 121.055C13.6809 118.601 12.353 117.312 9.56566 115.271M9.56566 115.271L8.67764 114.445C6.01828 113.75 6.13387 114.483 6.90141 116.204L13.5169 122.742C18.8678 127.576 26.4709 129.71 29.6035 130.173C39.1318 136.837 55.5166 157.757 62.518 167.383L76.3448 159.317L34.0153 124.253C33.7025 120.669 32.3293 113.087 29.3391 111.432C26.3489 109.777 27.7713 115.202 28.8562 118.121C29.4736 121.914 28.5935 122.547 23.8473 121.235C20.3444 120.313 18.8805 114.941 18.5865 112.37C16.1805 110.321 15.5705 110.812 15.789 114.2M9.56566 115.271C8.87803 112.971 8.92662 112.162 11.3693 113.326C12.1883 113.99 12.9007 114.59 13.555 115.166M18.901 120.504C16.8337 118.277 15.4342 116.82 13.555 115.166M13.555 115.166C13.9239 113.689 14.3125 113.132 15.789 114.2M20.8795 120.796C19.6924 120.621 17.2936 116.56 16.2426 114.551C16.0808 114.419 15.93 114.302 15.789 114.2" stroke="black" stroke-opacity="0.2"/>
<path d="M214.272 133.298C205.103 140.45 189.83 162.194 183.339 172.172L169.111 164.836L209.558 127.616C209.683 124.021 210.66 116.377 213.56 114.569C216.46 112.761 215.322 118.252 214.391 121.224C213.971 125.044 214.883 125.63 219.555 124.073C223.005 122.97 224.187 117.529 224.347 114.946C226.643 112.774 227.278 113.233 227.236 116.628C228.655 115.484 229.072 116.021 229.517 117.476C230.141 116.867 230.821 116.231 231.604 115.525C233.983 114.235 234.074 115.04 233.507 117.373L234.35 116.503C236.97 115.67 236.893 116.408 236.216 118.167L229.95 125.04C224.858 130.146 217.376 132.673 214.272 133.298Z" fill="#F7A387"/>
<path d="M227.594 123.474C229.57 120.914 230.829 119.557 233.507 117.373M233.507 117.373L234.35 116.503C236.97 115.67 236.893 116.408 236.216 118.167L229.95 125.04C224.858 130.146 217.376 132.673 214.272 133.298C205.103 140.45 189.83 162.194 183.339 172.172L169.111 164.836L209.558 127.616C209.683 124.021 210.66 116.377 213.56 114.569C216.46 112.761 215.322 118.252 214.391 121.224C213.971 125.044 214.883 125.63 219.555 124.073C223.005 122.97 224.187 117.529 224.347 114.946C226.643 112.774 227.278 113.233 227.236 116.628M233.507 117.373C234.074 115.04 233.983 114.235 231.604 115.525C230.821 116.231 230.141 116.867 229.517 117.476M224.456 123.085C226.405 120.754 227.727 119.226 229.517 117.476M229.517 117.476C229.072 116.021 228.655 115.484 227.236 116.628M222.496 123.48C223.672 123.243 225.856 119.063 226.801 117.002C226.956 116.862 227.1 116.737 227.236 116.628" stroke="#F7A387"/>
<path d="M227.594 123.474C229.57 120.914 230.829 119.557 233.507 117.373M233.507 117.373L234.35 116.503C236.97 115.67 236.893 116.408 236.216 118.167L229.95 125.04C224.858 130.146 217.376 132.673 214.272 133.298C205.103 140.45 189.83 162.194 183.339 172.172L169.111 164.836L209.558 127.616C209.683 124.021 210.66 116.377 213.56 114.569C216.46 112.761 215.322 118.252 214.391 121.224C213.971 125.044 214.883 125.63 219.555 124.073C223.005 122.97 224.187 117.529 224.347 114.946C226.643 112.774 227.278 113.233 227.236 116.628M233.507 117.373C234.074 115.04 233.983 114.235 231.604 115.525C230.821 116.231 230.141 116.867 229.517 117.476M224.456 123.085C226.405 120.754 227.727 119.226 229.517 117.476M229.517 117.476C229.072 116.021 228.655 115.484 227.236 116.628M222.496 123.48C223.672 123.243 225.856 119.063 226.801 117.002C226.956 116.862 227.1 116.737 227.236 116.628" stroke="black" stroke-opacity="0.2"/>
<path d="M128.791 74.5117V80.0117H111.791C112.321 75.4548 112.181 72.375 110.791 65.5117L128.791 74.5117Z" fill="#F7A387"/>
<path d="M111.291 77.0117C111.662 81.7769 111.608 84.3182 110.791 88.5117C109.624 90.0117 106.291 93.3117 102.291 94.5117C98.291 95.7117 90.9577 100.012 87.791 102.012C85.9577 103.345 82.191 107.612 81.791 114.012C78.4577 123.678 71.991 145.212 72.791 154.012C68.9905 152.654 65.0266 149.583 56.291 142.012C54.2957 145.785 52.4512 147.483 48.291 150.012C54.5833 159.596 58.2316 164.944 67.291 174.012C74.167 179.168 77.6953 178.864 83.291 171.512C89.0796 159.059 91.7314 151.519 94.791 136.512C99.6407 148.583 100.088 156.802 97.791 174.012C116.394 176.227 126.705 176.219 145.291 174.012C142.053 158.502 142.109 150.242 146.791 136.512C153.627 152.453 157.987 160.1 167.291 171.512C173.416 178.214 176.727 178.956 181.791 174.012C190.9 165.154 195.072 159.939 200.291 150.012C195.534 148.283 193.668 146.558 192.291 142.012C187.328 147.692 183.487 152.817 176.291 156.012C172.162 139.752 169.061 130.519 162.291 114.012L155.291 102.012C152.459 98.0517 150.188 96.2469 143.791 94.5117C137.476 93.6237 134.837 92.3071 131.791 88.0117C129.943 84.6641 129.431 82.3005 129.791 77.0117C129.317 77.0804 128.857 77.1451 128.408 77.2057C128.028 77.2572 127.656 77.3058 127.291 77.3514C126.858 77.4055 126.436 77.4555 126.022 77.5011C125.537 77.5545 125.065 77.602 124.601 77.6434C124.157 77.683 123.721 77.7171 123.291 77.7453C122.955 77.7674 122.622 77.786 122.291 77.801C121.696 77.828 121.107 77.8433 120.519 77.8465C120.11 77.8487 119.702 77.845 119.291 77.8354C118.859 77.8253 118.425 77.8085 117.985 77.785C117.527 77.7605 117.064 77.7287 116.591 77.6893C116.166 77.6539 115.733 77.6123 115.291 77.5646C114.804 77.5119 114.305 77.4517 113.791 77.3837C113.381 77.3293 112.961 77.2701 112.53 77.2057C112.127 77.1455 111.715 77.0809 111.291 77.0117Z" fill="#FD7CA1"/>
<path d="M110.791 88.5117C111.608 84.3182 111.662 81.7769 111.291 77.0117C111.715 77.0809 112.127 77.1455 112.53 77.2057M110.791 88.5117C109.624 90.0117 106.291 93.3117 102.291 94.5117C98.291 95.7117 90.9577 100.012 87.791 102.012C85.9577 103.345 82.191 107.612 81.791 114.012C78.4577 123.678 71.991 145.212 72.791 154.012C68.9905 152.654 65.0266 149.583 56.291 142.012C54.2957 145.785 52.4512 147.483 48.291 150.012C54.5834 159.596 58.2316 164.944 67.291 174.012C74.167 179.168 77.6953 178.864 83.291 171.512C89.0796 159.059 91.7314 151.519 94.791 136.512C99.6407 148.583 100.088 156.802 97.791 174.012C116.394 176.227 126.705 176.219 145.291 174.012C142.053 158.502 142.109 150.242 146.791 136.512C153.627 152.453 157.987 160.1 167.291 171.512C173.416 178.214 176.727 178.956 181.791 174.012C190.9 165.154 195.072 159.939 200.291 150.012C195.534 148.283 193.668 146.558 192.291 142.012C187.328 147.692 183.487 152.817 176.291 156.012C172.162 139.752 169.061 130.519 162.291 114.012L155.291 102.012C152.459 98.0517 150.188 96.2469 143.791 94.5117C137.476 93.6237 134.837 92.3071 131.791 88.0117M110.791 88.5117C111.305 88.5993 111.804 88.6807 112.291 88.7561M131.791 88.0117C129.943 84.6641 129.431 82.3005 129.791 77.0117C129.317 77.0804 128.857 77.1451 128.408 77.2057M131.791 88.0117C131.099 88.157 130.434 88.3883 129.791 88.5117M112.53 77.2057C112.877 81.7102 112.881 84.2809 112.291 88.7561M112.53 77.2057C112.961 77.2701 113.381 77.3293 113.791 77.3837M112.291 88.7561C112.805 88.8356 113.304 88.9083 113.791 88.9742M113.791 77.3837C114.349 81.9403 114.228 84.4045 113.791 88.9742M113.791 77.3837C114.305 77.4517 114.804 77.5119 115.291 77.5646M113.791 88.9742C114.13 89.02 114.463 89.0626 114.791 89.1018M115.291 77.5646C115.545 83.1399 115.486 85.8083 114.791 89.1018M115.291 77.5646C115.733 77.6123 116.166 77.6539 116.591 77.6893M114.791 89.1018C115.303 89.1631 115.802 89.2164 116.291 89.2616M116.591 77.6893C116.842 82.2134 116.788 84.7471 116.291 89.2616M116.591 77.6893C117.064 77.7287 117.527 77.7605 117.985 77.785M116.291 89.2616C116.733 89.3025 117.168 89.3369 117.596 89.3648M117.985 77.785C118.167 82.2922 118.086 84.8276 117.596 89.3648M117.985 77.785C118.425 77.8085 118.859 77.8253 119.291 77.8354M117.596 89.3648C118.077 89.396 118.55 89.419 119.018 89.4338M119.291 77.8354L119.018 89.4338M119.291 77.8354C119.702 77.845 120.11 77.8487 120.519 77.8465M119.018 89.4338C119.615 89.4526 120.204 89.461 120.791 89.4579M128.408 77.2057C128.071 81.6887 128.432 84.2939 129.791 88.5117M128.408 77.2057C128.028 77.2572 127.656 77.3058 127.291 77.3514M129.791 88.5117C129.319 88.6023 128.859 88.6858 128.408 88.7623M127.291 77.3514C126.831 81.8576 127.131 84.3701 128.408 88.7623M127.291 77.3514C126.858 77.4055 126.436 77.4555 126.022 77.5011M128.408 88.7623C127.952 88.8399 127.505 88.9104 127.068 88.9742M126.022 77.5011C125.688 82.0062 125.82 84.527 127.068 88.9742M126.022 77.5011C125.537 77.5545 125.065 77.602 124.601 77.6434M127.068 88.9742C126.555 89.0488 126.054 89.1141 125.562 89.1705M124.601 77.6434C124.407 82.2012 124.537 84.7186 125.562 89.1705M124.601 77.6434C124.157 77.683 123.721 77.7171 123.291 77.7453M125.562 89.1705C125.057 89.2284 124.562 89.2769 124.073 89.3167M123.291 77.7453C122.988 82.2208 123.294 84.8486 124.073 89.3167M123.291 77.7453C122.955 77.7674 122.622 77.786 122.291 77.801M124.073 89.3167C123.577 89.357 123.087 89.3883 122.6 89.4111M122.291 77.801C121.666 77.9611 121.627 79.9533 122.6 89.4111M122.291 77.801C121.696 77.828 121.107 77.8433 120.519 77.8465M122.6 89.4111C121.995 89.4395 121.394 89.4547 120.791 89.4579M120.519 77.8465L120.791 89.4579" stroke="#FD7CA1"/>
<path d="M110.791 88.5117C111.608 84.3182 111.662 81.7769 111.291 77.0117C111.715 77.0809 112.127 77.1455 112.53 77.2057M110.791 88.5117C109.624 90.0117 106.291 93.3117 102.291 94.5117C98.291 95.7117 90.9577 100.012 87.791 102.012C85.9577 103.345 82.191 107.612 81.791 114.012C78.4577 123.678 71.991 145.212 72.791 154.012C68.9905 152.654 65.0266 149.583 56.291 142.012C54.2957 145.785 52.4512 147.483 48.291 150.012C54.5834 159.596 58.2316 164.944 67.291 174.012C74.167 179.168 77.6953 178.864 83.291 171.512C89.0796 159.059 91.7314 151.519 94.791 136.512C99.6407 148.583 100.088 156.802 97.791 174.012C116.394 176.227 126.705 176.219 145.291 174.012C142.053 158.502 142.109 150.242 146.791 136.512C153.627 152.453 157.987 160.1 167.291 171.512C173.416 178.214 176.727 178.956 181.791 174.012C190.9 165.154 195.072 159.939 200.291 150.012C195.534 148.283 193.668 146.558 192.291 142.012C187.328 147.692 183.487 152.817 176.291 156.012C172.162 139.752 169.061 130.519 162.291 114.012L155.291 102.012C152.459 98.0517 150.188 96.2469 143.791 94.5117C137.476 93.6237 134.837 92.3071 131.791 88.0117M110.791 88.5117C111.305 88.5993 111.804 88.6807 112.291 88.7561M131.791 88.0117C129.943 84.6641 129.431 82.3005 129.791 77.0117C129.317 77.0804 128.857 77.1451 128.408 77.2057M131.791 88.0117C131.099 88.157 130.434 88.3883 129.791 88.5117M112.53 77.2057C112.877 81.7102 112.881 84.2809 112.291 88.7561M112.53 77.2057C112.961 77.2701 113.381 77.3293 113.791 77.3837M112.291 88.7561C112.805 88.8356 113.304 88.9083 113.791 88.9742M113.791 77.3837C114.349 81.9403 114.228 84.4045 113.791 88.9742M113.791 77.3837C114.305 77.4517 114.804 77.5119 115.291 77.5646M113.791 88.9742C114.13 89.02 114.463 89.0626 114.791 89.1018M115.291 77.5646C115.545 83.1399 115.486 85.8083 114.791 89.1018M115.291 77.5646C115.733 77.6123 116.166 77.6539 116.591 77.6893M114.791 89.1018C115.303 89.1631 115.802 89.2164 116.291 89.2616M116.591 77.6893C116.842 82.2134 116.788 84.7471 116.291 89.2616M116.591 77.6893C117.064 77.7287 117.527 77.7605 117.985 77.785M116.291 89.2616C116.733 89.3025 117.168 89.3369 117.596 89.3648M117.985 77.785C118.167 82.2922 118.086 84.8276 117.596 89.3648M117.985 77.785C118.425 77.8085 118.859 77.8253 119.291 77.8354M117.596 89.3648C118.077 89.396 118.55 89.419 119.018 89.4338M119.291 77.8354L119.018 89.4338M119.291 77.8354C119.702 77.845 120.11 77.8487 120.519 77.8465M119.018 89.4338C119.615 89.4526 120.204 89.461 120.791 89.4579M128.408 77.2057C128.071 81.6887 128.432 84.2939 129.791 88.5117M128.408 77.2057C128.028 77.2572 127.656 77.3058 127.291 77.3514M129.791 88.5117C129.319 88.6023 128.859 88.6858 128.408 88.7623M127.291 77.3514C126.831 81.8576 127.131 84.3701 128.408 88.7623M127.291 77.3514C126.858 77.4055 126.436 77.4555 126.022 77.5011M128.408 88.7623C127.952 88.8399 127.505 88.9104 127.068 88.9742M126.022 77.5011C125.688 82.0062 125.82 84.527 127.068 88.9742M126.022 77.5011C125.537 77.5545 125.065 77.602 124.601 77.6434M127.068 88.9742C126.555 89.0488 126.054 89.1141 125.562 89.1705M124.601 77.6434C124.407 82.2012 124.537 84.7186 125.562 89.1705M124.601 77.6434C124.157 77.683 123.721 77.7171 123.291 77.7453M125.562 89.1705C125.057 89.2284 124.562 89.2769 124.073 89.3167M123.291 77.7453C122.988 82.2208 123.294 84.8486 124.073 89.3167M123.291 77.7453C122.955 77.7674 122.622 77.786 122.291 77.801M124.073 89.3167C123.577 89.357 123.087 89.3883 122.6 89.4111M122.291 77.801C121.666 77.9611 121.627 79.9533 122.6 89.4111M122.291 77.801C121.696 77.828 121.107 77.8433 120.519 77.8465M122.6 89.4111C121.995 89.4395 121.394 89.4547 120.791 89.4579M120.519 77.8465L120.791 89.4579" stroke="black" stroke-opacity="0.2"/>
<path d="M144.79 63.0117C149.19 58.2117 148.957 40.0117 148.29 31.5117L117.791 4.51172L101.291 49.5117C101.624 52.8451 103.791 61.2117 109.791 68.0117C115.791 74.8117 125.291 75.8451 129.291 75.5117C135.691 75.9117 142.29 67.3451 144.79 63.0117Z" fill="#F7A387"/>
<path d="M144.79 63.0117C149.19 58.2117 148.957 40.0117 148.29 31.5117L117.791 4.51172L101.291 49.5117C101.624 52.8451 103.791 61.2117 109.791 68.0117C115.791 74.8117 125.291 75.8451 129.291 75.5117C135.691 75.9117 142.29 67.3451 144.79 63.0117Z" stroke="#F7A387"/>
<path d="M144.79 63.0117C149.19 58.2117 148.957 40.0117 148.29 31.5117L117.791 4.51172L101.291 49.5117C101.624 52.8451 103.791 61.2117 109.791 68.0117C115.791 74.8117 125.291 75.8451 129.291 75.5117C135.691 75.9117 142.29 67.3451 144.79 63.0117Z" stroke="black" stroke-opacity="0.2"/>
<path d="M101.791 52.0119C109.791 44.0119 119.791 22.3452 123.791 12.5119C130.493 23.2535 135.949 26.9416 147.791 30.5117C150.191 34.1117 148.791 49.3451 147.791 56.5117C143.791 69.7117 134.124 74.6785 129.791 75.5119C128.991 90.312 139.458 94.0119 144.791 94.0119C153.991 94.0119 163.624 114.345 167.291 124.512C174.491 127.312 178.958 119.678 180.291 115.512C183.491 102.312 171.291 91.0117 164.791 87.0117C157.291 80.3451 144.391 65.5117 152.791 59.5117C161.191 53.5117 160.958 39.3451 159.791 33.0117C157.624 28.3451 151.691 17.2117 145.291 10.0119C138.891 2.81196 127.624 1.0119 122.791 1.01185C110.446 0.819784 104.703 2.92504 96.291 10.0119C86.2719 19.2079 85.6712 31.7453 89.291 61.0119C87.4551 71.6065 85.7103 76.0564 81.791 82.0119C71.2195 93.0027 67.8348 99.7468 66.291 115.512C68.4306 117.895 68.5479 125.681 76.791 126.012C82.1784 112.62 84.3245 102.475 100.791 94.0119C108.996 92.2698 111.53 88.4448 111.291 75.5119V70.0119C104.091 61.6119 101.958 54.5119 101.791 52.0119Z" fill="#6F3F35"/>
<path d="M123.791 12.5119C119.791 22.3452 109.791 44.0119 101.791 52.0119C101.958 54.5119 104.091 61.6119 111.291 70.0119V75.5119C111.53 88.4448 108.996 92.2698 100.791 94.0119C84.3245 102.475 82.1784 112.62 76.791 126.012C68.5479 125.681 68.4306 117.895 66.291 115.512C67.8348 99.7468 71.2195 93.0027 81.791 82.0119C85.7103 76.0564 87.4551 71.6065 89.291 61.0119C85.6712 31.7453 86.2719 19.2079 96.291 10.0119C104.703 2.92504 110.446 0.819784 122.791 1.01185M123.791 12.5119L122.791 1.01185M123.791 12.5119C130.493 23.2535 135.949 26.9416 147.791 30.5117C150.191 34.1117 148.791 49.3451 147.791 56.5117C143.791 69.7117 134.124 74.6785 129.791 75.5119C128.991 90.312 139.458 94.0119 144.791 94.0119C153.991 94.0119 163.624 114.345 167.291 124.512C174.491 127.312 178.958 119.678 180.291 115.512C183.491 102.312 171.291 91.0117 164.791 87.0117C157.291 80.3451 144.391 65.5117 152.791 59.5117C161.191 53.5117 160.958 39.3451 159.791 33.0117C157.624 28.3451 151.691 17.2117 145.291 10.0119C138.891 2.81196 127.624 1.0119 122.791 1.01185" stroke="#6F3F35"/>
<path d="M123.791 12.5119C119.791 22.3452 109.791 44.0119 101.791 52.0119C101.958 54.5119 104.091 61.6119 111.291 70.0119V75.5119C111.53 88.4448 108.996 92.2698 100.791 94.0119C84.3245 102.475 82.1784 112.62 76.791 126.012C68.5479 125.681 68.4306 117.895 66.291 115.512C67.8348 99.7468 71.2195 93.0027 81.791 82.0119C85.7103 76.0564 87.4551 71.6065 89.291 61.0119C85.6712 31.7453 86.2719 19.2079 96.291 10.0119C104.703 2.92504 110.446 0.819784 122.791 1.01185M123.791 12.5119L122.791 1.01185M123.791 12.5119C130.493 23.2535 135.949 26.9416 147.791 30.5117C150.191 34.1117 148.791 49.3451 147.791 56.5117C143.791 69.7117 134.124 74.6785 129.791 75.5119C128.991 90.312 139.458 94.0119 144.791 94.0119C153.991 94.0119 163.624 114.345 167.291 124.512C174.491 127.312 178.958 119.678 180.291 115.512C183.491 102.312 171.291 91.0117 164.791 87.0117C157.291 80.3451 144.391 65.5117 152.791 59.5117C161.191 53.5117 160.958 39.3451 159.791 33.0117C157.624 28.3451 151.691 17.2117 145.291 10.0119C138.891 2.81196 127.624 1.0119 122.791 1.01185" stroke="black" stroke-opacity="0.2"/>
</svg>
