<svg width="158" height="183" viewBox="0 0 158 183" fill="none" xmlns="http://www.w3.org/2000/svg">
<path d="M59.4452 91.4167C61.0233 90.0167 61.4178 82.6667 61.4178 79.1667L92.9795 78C93.637 89.6667 96.9247 88.5 98.8973 91.4167C100.475 93.75 102.623 99.3889 103.5 101.917L81.8014 127L55.5 101.917C56.1575 99 57.8671 92.8167 59.4452 91.4167Z" fill="#F7A387"/>
<path d="M90.0429 14.2493C85.6687 12.3804 81.1324 14.0543 79.7148 16.0011V0.8168C86.2963 -0.5866 90.967 -0.407519 96.7258 3.15282C100.979 5.09958 110.335 12.6141 113.737 22.4258C117.139 32.2374 120.42 43.0614 121.635 47.539C123.052 54.158 126.252 70.0825 127.71 80.8286C129.168 91.5747 133.38 101.27 135 103.606L107.054 101.27C103.058 96.8534 95.14 93.7343 90.0429 86.5L95.5107 79.6605C99.4568 75.1477 101.675 73.4176 105.839 65.6439C107.392 51.5306 107.445 44.0746 104.5 28C101.26 23.9116 94.4171 16.1182 90.0429 14.2493Z" fill="#6F3F35"/>
<path d="M0 176C3.89452 146.133 3.7521 129.07 17 100.5C17.8333 98.3333 20.4 93.8 24 93C27.6 92.2 32.8333 91.6667 35 91.5L60 89.5C64.1663 108.564 68.5167 115.591 79 122.5C89.7558 116.339 94.4126 110.237 97.5 89.5C105.167 89.8333 121.6 90.7 126 91.5C130.4 92.3 133.167 93.1667 134 93.5C138.115 94.6977 139.663 96.5359 142 100.5C155.142 131.186 156.238 147.301 158 176H0Z" fill="#FD7CA1"/>
<path d="M35.5 145V175.5H31L35.5 145Z" fill="#FD7CA1"/>
<path d="M122 146L123 175.5H127L122 146Z" fill="#FD7CA1"/>
<path d="M115.5 148.5H86.5V168L94.5 175.5H108.5L115.5 168V148.5Z" fill="#FD7CA1"/>
<path d="M35.5 145V175.5H31L35.5 145Z" stroke="#FD7CA1"/>
<path d="M35.5 145V175.5H31L35.5 145Z" stroke="black" stroke-opacity="0.2"/>
<path d="M122 146L123 175.5H127L122 146Z" stroke="#FD7CA1"/>
<path d="M122 146L123 175.5H127L122 146Z" stroke="black" stroke-opacity="0.2"/>
<path d="M115.5 148.5H86.5V168L94.5 175.5H108.5L115.5 168V148.5Z" stroke="#FD7CA1"/>
<path d="M115.5 148.5H86.5V168L94.5 175.5H108.5L115.5 168V148.5Z" stroke="black" stroke-opacity="0.2"/>
<path d="M66.8791 179.635C67.3214 178.8 69.2747 178.591 70.1961 178.591L70.749 180.158C70.3804 180.854 69.5327 182.352 69.0905 182.769C68.6482 183.187 67.0634 182.944 66.3263 182.769L65.7734 181.725L66.8791 179.635Z" fill="#AFAFAF"/>
<path d="M66.8791 179.635C67.3214 178.8 69.2747 178.591 70.1961 178.591L70.749 180.158C70.3804 180.854 69.5327 182.352 69.0905 182.769C68.6482 183.187 67.0634 182.944 66.3263 182.769L65.7734 181.725L66.8791 179.635Z" fill="black" fill-opacity="0.1"/>
<path d="M90.0983 172.845C89.2138 172.845 88.6241 173.193 88.4398 173.367V174.934C88.6241 175.108 89.2138 175.456 90.0983 175.456C90.9829 175.456 91.5726 174.76 91.7569 174.412V173.367C91.5726 173.193 90.9829 172.845 90.0983 172.845Z" fill="#AFAFAF"/>
<path d="M90.0983 172.845C89.2138 172.845 88.6241 173.193 88.4398 173.367V174.934C88.6241 175.108 89.2138 175.456 90.0983 175.456C90.9829 175.456 91.5726 174.76 91.7569 174.412V173.367C91.5726 173.193 90.9829 172.845 90.0983 172.845Z" fill="black" fill-opacity="0.1"/>
<path d="M75.1719 167.621C75.9936 158.597 76.005 153.435 74.6191 144.115L76.2776 143.593C78.2014 151.777 77.9553 158.248 76.8305 170.755C74.3359 175.958 73.0309 177.836 70.7492 180.68L69.6435 178.068C71.5558 175.96 72.775 174.271 73.7967 171.8C63.1729 166.857 59.7021 161.677 54.1641 150.383L56.3754 149.861C61.2412 160.099 64.7883 164.903 74.6191 169.515C74.8044 168.929 74.9874 168.301 75.1719 167.621Z" fill="#AFAFAF"/>
<path d="M73.7967 171.8C72.775 174.271 71.5558 175.96 69.6435 178.068L70.7492 180.68C73.0309 177.836 74.3359 175.958 76.8305 170.755C77.9553 158.248 78.2014 151.777 76.2776 143.593L74.6191 144.115C76.005 153.435 75.9936 158.597 75.1719 167.621C74.9874 168.301 74.8044 168.929 74.6191 169.515M73.7967 171.8C63.1729 166.857 59.7021 161.677 54.1641 150.383L56.3754 149.861C61.2412 160.099 64.7883 164.903 74.6191 169.515M73.7967 171.8C74.0827 171.108 74.3532 170.355 74.6191 169.515" stroke="#AFAFAF"/>
<path d="M73.7967 171.8C72.775 174.271 71.5558 175.96 69.6435 178.068L70.7492 180.68C73.0309 177.836 74.3359 175.958 76.8305 170.755C77.9553 158.248 78.2014 151.777 76.2776 143.593L74.6191 144.115C76.005 153.435 75.9936 158.597 75.1719 167.621C74.9874 168.301 74.8044 168.929 74.6191 169.515M73.7967 171.8C63.1729 166.857 59.7021 161.677 54.1641 150.383L56.3754 149.861C61.2412 160.099 64.7883 164.903 74.6191 169.515M73.7967 171.8C74.0827 171.108 74.3532 170.355 74.6191 169.515" stroke="black" stroke-opacity="0.2"/>
<path d="M88.4398 172.844C84.342 173.212 81.7532 172.788 76.8302 171.277L76.2773 172.844C80.9959 174.351 83.6571 174.901 88.4398 175.456V172.844Z" fill="#AFAFAF"/>
<path d="M88.4398 172.844C84.342 173.212 81.7532 172.788 76.8302 171.277L76.2773 172.844C80.9959 174.351 83.6571 174.901 88.4398 175.456V172.844Z" stroke="#AFAFAF"/>
<path d="M88.4398 172.844C84.342 173.212 81.7532 172.788 76.8302 171.277L76.2773 172.844C80.9959 174.351 83.6571 174.901 88.4398 175.456V172.844Z" stroke="black" stroke-opacity="0.2"/>
<path d="M109.499 146.727C109.499 150.723 105.822 154.062 101.154 154.062C96.4863 154.062 92.8086 150.723 92.8086 146.727C92.8086 142.731 96.4863 139.392 101.154 139.392C105.822 139.392 109.499 142.731 109.499 146.727Z" fill="#AFAFAF"/>
<path d="M109.499 146.727C109.499 150.723 105.822 154.062 101.154 154.062C96.4863 154.062 92.8086 150.723 92.8086 146.727C92.8086 142.731 96.4863 139.392 101.154 139.392C105.822 139.392 109.499 142.731 109.499 146.727Z" stroke="#AFAFAF"/>
<path d="M109.499 146.727C109.499 150.723 105.822 154.062 101.154 154.062C96.4863 154.062 92.8086 150.723 92.8086 146.727C92.8086 142.731 96.4863 139.392 101.154 139.392C105.822 139.392 109.499 142.731 109.499 146.727Z" stroke="black" stroke-opacity="0.2"/>
<path d="M106.184 146.727C106.184 149.02 104.207 150.928 101.708 150.928C99.2091 150.928 97.2324 149.02 97.2324 146.727C97.2324 144.433 99.2091 142.525 101.708 142.525C104.207 142.525 106.184 144.433 106.184 146.727Z" fill="#AFAFAF"/>
<path d="M106.184 146.727C106.184 149.02 104.207 150.928 101.708 150.928C99.2091 150.928 97.2324 149.02 97.2324 146.727C97.2324 144.433 99.2091 142.525 101.708 142.525C104.207 142.525 106.184 144.433 106.184 146.727Z" stroke="#AFAFAF"/>
<path d="M106.184 146.727C106.184 149.02 104.207 150.928 101.708 150.928C99.2091 150.928 97.2324 149.02 97.2324 146.727C97.2324 144.433 99.2091 142.525 101.708 142.525C104.207 142.525 106.184 144.433 106.184 146.727Z" stroke="black" stroke-opacity="0.2"/>
<path d="M66.3266 85.0894V89.7906C60.2976 98.5277 59.6423 107.021 60.7974 125.311C66.9534 124.624 69.4176 125.394 71.3013 129.489L77.9354 144.638L73.5126 145.682C72.2227 142.896 69.0899 136.28 66.8786 132.101C64.6672 127.922 59.3237 128.619 56.9283 129.489C52.9485 129.489 52.6896 135.409 53.0576 138.369L58.5868 150.906L53.0576 151.95C51.7679 148.642 48.9674 140.563 48.0829 134.713C47.1983 128.863 53.6113 126.007 56.9283 125.311V108.073C57.1126 106.68 57.7023 102.64 58.5868 97.6259C59.4714 92.6113 64.1152 87.1788 66.3266 85.0894Z" fill="#FD712F"/>
<path d="M94.5 86.5L94 80.5C99.4908 85.4968 102.865 91.7996 106.13 99.7153C109.131 111.629 108.534 118.961 107.236 132.101L106.13 140.459L101.707 138.892L103.366 129.489C105.01 116.821 106.13 111.207 102.26 100.238C99.4961 92.4023 96.8956 89.1118 94.5 86.5Z" fill="#FD712F"/>
<path d="M61.54 14.369C67.8249 10.1647 76.3794 12.6172 79.871 14.369C85.7212 11.4303 89.2281 10.9978 96.238 14.369C99.075 16.1206 105.273 20.7918 107.368 25.4632C109.986 31.3026 111.296 54.076 109.986 62.2511C108.677 70.4262 98.8568 78.6013 98.2021 79.7692C97.5474 80.937 91.6553 85.6085 86.4178 89.1121C81.1804 92.6157 80.5257 90.28 77.2523 89.6961C74.6335 89.2289 66.5593 82.8835 62.8495 79.7692C54.9933 75.0977 51.2833 66.144 50.4104 62.2511C46.4377 45.6139 49.7955 35.6608 50.4104 25.4632C51.5015 23.517 55.255 18.5733 61.54 14.369Z" fill="#F7A387"/>
<path d="M61.54 14.369C67.8249 10.1647 76.3794 12.6172 79.871 14.369C85.7212 11.4303 89.2281 10.9978 96.238 14.369C99.075 16.1206 105.273 20.7918 107.368 25.4632C109.986 31.3026 111.296 54.076 109.986 62.2511C108.677 70.4262 98.8568 78.6013 98.2021 79.7692C97.5474 80.937 91.6553 85.6085 86.4178 89.1121C81.1804 92.6157 80.5257 90.28 77.2523 89.6961C74.6335 89.2289 66.5593 82.8835 62.8495 79.7692C54.9933 75.0977 51.2833 66.144 50.4104 62.2511C46.4377 45.6139 49.7955 35.6608 50.4104 25.4632C51.5015 23.517 55.255 18.5733 61.54 14.369Z" stroke="#F7A387"/>
<path d="M61.54 14.369C67.8249 10.1647 76.3794 12.6172 79.871 14.369C85.7212 11.4303 89.2281 10.9978 96.238 14.369C99.075 16.1206 105.273 20.7918 107.368 25.4632C109.986 31.3026 111.296 54.076 109.986 62.2511C108.677 70.4262 98.8568 78.6013 98.2021 79.7692C97.5474 80.937 91.6553 85.6085 86.4178 89.1121C81.1804 92.6157 80.5257 90.28 77.2523 89.6961C74.6335 89.2289 66.5593 82.8835 62.8495 79.7692C54.9933 75.0977 51.2833 66.144 50.4104 62.2511C46.4377 45.6139 49.7955 35.6608 50.4104 25.4632C51.5015 23.517 55.255 18.5733 61.54 14.369Z" stroke="black" stroke-opacity="0.2"/>
<path d="M69.3865 12.4974C72.7887 12.0301 77.2845 14.2494 79.1071 15.4175V1.40105C76.0701 0.622347 68.7809 -0.467839 63.9198 1.40105C59.0587 3.26994 52.5788 9.5773 49.9465 12.4974C47.1114 16.5854 41.3579 27.2162 40.8335 37.026C40.1565 49.6915 36.847 74.4896 35.3657 83.165C34.1456 96.6037 32.9998 103.982 28.6829 116.454C25.0905 129.174 23.7415 135.399 22 145.656C23.9638 141.692 24.7296 140.452 26.8603 139.231C24.9014 145.544 25.545 147.876 27.4678 151.496C27.4564 146.743 28.0505 144.587 30.5055 142.151C30.5165 147.042 31.1334 149.245 34.1507 151.496C33.8602 145.504 34.6449 143.709 37.1883 142.151C37.1624 151.562 39.2011 153.457 43.93 155C44.1711 152.168 44.5568 149.09 45.0852 145.656L46.9078 137.48L55.4133 111.782C55.3492 108.242 56.8133 105.958 57.8434 101.27C59.9887 97.1482 62.8217 92.631 65.7413 87.2532L66.9564 83.165C59.7207 78.2657 56.4568 74.846 52.9831 66.8122C49.9445 61.2566 48.5861 39.4164 51.1605 30.0184C52.5276 25.0279 55.8183 20.4793 57.8434 18.9219C60.2735 16.9751 65.9843 12.9646 69.3865 12.4974Z" fill="#6F3F35"/>
<path d="M80 14.9997V12.9997C84.0485 11.1053 86.3659 10.0631 97 10.9997L111.5 27.4997L113.5 64.9997L98.5 82.9997C100.167 80.4997 104 74.4997 106 70.4997C108 66.4997 108.5 50.833 108.5 43.4997C108.9 37.8997 107 30 106 26.5C104.167 24.1667 99.3 18.1997 94.5 14.9997C89.7 11.7997 82.8333 13.6663 80 14.9997Z" fill="#6F3F35"/>
</svg>
