<svg width="190" height="235" viewBox="0 0 190 235" fill="none" xmlns="http://www.w3.org/2000/svg">
<path d="M80.3359 210.015V220.785L96.155 219.246C90.8929 212.629 87.4448 210.555 80.3359 210.015Z" fill="#F7A387"/>
<path d="M108.81 232.324C101.777 231.445 98.8374 230.578 95.3641 228.478L118.302 223.862C121.137 229.546 119.642 231.516 108.81 232.324Z" fill="#F7A387"/>
<path d="M66.7356 43.0827C66.8569 36.7405 70.9472 29.4189 74.6636 23.166C63.9698 25.7112 58.6028 33.6377 63.4716 46.8763C63.4716 46.8763 64.8485 44.6643 66.7356 43.0827Z" fill="#502D25"/>
<path d="M69.068 91.4518C63.3862 84.3553 64.1879 73.987 69.068 62.5252C75.1237 73.5666 81.6806 77.5736 89.1185 78.174C88.6215 80.3457 85.9176 84.7862 83.9893 86.7097C80.0596 88.6872 76.1424 90.0918 69.068 91.4518Z" fill="#502D25"/>
<path d="M104.972 70.5867C106.502 69.6339 108.223 65.7385 109.635 62.5252C111.626 65.3234 114.431 70.2433 121.293 72.9577C126.259 77.7088 129.101 82.9283 130.152 90.9775C121.723 90.1538 113.422 89.5298 105.905 85.2871C104.012 80.4959 104.581 75.759 104.972 70.5867Z" fill="#502D25"/>
<path d="M95.6402 115.637C83.4232 107.751 77.9758 102.075 70.4604 90.0294C72.7035 89.9022 75.4674 89.0834 83.9829 85.7616L86.3143 80.0711C68.778 72.1864 62.077 56.3608 69.0647 26.96L108.696 40.712C111.625 55.2929 113.102 63.3739 104.966 71.0612C104.656 76.7106 104.999 79.4682 106.831 83.3905C109.656 85.5662 114.004 87.0751 124.55 90.0294C115.762 101.992 109.643 107.787 95.6402 115.637Z" fill="#F7A387"/>
<path d="M104.966 71.0612C104.656 76.7106 104.999 79.4682 106.831 83.3905C109.656 85.5662 114.004 87.0751 124.55 90.0294C115.762 101.992 109.643 107.787 95.6402 115.637C83.4232 107.751 77.9758 102.075 70.4604 90.0294C72.7035 89.9022 75.4674 89.0834 83.9829 85.7616L86.3143 80.0711M104.966 71.0612C99.3921 79.7847 95.4414 82.2369 86.3143 80.0711M104.966 71.0612C113.102 63.3739 111.625 55.2929 108.696 40.712L69.0647 26.96C62.077 56.3608 68.778 72.1864 86.3143 80.0711" stroke="#F7A387"/>
<path d="M104.966 71.0612C104.656 76.7106 104.999 79.4682 106.831 83.3905C109.656 85.5662 114.004 87.0751 124.55 90.0294C115.762 101.992 109.643 107.787 95.6402 115.637C83.4232 107.751 77.9758 102.075 70.4604 90.0294C72.7035 89.9022 75.4674 89.0834 83.9829 85.7616L86.3143 80.0711M104.966 71.0612C99.3921 79.7847 95.4414 82.2369 86.3143 80.0711M104.966 71.0612C113.102 63.3739 111.625 55.2929 108.696 40.712L69.0647 26.96C62.077 56.3608 68.778 72.1864 86.3143 80.0711" stroke="black" stroke-opacity="0.2"/>
<path d="M69.9956 64.4202C64.0918 77.1018 64.4403 82.9219 72.3309 89.0789L61.0271 96.2965C60.1104 85.1086 61.51 76.1908 65.9086 61.8668C62.0447 58.8804 61.9399 55.7128 63.9377 46.402C61.6428 38.2738 55.2148 37.0039 69.9956 17.9479C72.5356 12.652 74.5161 9.73498 80.254 4.67014C97.8939 -3.10327 107.049 -1.3597 122.687 11.309C125.132 13.4151 130.156 19.3037 130.681 26.0094C131.339 34.3916 132.096 37.1522 131.389 46.402C130.823 53.8019 130.681 63.9892 130.681 68.1579C131.339 73.0638 133.573 84.7804 137.253 92.3999C140.933 100.019 141.414 111.929 141.195 116.931L127.82 92.3999C126.764 86.0912 125.089 79.3254 121.288 73.4301C115.81 71.4569 113.237 69.6137 110.097 64.4202C110.819 55.1911 110.524 50.301 101.703 44.9777C87.5532 41.3548 80.3827 37.6458 69.9956 26.0094C64.0408 31.1661 61.6407 36.044 63.9377 46.402C61.9399 55.7128 62.0447 58.8804 65.9086 61.8668C66.0314 61.4669 66.1565 61.0628 66.284 60.6543L69.9956 64.4202Z" fill="#6F3F35"/>
<path d="M104.37 14.3429C96.8305 7.74763 82.3926 7.00495 72.3281 12.9296L76.0977 7.74763C90.5924 2.71234 97.3316 3.4709 110.024 12.9296C115.34 23.8651 116.925 30.521 117.092 42.6084H112.38C112.834 31.3831 111.788 25.1536 104.37 14.3429Z" fill="#FDC3CD"/>
<ellipse cx="114.759" cy="53.9894" rx="9.79212" ry="11.381" fill="#FDC3CD"/>
<ellipse cx="114.761" cy="53.5148" rx="6.06179" ry="9.00992" fill="#FD55AF"/>
<path d="M66.7319 42.6084C67.03 49.4304 68.1282 63.6676 70.1921 64.8215C70.2826 64.8486 70.3725 64.8734 70.4616 64.8961C70.37 64.8961 70.2801 64.8707 70.1921 64.8215C64.5985 63.1471 56.4533 53.0615 66.7319 42.6084Z" fill="#FDC3CD"/>
<path d="M150.731 170.012C155.161 165.704 155.213 152.831 154.686 146.934L139.658 150.78L137.285 186.167C141.714 184.936 148.095 174.884 150.731 170.012Z" fill="#F7A387"/>
<path d="M39.2064 170.781C34.1443 165.858 33.9334 154.37 34.4607 149.241H48.6986L52.6533 155.395V187.705C47.1993 182.365 44.2143 178.728 39.2064 170.781Z" fill="#F7A387"/>
<path d="M85.8728 99.2383C82.709 96.1611 81.918 87.4425 81.918 84.6218C67.1255 87.4753 62.8026 92.7964 58.1894 99.2383C56.6075 101.803 51.5454 110.162 43.9523 123.086C36.3591 136.01 33.4062 146.421 32.8789 150.011H51.8618L61.3532 140.01L64.517 130.779L70.0537 145.395H122.257L125.42 130.779L129.375 140.01L140.449 151.55H157.059C157.059 146.011 151.786 132.83 148.358 127.702C145.794 120.275 136.245 101.631 130.957 93.8533C125.96 86.5031 115.665 84.109 110.392 83.8525C113.556 91.2377 110.129 97.6997 108.81 99.2383C104.381 103.546 99.0554 104.11 96.9461 103.854C94.5733 103.598 89.0366 102.315 85.8728 99.2383Z" fill="#3B021E"/>
<path d="M47.9082 203.861V137.702H142.032L139.659 205.399L47.9082 203.861Z" fill="#FD7CA1"/>
<path d="M94.5732 216.939C82.6436 217.619 78.5302 217.954 73.2175 218.477C69.7848 225.976 72.0913 228.628 81.127 231.555C85.8192 230.861 89.5941 230.523 98.528 230.017C104.433 229.756 107.703 228.85 113.556 226.17L108.81 211.554C103.256 215.411 100.14 216.718 94.5732 216.939Z" fill="#F7A387"/>
<path d="M94.5732 216.939C82.6436 217.619 78.5302 217.954 73.2175 218.477C69.7848 225.976 72.0913 228.628 81.127 231.555C85.8192 230.861 89.5941 230.523 98.528 230.017C104.433 229.756 107.703 228.85 113.556 226.17L108.81 211.554C103.256 215.411 100.14 216.718 94.5732 216.939Z" stroke="#F7A387"/>
<path d="M94.5732 216.939C82.6436 217.619 78.5302 217.954 73.2175 218.477C69.7848 225.976 72.0913 228.628 81.127 231.555C85.8192 230.861 89.5941 230.523 98.528 230.017C104.433 229.756 107.703 228.85 113.556 226.17L108.81 211.554C103.256 215.411 100.14 216.718 94.5732 216.939Z" stroke="black" stroke-opacity="0.2"/>
<path d="M54.2364 220.015C58.996 214.477 64.7503 214.183 74.0092 217.708C69.2323 225.605 70.7908 228.631 81.1278 232.324C76.1169 234.682 70.3811 234.221 62.1459 233.862C55.7068 230.814 53.4418 228.163 54.2364 220.015Z" fill="#FDC3CD"/>
<path d="M134.913 220.785L119.094 224.631C120.741 230.58 114.88 231.65 108.02 232.324C109.095 232.789 115.227 233.133 126.212 233.862C133.286 231.392 135.497 228.717 134.913 220.785Z" fill="#FDC3CD"/>
<path d="M43.1623 178.475L47.908 183.091V192.321C56.3669 196.519 61.4038 199.911 67.3598 204.992L90.9303 204.223L116.516 205.399C126.517 199.641 133.708 195.959 140.45 196.168V185.398L147.568 176.167C156.688 174.158 162.977 174.038 175.252 174.628C191.071 177.706 192.653 188.476 181.579 198.476C159.956 213.883 143.539 218.519 112.766 225.401L107.23 210.785C103.537 213.98 100.524 215.112 93.7826 216.169L80.3371 210.785V216.939H73.2186C63.6422 214.125 59.1049 214.039 54.2357 219.247C30.469 212.443 20.2271 206.751 5.19655 194.63C-1.44348 184.131 -0.996073 179.618 12.3151 175.398C25.1493 175.677 32.5246 175.628 43.1623 178.475Z" fill="#172428"/>
<path d="M107.23 210.785L112.766 225.401C143.539 218.519 159.956 213.883 181.579 198.476C192.653 188.476 191.071 177.706 175.252 174.628C162.977 174.038 156.688 174.158 147.568 176.167L140.45 185.398V196.168C133.708 195.959 126.517 199.641 116.516 205.399M107.23 210.785C110.59 208.849 113.667 207.04 116.516 205.399M107.23 210.785C103.537 213.98 100.524 215.112 93.7826 216.169L80.3371 210.785V216.939H73.2185C63.6422 214.125 59.105 214.039 54.2357 219.247C30.469 212.443 20.2271 206.751 5.19655 194.63C-1.44348 184.131 -0.996073 179.618 12.3151 175.398C25.1493 175.677 32.5246 175.628 43.1623 178.475L47.908 183.091V192.321C56.3669 196.519 61.4038 199.911 67.3598 204.992M77.1725 213.861C73.7034 210.614 70.2405 207.45 67.3598 204.992M67.3598 204.992L90.9303 204.223L116.516 205.399" stroke="#172428"/>
<path d="M107.23 210.785L112.766 225.401C143.539 218.519 159.956 213.883 181.579 198.476C192.653 188.476 191.071 177.706 175.252 174.628C162.977 174.038 156.688 174.158 147.568 176.167L140.45 185.398V196.168C133.708 195.959 126.517 199.641 116.516 205.399M107.23 210.785C110.59 208.849 113.667 207.04 116.516 205.399M107.23 210.785C103.537 213.98 100.524 215.112 93.7826 216.169L80.3371 210.785V216.939H73.2185C63.6422 214.125 59.105 214.039 54.2357 219.247C30.469 212.443 20.2271 206.751 5.19655 194.63C-1.44348 184.131 -0.996073 179.618 12.3151 175.398C25.1493 175.677 32.5246 175.628 43.1623 178.475L47.908 183.091V192.321C56.3669 196.519 61.4038 199.911 67.3598 204.992M77.1725 213.861C73.7034 210.614 70.2405 207.45 67.3598 204.992M67.3598 204.992L90.9303 204.223L116.516 205.399" stroke="black" stroke-opacity="0.2"/>
</svg>
