<svg width="225" height="225" viewBox="0 0 225 225" fill="none" xmlns="http://www.w3.org/2000/svg">
<circle cx="112.5" cy="112.5" r="112.5" fill="#3B021E"/>
<path d="M112.357 164.725C119.546 169.335 121.07 171.627 120.522 175.33C91.1789 171.37 79.8451 172.463 70.4183 181.448C68.1255 168.427 68.1588 160.96 75.2431 146.777C81.3859 138.166 83.9678 132.544 85.2637 119.448C83.535 118.6 82.9448 117.685 83.0369 114.962C69.2243 109.297 65.7849 102.539 66.3359 84.7773C53.964 89.2828 50.4334 87.4433 51.4905 71.7247C47.6044 60.4932 51.2783 53.0018 62.9956 50.1063C63.3754 42.1612 64.9557 38.5628 73.0163 35.4221C79.5613 31.3316 82.2659 32.336 85.6349 39.0932C96.2286 41.807 96.1905 46.0669 92.3153 55.4089C104.91 54.9371 110.682 56.6889 117.924 64.7905C134.254 63.5666 139.821 75.8034 127.573 86.8168C127.676 91.5918 126.981 93.8376 125.718 97.8299V100.277C130.729 105.654 133.271 108.574 127.573 110.067V112.514C128.436 113.956 128.069 114.984 126.831 117.001C127.775 118.865 127.38 119.728 125.718 121.08C125.803 130.676 120.152 129.3 108.645 125.159C103.597 128.418 102.765 134.409 103.078 148.817C108.645 152.08 108.645 160.238 112.357 164.725Z" fill="#FD3F81"/>
<path fill-rule="evenodd" clip-rule="evenodd" d="M195.825 121.435L175.614 174.043L174.968 173.744H123.719V168.849H173.578L192.404 119.848L195.825 121.435Z" fill="#FD3F81"/>
</svg>
