<svg width="289" height="35" viewBox="0 0 289 35" fill="none" xmlns="http://www.w3.org/2000/svg">
<path d="M0.414062 0.288086H6.82207V27.0001H0.414062V0.288086ZM19.1059 18.7201C18.1939 18.7201 17.5099 18.8881 17.0539 19.2241C16.6219 19.5361 16.4059 20.0401 16.4059 20.7361C16.4059 21.4321 16.6339 21.9841 17.0899 22.3921C17.5459 22.7761 18.1939 22.9681 19.0339 22.9681C19.6819 22.9681 20.2699 22.8601 20.7979 22.6441C21.3499 22.4281 21.8059 22.1281 22.1659 21.7441C22.5499 21.3361 22.8019 20.8801 22.9219 20.3761L23.8219 23.2201C23.2939 24.5401 22.4539 25.5481 21.3019 26.2441C20.1499 26.9401 18.7339 27.2881 17.0539 27.2881C15.6619 27.2881 14.4619 27.0241 13.4539 26.4961C12.4699 25.9681 11.7139 25.2481 11.1859 24.3361C10.6579 23.4241 10.3939 22.3801 10.3939 21.2041C10.3939 19.3561 11.0299 17.9161 12.3019 16.8841C13.5979 15.8521 15.4459 15.3241 17.8459 15.3001H23.5339V18.7201H19.1059ZM22.9219 15.0841C22.9219 14.1481 22.6099 13.4161 21.9859 12.8881C21.3619 12.3601 20.4379 12.0961 19.2139 12.0961C18.3979 12.0961 17.4859 12.2281 16.4779 12.4921C15.4699 12.7561 14.4379 13.1521 13.3819 13.6801L11.6179 9.43209C12.6499 8.97609 13.6459 8.59209 14.6059 8.28009C15.5899 7.94409 16.5859 7.69209 17.5939 7.52409C18.6019 7.35609 19.6339 7.27209 20.6899 7.27209C23.4019 7.27209 25.4899 7.89609 26.9539 9.14409C28.4419 10.3681 29.1979 12.0961 29.2219 14.3281V27.0001H22.9219V15.0841ZM40.871 7.30809C42.527 7.30809 43.943 7.71609 45.119 8.53209C46.295 9.32409 47.207 10.4641 47.855 11.9521C48.503 13.4401 48.827 15.1921 48.827 17.2081C48.827 19.2481 48.515 21.0241 47.891 22.5361C47.267 24.0481 46.367 25.2121 45.191 26.0281C44.039 26.8441 42.647 27.2521 41.015 27.2521C39.191 27.2521 37.595 26.8321 36.227 25.9921C34.859 25.1521 33.803 23.9761 33.059 22.4641C32.315 20.9521 31.943 19.1881 31.943 17.1721C31.943 15.1801 32.303 13.4521 33.023 11.9881C33.767 10.5241 34.811 9.38409 36.155 8.56809C37.523 7.72809 39.095 7.30809 40.871 7.30809ZM42.599 12.4201C41.759 12.4201 41.015 12.6241 40.367 13.0321C39.743 13.4401 39.251 14.0161 38.891 14.7601C38.555 15.5041 38.387 16.3681 38.387 17.3521C38.387 18.3361 38.555 19.2001 38.891 19.9441C39.251 20.6641 39.743 21.2401 40.367 21.6721C41.015 22.0801 41.759 22.2841 42.599 22.2841C43.439 22.2841 44.171 22.0801 44.795 21.6721C45.419 21.2401 45.899 20.6641 46.235 19.9441C46.595 19.2001 46.775 18.3361 46.775 17.3521C46.775 16.3681 46.595 15.5041 46.235 14.7601C45.899 14.0161 45.419 13.4401 44.795 13.0321C44.171 12.6241 43.439 12.4201 42.599 12.4201ZM46.775 0.288086H53.183V27.0001H46.775V0.288086ZM68.7539 28.9441C68.0339 30.7441 67.0379 32.0761 65.7659 32.9401C64.4939 33.8281 62.9459 34.2721 61.1219 34.2721C60.0179 34.2721 58.9979 34.1041 58.0619 33.7681C57.1499 33.4561 56.2499 32.9521 55.3619 32.2561L58.0259 27.9001C58.8899 28.6201 59.7539 28.9801 60.6179 28.9801C61.1459 28.9801 61.6019 28.8481 61.9859 28.5841C62.3939 28.3441 62.7179 27.9721 62.9579 27.4681L63.4259 26.5321L55.3619 7.56009H61.9499L66.5939 20.3041L70.7339 7.56009H77.1059L68.7539 28.9441ZM79.2653 1.76409H85.8533V12.8521L95.3213 1.76409H102.953L85.8533 20.7001V27.0001H79.2653V1.76409ZM93.0893 11.4481L103.529 27.0001H95.6453L88.6973 16.6321L93.0893 11.4481ZM119.766 16.5241C119.766 15.4201 119.466 14.5441 118.866 13.8961C118.266 13.2481 117.462 12.9241 116.454 12.9241C115.254 12.9481 114.306 13.3801 113.61 14.2201C112.938 15.0361 112.602 16.0921 112.602 17.3881H111.09C111.09 15.1801 111.414 13.3321 112.062 11.8441C112.71 10.3321 113.622 9.19209 114.798 8.42409C115.998 7.65609 117.426 7.27209 119.082 7.27209C120.498 7.27209 121.734 7.58409 122.79 8.20809C123.87 8.80809 124.698 9.67209 125.274 10.8001C125.85 11.9041 126.138 13.2121 126.138 14.7241V27.0001H119.766V16.5241ZM106.23 7.56009H112.638V27.0001H106.23V7.56009ZM142.692 15.5881C142.716 14.7961 142.572 14.1241 142.26 13.5721C141.972 12.9961 141.552 12.5521 141 12.2401C140.448 11.9281 139.812 11.7721 139.092 11.7721C138.252 11.7721 137.532 12.0001 136.932 12.4561C136.356 12.8881 135.9 13.5001 135.564 14.2921C135.252 15.0601 135.096 15.9601 135.096 16.9921C135.096 18.1201 135.288 19.0921 135.672 19.9081C136.056 20.7241 136.596 21.3601 137.292 21.8161C138.012 22.2481 138.84 22.4641 139.776 22.4641C141.504 22.4641 143.028 21.8041 144.348 20.4841L147.696 23.7961C146.712 24.8761 145.5 25.7161 144.06 26.3161C142.644 26.9161 141.024 27.2161 139.2 27.2161C137.088 27.2161 135.252 26.8081 133.692 25.9921C132.156 25.1761 130.968 24.0241 130.128 22.5361C129.312 21.0481 128.904 19.3201 128.904 17.3521C128.904 15.3361 129.324 13.5841 130.164 12.0961C131.004 10.5841 132.192 9.42009 133.728 8.60409C135.264 7.76409 137.04 7.34409 139.056 7.34409C141.336 7.34409 143.22 7.82409 144.708 8.78409C146.22 9.72009 147.324 11.0641 148.02 12.8161C148.74 14.5681 149.028 16.6201 148.884 18.9721H134.196V15.5881H142.692ZM164.743 14.5441C164.311 13.8961 163.771 13.4041 163.123 13.0681C162.499 12.7081 161.767 12.5281 160.927 12.5281C160.159 12.5281 159.475 12.7321 158.875 13.1401C158.299 13.5241 157.843 14.0761 157.507 14.7961C157.195 15.5161 157.039 16.3561 157.039 17.3161C157.039 18.2761 157.195 19.1161 157.507 19.8361C157.843 20.5561 158.299 21.1201 158.875 21.5281C159.475 21.9361 160.159 22.1401 160.927 22.1401C161.791 22.1401 162.535 21.9601 163.159 21.6001C163.807 21.2401 164.335 20.6761 164.743 19.9081L169.459 22.6081C168.691 24.0721 167.539 25.2121 166.003 26.0281C164.467 26.8201 162.667 27.2161 160.603 27.2161C158.611 27.2161 156.859 26.8081 155.347 25.9921C153.835 25.1761 152.659 24.0241 151.819 22.5361C151.003 21.0481 150.595 19.3201 150.595 17.3521C150.595 15.3361 151.015 13.5841 151.855 12.0961C152.695 10.5841 153.871 9.42009 155.383 8.60409C156.895 7.76409 158.659 7.34409 160.675 7.34409C162.619 7.34409 164.347 7.74009 165.859 8.53209C167.371 9.30009 168.547 10.4041 169.387 11.8441L164.743 14.5441ZM186.11 16.5241C186.11 15.4201 185.81 14.5441 185.21 13.8961C184.61 13.2481 183.806 12.9241 182.798 12.9241C181.622 12.9481 180.686 13.3801 179.99 14.2201C179.318 15.0361 178.982 16.0921 178.982 17.3881H177.434C177.434 15.1801 177.758 13.3321 178.406 11.8441C179.054 10.3321 179.978 9.19209 181.178 8.42409C182.378 7.65609 183.794 7.27209 185.426 7.27209C186.866 7.27209 188.114 7.58409 189.17 8.20809C190.226 8.80809 191.042 9.67209 191.618 10.8001C192.218 11.9041 192.518 13.2121 192.518 14.7241V27.0001H186.11V16.5241ZM172.574 0.288086H178.982V27.0001H172.574V0.288086ZM204.335 1.76409H225.971V7.09209H218.411V27.0001H211.823V7.09209H204.335V1.76409ZM238.528 15.5881C238.552 14.7961 238.408 14.1241 238.096 13.5721C237.808 12.9961 237.388 12.5521 236.836 12.2401C236.284 11.9281 235.648 11.7721 234.928 11.7721C234.088 11.7721 233.368 12.0001 232.768 12.4561C232.192 12.8881 231.736 13.5001 231.4 14.2921C231.088 15.0601 230.932 15.9601 230.932 16.9921C230.932 18.1201 231.124 19.0921 231.508 19.9081C231.892 20.7241 232.432 21.3601 233.128 21.8161C233.848 22.2481 234.676 22.4641 235.612 22.4641C237.34 22.4641 238.864 21.8041 240.184 20.4841L243.532 23.7961C242.548 24.8761 241.336 25.7161 239.896 26.3161C238.48 26.9161 236.86 27.2161 235.036 27.2161C232.924 27.2161 231.088 26.8081 229.528 25.9921C227.992 25.1761 226.804 24.0241 225.964 22.5361C225.148 21.0481 224.74 19.3201 224.74 17.3521C224.74 15.3361 225.16 13.5841 226 12.0961C226.84 10.5841 228.028 9.42009 229.564 8.60409C231.1 7.76409 232.876 7.34409 234.892 7.34409C237.172 7.34409 239.056 7.82409 240.544 8.78409C242.056 9.72009 243.16 11.0641 243.856 12.8161C244.576 14.5681 244.864 16.6201 244.72 18.9721H230.032V15.5881H238.528ZM260.579 14.5441C260.147 13.8961 259.607 13.4041 258.959 13.0681C258.335 12.7081 257.603 12.5281 256.763 12.5281C255.995 12.5281 255.311 12.7321 254.711 13.1401C254.135 13.5241 253.679 14.0761 253.343 14.7961C253.031 15.5161 252.875 16.3561 252.875 17.3161C252.875 18.2761 253.031 19.1161 253.343 19.8361C253.679 20.5561 254.135 21.1201 254.711 21.5281C255.311 21.9361 255.995 22.1401 256.763 22.1401C257.627 22.1401 258.371 21.9601 258.995 21.6001C259.643 21.2401 260.171 20.6761 260.579 19.9081L265.295 22.6081C264.527 24.0721 263.375 25.2121 261.839 26.0281C260.303 26.8201 258.503 27.2161 256.439 27.2161C254.447 27.2161 252.695 26.8081 251.183 25.9921C249.671 25.1761 248.495 24.0241 247.655 22.5361C246.839 21.0481 246.431 19.3201 246.431 17.3521C246.431 15.3361 246.851 13.5841 247.691 12.0961C248.531 10.5841 249.707 9.42009 251.219 8.60409C252.731 7.76409 254.495 7.34409 256.511 7.34409C258.455 7.34409 260.183 7.74009 261.695 8.53209C263.207 9.30009 264.383 10.4041 265.223 11.8441L260.579 14.5441ZM281.946 16.5241C281.946 15.4201 281.646 14.5441 281.046 13.8961C280.446 13.2481 279.642 12.9241 278.634 12.9241C277.458 12.9481 276.522 13.3801 275.826 14.2201C275.154 15.0361 274.818 16.0921 274.818 17.3881H273.27C273.27 15.1801 273.594 13.3321 274.242 11.8441C274.89 10.3321 275.814 9.19209 277.014 8.42409C278.214 7.65609 279.63 7.27209 281.262 7.27209C282.702 7.27209 283.95 7.58409 285.006 8.20809C286.062 8.80809 286.878 9.67209 287.454 10.8001C288.054 11.9041 288.354 13.2121 288.354 14.7241V27.0001H281.946V16.5241ZM268.41 0.288086H274.818V27.0001H268.41V0.288086Z" fill="#3F1C30"/>
</svg>
