<svg width="50" height="45" viewBox="0 0 50 45" fill="none" xmlns="http://www.w3.org/2000/svg">
<path fill-rule="evenodd" clip-rule="evenodd" d="M0.87868 0.87868C0 1.75736 0 3.17157 0 6V8.64291C0.18547 8.64273 0.373146 8.6941 0.540758 8.80185L25 24.5256L49.4592 8.80185C49.6269 8.6941 49.8145 8.64273 50 8.64291V6C50 3.17157 50 1.75736 49.1213 0.87868C48.2426 0 46.8284 0 44 0H6C3.17157 0 1.75736 0 0.87868 0.87868ZM50 10.8318L26.0815 26.208C25.4227 26.6315 24.5773 26.6315 23.9185 26.208L0 10.8318V39C0 41.8284 0 43.2426 0.87868 44.1213C1.75736 45 3.17157 45 6 45H44C46.8284 45 48.2426 45 49.1213 44.1213C50 43.2426 50 41.8284 50 39V10.8318Z" fill="#3F1C30"/>
</svg>
